Inter-Roman.glyphspackage
{
glyphname = dollar;
kernLeft = S;
kernRight = S;
layers = (
{
layerId = "C698F293-3EC0-4A5A-A3A0-0FDB1F5CF265";
shapes = (
{
closed = 1;
nodes = (
(717,-218,l),
(717,1708,l),
(597,1708,l),
(597,-218,l)
);
},
{
ref = S;
}
);
width = 1314;
},
{
guides = (
{
pos = (0,2280);
}
);
layerId = "5C20EF92-B63D-42A8-8878-93C2863E0093";
shapes = (
{
closed = 1;
nodes = (
(760,-186,l),
(760,1676,l),
(640,1676,l),
(640,-186,l)
);
},
{
ref = S;
}
);
width = 1364;
},
{
layerId = "B1F27B51-9973-4381-9301-4FE46FE1CA59";
shapes = (
{
closed = 1;
nodes = (
(656,-186,l),
(656,1676,l),
(610,1676,l),
(610,-186,l)
);
},
{
alignment = -1;
ref = S;
}
);
width = 1254;
},
{
layerId = m007;
shapes = (
{
closed = 1;
nodes = (
(707,-222,l),
(707,1712,l),
(547,1712,l),
(547,-222,l)
);
},
{
ref = S;
}
);
width = 1258;
},
{
guides = (
{
pos = (-96,2280);
}
);
layerId = m009;
shapes = (
{
closed = 1;
nodes = (
(822,-218,l),
(822,1708,l),
(608,1708,l),
(608,-218,l)
);
},
{
ref = S;
}
);
width = 1403;
},
{
layerId = m011;
shapes = (
{
closed = 1;
nodes = (
(595,-186,l),
(595,1676,l),
(549,1676,l),
(549,-186,l)
);
},
{
alignment = -1;
ref = S;
}
);
width = 1126;
}
);
metricLeft = S;
metricRight = S;
unicode = 36;
userData = {
"interface.width-adjustments" = (
-16
);
};
}
{
glyphname = quotesingle;
kernLeft = quotedbl;
kernRight = quotedbl;
layers = (
{
background = {
shapes = (
{
ref = quoteright;
}
);
};
layerId = "C698F293-3EC0-4A5A-A3A0-0FDB1F5CF265";
shapes = (
{
closed = 1;
nodes = (
(382,923,l),
(404,1490,l),
(210,1490,l),
(232,923,l)
);
}
);
width = 614;
},
{
background = {
shapes = (
{
pos = (-3,0);
ref = quoteright;
}
);
};
layerId = "5C20EF92-B63D-42A8-8878-93C2863E0093";
shapes = (
{
closed = 1;
nodes = (
(529,824,l),
(566,1490,l),
(196,1490,l),
(233,824,l)
);
}
);
width = 762;
},
{
background = {
shapes = (
{
pos = (72,0);
ref = quoteright;
}
);
};
layerId = "B1F27B51-9973-4381-9301-4FE46FE1CA59";
shapes = (
{
closed = 1;
nodes = (
(302,1040,l),
(307,1490,l),
(256,1490,l),
(261,1040,l)
);
}
);
width = 563;
},
{
layerId = m007;
shapes = (
{
closed = 1;
nodes = (
(324,984,l),
(344,1490,l),
(176,1490,l),
(196,984,l)
);
}
);
width = 520;
},
{
background = {
shapes = (
{
pos = (-3,0);
ref = quoteright;
}
);
};
layerId = m009;
shapes = (
{
closed = 1;
nodes = (
(435,880,l),
(470,1490,l),
(116,1490,l),
(151,880,l)
);
}
);
width = 586;
},
{
background = {
shapes = (
{
pos = (-58,0);
ref = quoteright;
}
);
};
layerId = m011;
shapes = (
{
closed = 1;
nodes = (
(144,1056,l),
(148,1490,l),
(100,1490,l),
(104,1056,l)
);
}
);
width = 248;
},
{
associatedMasterId = "C698F293-3EC0-4A5A-A3A0-0FDB1F5CF265";
layerId = "B9FBAEDC-7021-4A04-93EB-75FBD30B3FED";
name = "Jun 8, 22, 14:54";
shapes = (
{
closed = 1;
nodes = (
(306,978,l),
(306,1490,l),
(146,1490,l),
(146,978,l)
);
}
);
width = 454;
}
);
metricRight = "=|quotesingle";
unicode = 39;
userData = {
"interface.width-adjustments" = (
-16
);
};
}
{
glyphname = parenleft;
kernLeft = parenleft;
kernRight = parenleft;
layers = (
{
guides = (
{
pos = (728,2144);
},
{
pos = (752,-416);
},
{
name = "Mid center";
pos = (0,651);
}
);
layerId = "B1F27B51-9973-4381-9301-4FE46FE1CA59";
shapes = (
{
closed = 1;
nodes = (
(239,339,o),
(314,19,o),
(454,-280,c),
(504,-280,l),
(360,19,o),
(286,336,o),
(286,650,cs),
(286,962,o),
(359,1280,o),
(504,1582,c),
(454,1582,l),
(314,1285,o),
(239,965,o),
(238,650,cs)
);
}
);
width = 646;
},
{
associatedMasterId = "B1F27B51-9973-4381-9301-4FE46FE1CA59";
background = {
shapes = (
{
closed = 1;
nodes = (
(177,262,o),
(276,-44,o),
(454,-302,c),
(606,-302,l),
(465,-111,o),
(355,282,o),
(354,628,cs),
(355,975,o),
(465,1367,o),
(606,1560,c),
(454,1560,l),
(276,1300,o),
(177,995,o),
(178,628,cs)
);
}
);
};
guides = (
{
angle = 90;
pos = (660,2176);
},
{
orientation = center;
pos = (412,864);
},
{
pos = (728,2144);
},
{
pos = (752,-416);
}
);
layerId = "9613F405-67A1-4060-8122-78748D4E27B8";
name = "Dec 27 18, 14:49";
shapes = (
{
closed = 0;
nodes = (
(492,1582,l),
(340,1276,o),
(262,949,o),
(262,628,cs),
(262,308,o),
(340,-20,o),
(492,-326,c)
);
}
);
width = 646;
},
{
guides = (
{
name = "Mid center";
pos = (0,651);
}
);
layerId = "C698F293-3EC0-4A5A-A3A0-0FDB1F5CF265";
shapes = (
{
closed = 1;
nodes = (
(218,315,o),
(306,10,o),
(476,-279,c),
(651,-279,l),
(479,76,o),
(401,342,o),
(401,607,cs),
(401,899,o),
(496,1266,o),
(651,1581,c),
(476,1581,l),
(326,1334,o),
(218,932,o),
(218,607,cs)
);
}
);
width = 747;
},
{
guides = (
{
name = "Mid center";
pos = (0,636);
}
);
layerId = m007;
shapes = (
{
closed = 1;
nodes = (
(148,282,o),
(232,-25,o),
(390,-294,c),
(556,-294,l),
(394,36,o),
(320,314,o),
(320,592,cs),
(320,900,o),
(410,1273,o),
(556,1566,c),
(390,1566,l),
(248,1332,o),
(148,931,o),
(148,592,cs)
);
}
);
width = 612;
},
{
associatedMasterId = m007;
background = {
shapes = (
{
closed = 1;
nodes = (
(242,1560,l),
(242,-302,l),
(672,-302,l),
(672,-160,l),
(404,-160,l),
(404,1416,l),
(672,1416,l),
(672,1560,l)
);
}
);
};
layerId = "9CF2C939-33FD-4D5D-B499-3E52B0406EDF";
name = "Jun 1, 22, 10:51";
shapes = (
{
closed = 1;
nodes = (
(186,262,o),
(285,-44,o),
(462,-302,c),
(614,-302,l),
(474,-111,o),
(364,282,o),
(364,628,cs),
(364,975,o),
(474,1367,o),
(614,1560,c),
(462,1560,l),
(285,1300,o),
(186,995,o),
(186,628,cs)
);
}
);
width = 678;
},
{
guides = (
{
name = "Mid center";
pos = (0,651);
}
);
layerId = "5C20EF92-B63D-42A8-8878-93C2863E0093";
shapes = (
{
closed = 1;
nodes = (
(128,301,o),
(217,-6,o),
(386,-279,c),
(752,-279,l),
(595,112,o),
(538,347,o),
(538,607,cs),
(538,914,o),
(617,1274,o),
(752,1581,c),
(386,1581,l),
(234,1344,o),
(128,942,o),
(128,607,cs)
);
}
);
width = 794;
},
{
guides = (
{
name = "Mid center";
pos = (0,636);
}
);
layerId = m009;
shapes = (
{
closed = 1;
nodes = (
(96,264,o),
(174,-43,o),
(322,-294,c),
(704,-294,l),
(575,45,o),
(500,296,o),
(500,592,cs),
(500,930,o),
(591,1292,o),
(704,1566,c),
(322,1566,l),
(187,1344,o),
(96,951,o),
(96,592,cs)
);
}
);
width = 736;
},
{
associatedMasterId = "C698F293-3EC0-4A5A-A3A0-0FDB1F5CF265";
background = {
shapes = (
{
closed = 1;
nodes = (
(242,1560,l),
(242,-302,l),
(672,-302,l),
(672,-160,l),
(404,-160,l),
(404,1416,l),
(672,1416,l),
(672,1560,l)
);
}
);
};
guides = (
{
name = "Mid center";
pos = (0,651);
}
);
layerId = "C71264C2-F435-4AF9-9BA8-818B83E56032";
name = "Jun 1, 22, 10:58";
shapes = (
{
closed = 1;
nodes = (
(218,262,o),
(317,-44,o),
(494,-302,c),
(646,-302,l),
(506,-111,o),
(396,282,o),
(396,628,cs),
(396,975,o),
(506,1367,o),
(646,1560,c),
(494,1560,l),
(317,1300,o),
(218,995,o),
(218,628,cs)
);
}
);
width = 742;
},
{
associatedMasterId = "5C20EF92-B63D-42A8-8878-93C2863E0093";
background = {
shapes = (
{
closed = 1;
nodes = (
(1016,-338,l),
(1016,-46,l),
(736,-46,l),
(736,1198,l),
(1016,1198,l),
(1016,1490,l),
(346,1490,l),
(346,-338,l)
);
}
);
};
guides = (
{
name = "Mid center";
pos = (0,651);
}
);
layerId = "7F286FB3-CE07-4CF7-9740-45E871A5D1C5";
name = "Jun 1, 22, 11:04";
shapes = (
{
closed = 1;
nodes = (
(175,218,o),
(268,-79,o),
(480,-338,c),
(872,-338,l),
(713,-145,o),
(593,233,o),
(594,576,cs),
(593,919,o),
(713,1297,o),
(872,1490,c),
(480,1490,l),
(268,1231,o),
(175,934,o),
(174,576,cs)
);
}
);
width = 902;
},
{
guides = (
{
pos = (600,2144);
},
{
pos = (624,-416);
},
{
name = "Mid center";
pos = (0,636);
}
);
layerId = m011;
shapes = (
{
closed = 1;
nodes = (
(175,324,o),
(250,4,o),
(390,-295,c),
(440,-295,l),
(296,4,o),
(222,321,o),
(222,635,cs),
(222,947,o),
(295,1265,o),
(440,1567,c),
(390,1567,l),
(250,1270,o),
(175,950,o),
(174,635,cs)
);
}
);
width = 518;
}
);
unicode = 40;
userData = {
com.typemytype.robofont.guideline.magnetic.6H1sRKKBfi = 5;
com.typemytype.robofont.guideline.magnetic.IYaB9kRuJP = 5;
com.typemytype.robofont.guideline.magnetic.PK9Z25O3at = 5;
com.typemytype.robofont.guideline.magnetic.pOwuJlK9ke = 5;
"interface.width-adjustments" = (
-16
);
};
}
{
glyphname = parenright;
kernLeft = parenright;
kernRight = parenright;
layers = (
{
guides = (
{
name = "Mid center";
pos = (-126,651);
}
);
layerId = "C698F293-3EC0-4A5A-A3A0-0FDB1F5CF265";
shapes = (
{
closed = 1;
nodes = (
(271,-279,l),
(438,5,o),
(529,310,o),
(529,607,cs),
(529,931,o),
(421,1335,o),
(271,1581,c),
(96,1581,l),
(251,1266,o),
(346,899,o),
(346,607,cs),
(346,350,o),
(273,86,o),
(96,-279,c)
);
}
);
width = 747;
},
{
guides = (
{
name = "Mid center";
pos = (-240,651);
}
);
layerId = "5C20EF92-B63D-42A8-8878-93C2863E0093";
shapes = (
{
closed = 1;
nodes = (
(408,-279,l),
(577,-6,o),
(666,301,o),
(666,607,cs),
(666,942,o),
(560,1344,o),
(408,1581,c),
(42,1581,l),
(177,1274,o),
(256,914,o),
(256,607,cs),
(256,347,o),
(199,112,o),
(42,-279,c)
);
}
);
width = 794;
},
{
guides = (
{
name = "Mid center";
pos = (0,651);
}
);
layerId = "B1F27B51-9973-4381-9301-4FE46FE1CA59";
shapes = (
{
closed = 1;
nodes = (
(192,-279,l),
(332,20,o),
(408,340,o),
(408,651,cs),
(408,966,o),
(332,1286,o),
(192,1583,c),
(142,1583,l),
(287,1281,o),
(360,963,o),
(360,651,cs),
(360,337,o),
(286,20,o),
(142,-279,c)
);
}
);
width = 646;
},
{
guides = (
{
name = "Mid center";
pos = (-259,636);
}
);
layerId = m007;
shapes = (
{
closed = 1;
nodes = (
(222,-294,l),
(380,-25,o),
(464,282,o),
(464,592,cs),
(464,931,o),
(364,1332,o),
(222,1566,c),
(56,1566,l),
(202,1273,o),
(292,900,o),
(292,592,cs),
(292,314,o),
(218,36,o),
(56,-294,c)
);
}
);
width = 612;
},
{
guides = (
{
pos = (-318,1240);
},
{
pos = (-318,764);
},
{
name = "Mid center";
pos = (-198,636);
}
);
layerId = m009;
shapes = (
{
closed = 1;
nodes = (
(414,-294,l),
(562,-43,o),
(640,264,o),
(640,592,cs),
(640,951,o),
(549,1344,o),
(414,1566,c),
(32,1566,l),
(145,1292,o),
(236,930,o),
(236,592,cs),
(236,296,o),
(161,45,o),
(32,-294,c)
);
}
);
width = 736;
},
{
guides = (
{
name = "Mid center";
pos = (0,636);
}
);
layerId = m011;
shapes = (
{
closed = 1;
nodes = (
(128,-294,l),
(268,5,o),
(344,325,o),
(344,636,cs),
(344,951,o),
(268,1271,o),
(128,1568,c),
(78,1568,l),
(223,1266,o),
(296,948,o),
(296,636,cs),
(296,322,o),
(222,5,o),
(78,-294,c)
);
}
);
width = 518;
}
);
metricLeft = "=|parenleft";
metricRight = "=|parenleft";
unicode = 41;
userData = {
"interface.width-adjustments" = (
-16
);
};
}
{
glyphname = one;
kernLeft = one;
kernRight = H;
layers = (
{
layerId = "B1F27B51-9973-4381-9301-4FE46FE1CA59";
shapes = (
{
closed = 1;
nodes = (
(456,1490,l),
(146,1258,l),
(146,1202,l),
(466,1440,l),
(474,1440,l),
(474,0,l),
(520,0,l),
(520,1490,l)
);
}
);
width = 752;
},
{
background = {
shapes = (
{
closed = 1;
nodes = (
(420,1490,l),
(48,1242,l),
(48,1058,l),
(410,1300,l),
(420,1300,l),
(420,0,l),
(594,0,l),
(594,1490,l)
);
}
);
};
layerId = m007;
shapes = (
{
closed = 1;
nodes = (
(420,1490,l),
(48,1242,l),
(48,1058,l),
(419,1304,l),
(420,1304,l),
(420,0,l),
(594,0,l),
(594,1490,l)
);
}
);
width = 742;
},
{
layerId = m009;
shapes = (
{
closed = 1;
nodes = (
(398,1490,l),
(32,1266,l),
(32,922,l),
(364,1125,l),
(366,1125,l),
(366,0,l),
(766,0,l),
(766,1490,l)
);
}
);
width = 846;
},
{
layerId = m011;
shapes = (
{
closed = 1;
nodes = (
(392,1490,l),
(82,1282,l),
(82,1228,l),
(408,1446,l),
(410,1446,l),
(410,0,l),
(456,0,l),
(456,1490,l)
);
}
);
width = 624;
},
{
associatedMasterId = m007;
layerId = "50EA2E96-CD13-4D5C-9F67-B6CD8E828471";
name = "Apr 16, 23, 10:46";
shapes = (
{
closed = 1;
nodes = (
(420,1490,l),
(48,1242,l),
(48,1058,l),
(410,1300,l),
(420,1300,l),
(420,0,l),
(594,0,l),
(594,1490,l)
);
}
);
width = 742;
},
{
associatedMasterId = "C698F293-3EC0-4A5A-A3A0-0FDB1F5CF265";
layerId = "7D9A24B6-65BE-4DD2-83F0-C86F619E842E";
name = "Apr 16, 23, 10:48";
shapes = (
{
closed = 1;
nodes = (
(468,1490,l),
(96,1242,l),
(96,1058,l),
(458,1300,l),
(468,1300,l),
(468,0,l),
(644,0,l),
(644,1490,l)
);
}
);
width = 824;
},
{
associatedMasterId = "5C20EF92-B63D-42A8-8878-93C2863E0093";
layerId = "1EA15A5C-F4A5-4D65-A37C-06A4B3D1E9B7";
name = "Apr 16, 23, 10:51";
shapes = (
{
closed = 1;
nodes = (
(456,1490,l),
(90,1266,l),
(90,922,l),
(400,1118,l),
(424,1118,l),
(424,0,l),
(830,0,l),
(830,1490,l)
);
}
);
width = 926;
},
{
layerId = "5C20EF92-B63D-42A8-8878-93C2863E0093";
name = Black;
shapes = (
{
closed = 1;
nodes = (
(424,1490,l),
(90,1266,l),
(90,922,l),
(416,1142,l),
(426,1142,l),
(426,0,l),
(830,0,l),
(830,1490,l)
);
}
);
width = 926;
},
{
associatedMasterId = "C698F293-3EC0-4A5A-A3A0-0FDB1F5CF265";
layerId = "64AE0C59-2CB2-43CB-9F9A-5036C931322C";
name = "Apr 16, 23, 12:05";
shapes = (
{
closed = 1;
nodes = (
(468,1490,l),
(96,1242,l),
(96,1058,l),
(450,1296,l),
(468,1296,l),
(468,0,l),
(644,0,l),
(644,1490,l)
);
}
);
width = 824;
},
{
layerId = "C698F293-3EC0-4A5A-A3A0-0FDB1F5CF265";
name = Regular;
shapes = (
{
closed = 1;
nodes = (
(420,1490,l),
(96,1251,l),
(96,1047,l),
(456,1314,l),
(466,1314,l),
(466,0,l),
(653,0,l),
(653,1490,l)
);
}
);
width = 833;
},
{
associatedMasterId = "5C20EF92-B63D-42A8-8878-93C2863E0093";
layerId = "8E7256D2-7464-4965-91F4-69615CA159CE";
name = "Apr 16, 23, 12:07";
shapes = (
{
closed = 1;
nodes = (
(456,1490,l),
(90,1266,l),
(90,922,l),
(416,1118,l),
(424,1118,l),
(424,0,l),
(830,0,l),
(830,1490,l)
);
}
);
width = 926;
},
{
associatedMasterId = "B1F27B51-9973-4381-9301-4FE46FE1CA59";
layerId = "CC28D9D7-1031-450A-99BA-3D3BE4A7870F";
name = "Apr 16, 23, 12:14";
shapes = (
{
closed = 1;
nodes = (
(456,1490,l),
(146,1282,l),
(146,1228,l),
(466,1440,l),
(474,1440,l),
(474,0,l),
(520,0,l),
(520,1490,l)
);
}
);
width = 752;
}
);
metricRight = H;
unicode = 49;
}
{
glyphname = equal;
kernLeft = approxequal;
kernRight = approxequal;
layers = (
{
background = {
shapes = (
{
ref = plus;
}
);
};
guides = (
{
pos = (268,800);
}
);
layerId = "C698F293-3EC0-4A5A-A3A0-0FDB1F5CF265";
shapes = (
{
closed = 1;
nodes = (
(1130,717,l),
(1130,883,l),
(226,883,l),
(226,717,l)
);
},
{
closed = 1;
nodes = (
(1130,283,l),
(1130,449,l),
(226,449,l),
(226,283,l)
);
}
);
width = 1355;
},
{
guides = (
{
orientation = center;
pos = (408,832);
}
);
layerId = "5C20EF92-B63D-42A8-8878-93C2863E0093";
shapes = (
{
closed = 1;
nodes = (
(1248,702,l),
(1248,1026,l),
(172,1026,l),
(172,702,l)
);
},
{
closed = 1;
nodes = (
(1248,184,l),
(1248,510,l),
(172,510,l),
(172,184,l)
);
}
);
width = 1420;
},
{
guides = (
{
pos = (268,800);
}
);
layerId = "B1F27B51-9973-4381-9301-4FE46FE1CA59";
shapes = (
{
closed = 1;
nodes = (
(998,754,l),
(998,800,l),
(306,800,l),
(306,754,l)
);
},
{
closed = 1;
nodes = (
(998,364,l),
(998,410,l),
(306,410,l),
(306,364,l)
);
}
);
width = 1304;
},
{
background = {
shapes = (
{
ref = plus;
}
);
};
guides = (
{
pos = (-24,800);
}
);
layerId = m007;
shapes = (
{
closed = 1;
nodes = (
(1090,718,l),
(1090,876,l),
(194,876,l),
(194,718,l)
);
},
{
closed = 1;
nodes = (
(1090,288,l),
(1090,446,l),
(194,446,l),
(194,288,l)
);
}
);
width = 1286;
},
{
guides = (
{
orientation = center;
pos = (-3182,832);
}
);
layerId = m009;
shapes = (
{
closed = 1;
nodes = (
(1232,702,l),
(1232,1026,l),
(156,1026,l),
(156,702,l)
);
},
{
closed = 1;
nodes = (
(1232,184,l),
(1232,510,l),
(156,510,l),
(156,184,l)
);
}
);
width = 1388;
},
{
guides = (
{
pos = (140,800);
}
);
layerId = m011;
shapes = (
{
closed = 1;
nodes = (
(934,754,l),
(934,800,l),
(242,800,l),
(242,754,l)
);
},
{
closed = 1;
nodes = (
(934,364,l),
(934,410,l),
(242,410,l),
(242,364,l)
);
}
);
width = 1176;
}
);
metricWidth = plus;
unicode = 61;
userData = {
com.typemytype.robofont.guideline.magnetic.7d4CjnlrzW = 5;
interface.gridadjust.original = "{'width': 1664, 'leftMargin': 256, 'rightMargin': 256}";
"interface.width-adjustments" = (
-16
);
};
}
{
glyphname = greater;
layers = (
{
guides = (
{
pos = (299,800);
}
);
layerId = "C698F293-3EC0-4A5A-A3A0-0FDB1F5CF265";
shapes = (
{
closed = 1;
nodes = (
(1181,646,l),
(237,1122,l),
(237,926,l),
(956,585,l),
(949,597,l),
(949,569,l),
(956,579,l),
(237,238,l),
(237,44,l),
(1181,520,l)
);
}
);
width = 1355;
},
{
guides = (
{
orientation = center;
pos = (-292,832);
}
);
layerId = "5C20EF92-B63D-42A8-8878-93C2863E0093";
shapes = (
{
closed = 1;
nodes = (
(1260,780,l),
(178,1214,l),
(178,846,l),
(868,608,l),
(856,626,l),
(856,584,l),
(868,602,l),
(178,364,l),
(178,-2,l),
(1260,430,l)
);
}
);
width = 1420;
},
{
guides = (
{
pos = (308,800);
}
);
layerId = "B1F27B51-9973-4381-9301-4FE46FE1CA59";
shapes = (
{
closed = 1;
nodes = (
(1090,606,l),
(294,1122,l),
(294,1068,l),
(1046,578,l),
(1038,594,l),
(1038,570,l),
(1046,584,l),
(294,96,l),
(294,40,l),
(1090,558,l)
);
}
);
width = 1304;
},
{
guides = (
{
pos = (0,800);
}
);
layerId = m007;
shapes = (
{
closed = 1;
nodes = (
(1136,640,l),
(198,1118,l),
(198,930,l),
(918,584,l),
(912,596,l),
(912,568,l),
(918,578,l),
(198,232,l),
(198,46,l),
(1136,524,l)
);
}
);
width = 1286;
},
{
guides = (
{
orientation = center;
pos = (-3866,832);
}
);
layerId = m009;
shapes = (
{
closed = 1;
nodes = (
(1244,780,l),
(162,1214,l),
(162,846,l),
(852,608,l),
(840,626,l),
(840,584,l),
(852,602,l),
(162,364,l),
(162,-2,l),
(1244,430,l)
);
}
);
width = 1388;
},
{
guides = (
{
pos = (172,800);
}
);
layerId = m011;
shapes = (
{
closed = 1;
nodes = (
(1018,606,l),
(222,1122,l),
(222,1068,l),
(974,578,l),
(966,594,l),
(966,570,l),
(974,584,l),
(222,96,l),
(222,40,l),
(1018,558,l)
);
}
);
width = 1176;
}
);
metricLeft = "=|less";
metricRight = "=|less";
unicode = 62;
userData = {
"interface.width-adjustments" = (
-16
);
};
}
{
glyphname = A;
kernLeft = A;
kernRight = A;
layers = (
{
anchors = (
{
name = bottom;
pos = (706,0);
},
{
name = ogonek;
pos = (1361,0);
},
{
name = tonos;
pos = (493,1490);
},
{
name = top;
pos = (706,1490);
}
);
layerId = "C698F293-3EC0-4A5A-A3A0-0FDB1F5CF265";
shapes = (
{
closed = 1;
nodes = (
(254,0,l),
(561,884,ls),
(596,985,o),
(648,1145,o),
(720,1401,c),
(684,1401,l),
(757,1148,o),
(806,993,o),
(845,884,cs),
(1161,0,l),
(1361,0,l),
(813,1490,l),
(593,1490,l),
(52,0,l)
);
},
{
closed = 1;
nodes = (
(1089,416,l),
(1089,582,l),
(324,582,l),
(324,416,l)
);
}
);
width = 1413;
},
{
anchors = (
{
name = bottom;
pos = (810,0);
},
{
name = ogonek;
pos = (1582,0);
},
{
name = tonos;
pos = (476,1490);
},
{
name = top;
pos = (810,1490);
}
);
guides = (
{
angle = 90;
pos = (810,1575);
}
);
layerId = "5C20EF92-B63D-42A8-8878-93C2863E0093";
shapes = (
{
closed = 1;
nodes = (
(498,0,l),
(663,578,ls),
(735,829,o),
(789,1104,o),
(845,1371,c),
(753,1371,l),
(812,1104,o),
(876,829,o),
(951,578,cs),
(1124,0,l),
(1582,0,l),
(1081,1490,l),
(529,1490,l),
(46,0,l)
);
},
{
closed = 1;
nodes = (
(1224,286,l),
(1224,588,l),
(404,588,l),
(404,286,l)
);
}
);
width = 1628;
},
{
anchors = (
{
name = bottom;
pos = (655,0);
},
{
name = ogonek;
pos = (1244,0);
},
{
name = tonos;
pos = (566,1490);
},
{
name = top;
pos = (655,1490);
}
);
layerId = "B1F27B51-9973-4381-9301-4FE46FE1CA59";
shapes = (
{
closed = 1;
nodes = (
(115,0,l),
(545,1154,ls),
(585,1261,o),
(624,1367,o),
(663,1474,c),
(645,1474,l),
(684,1367,o),
(723,1261,o),
(763,1154,cs),
(1195,0,l),
(1244,0,l),
(686,1490,l),
(623,1490,l),
(66,0,l)
);
},
{
closed = 1;
nodes = (
(1025,496,l),
(1025,542,l),
(285,542,l),
(285,496,l)
);
}
);
width = 1310;
},
{
anchors = (
{
name = bottom;
pos = (672,0);
},
{
name = ogonek;
pos = (1318,0);
},
{
name = tonos;
pos = (499,1490);
},
{
name = top;
pos = (672,1490);
}
);
guides = (
{
orientation = center;
angle = 90;
pos = (-8887,144);
},
{
angle = 90;
pos = (672,1584);
}
);
layerId = m007;
shapes = (
{
closed = 1;
nodes = (
(208,0,l),
(530,898,ls),
(573,1017,o),
(619,1154,o),
(698,1402,c),
(646,1402,l),
(725,1154,o),
(771,1017,o),
(813,898,cs),
(1126,0,l),
(1318,0,l),
(774,1490,l),
(570,1490,l),
(20,0,l)
);
},
{
closed = 1;
nodes = (
(1034,418,l),
(1034,578,l),
(304,578,l),
(304,418,l)
);
}
);
width = 1338;
},
{
anchors = (
{
name = bottom;
pos = (609,0);
},
{
name = ogonek;
pos = (1198,0);
},
{
name = tonos;
pos = (480,1490);
},
{
name = top;
pos = (609,1490);
}
);
layerId = m011;
name = "Thin Display";
shapes = (
{
closed = 1;
nodes = (
(69,0,l),
(499,1154,ls),
(539,1261,o),
(578,1367,o),
(617,1474,c),
(599,1474,l),
(638,1367,o),
(677,1261,o),
(717,1154,cs),
(1149,0,l),
(1198,0,l),
(640,1490,l),
(577,1490,l),
(20,0,l)
);
},
{
closed = 1;
nodes = (
(977,491,l),
(977,537,l),
(241,537,l),
(241,491,l)
);
}
);
width = 1218;
},
{
anchors = (
{
name = bottom;
pos = (798,0);
},
{
name = ogonek;
pos = (1566,0);
},
{
name = tonos;
pos = (444,1490);
},
{
name = top;
pos = (798,1676);
}
);
associatedMasterId = m009;
guides = (
{
angle = 90;
pos = (798,1575);
}
);
layerId = "4D42B2A4-8B65-416E-BCAF-630280BBC2AB";
name = "Jun 2, 22, 16:35";
shapes = (
{
closed = 1;
nodes = (
(790,1048,l),
(794,1048,l),
(1125,0,l),
(1566,0,l),
(1026,1490,l),
(570,1490,l),
(30,0,l),
(458,0,l)
);
},
{
closed = 1;
nodes = (
(386,238,l),
(1206,238,l),
(1206,540,l),
(386,540,l)
);
}
);
width = 1598;
},
{
anchors = (
{
name = bottom;
pos = (783,0);
},
{
name = ogonek;
pos = (1565,0);
},
{
name = tonos;
pos = (430,1490);
},
{
name = top;
pos = (783,1490);
}
);
guides = (
{
angle = 90;
pos = (783,1575);
}
);
layerId = m009;
name = "Black Display";
shapes = (
{
closed = 1;
nodes = (
(455,0,l),
(628,578,ls),
(703,829,o),
(771,1067,o),
(838,1331,c),
(726,1331,l),
(790,1067,o),
(858,829,o),
(930,578,cs),
(1097,0,l),
(1565,0,l),
(1060,1490,l),
(500,1490,l),
(0,0,l)
);
},
{
closed = 1;
nodes = (
(1193,245,l),
(1193,565,l),
(373,565,l),
(373,245,l)
);
}
);
width = 1565;
},
{
anchors = (
{
name = bottom;
pos = (668,0);
},
{
name = ogonek;
pos = (1318,0);
},
{
name = tonos;
pos = (470,1490);
},
{
name = top;
pos = (668,1676);
}
);
associatedMasterId = m007;
guides = (
{
angle = 90;
pos = (1716,1832);
},
{
orientation = center;
angle = 90;
pos = (-7546,144);
},
{
angle = 90;
pos = (668,1584);
}
);
layerId = "F356B491-ADEB-4870-9E94-7E511322EABC";
name = "Apr 7, 23, 15:05";
shapes = (
{
closed = 1;
nodes = (
(666,1290,l),
(670,1290,l),
(1124,0,l),
(1318,0,l),
(771,1490,l),
(567,1490,l),
(20,0,l),
(210,0,l)
);
},
{
closed = 1;
nodes = (
(304,448,l),
(1034,448,l),
(1034,608,l),
(304,608,l)
);
}
);
width = 1338;
},
{
anchors = (
{
name = bottom;
pos = (768,0);
},
{
name = ogonek;
pos = (1536,0);
},
{
name = tonos;
pos = (414,1490);
},
{
name = top;
pos = (768,1490);
}
);
associatedMasterId = m009;
guides = (
{
angle = 90;
pos = (768,1575);
}
);
layerId = "BF53736E-6938-4280-AB12-0816D55C0D8D";
name = "Apr 27, 23, 14:10";
shapes = (
{
closed = 1;
nodes = (
(760,1080,l),
(764,1080,l),
(1095,0,l),
(1536,0,l),
(1020,1490,l),
(516,1490,l),
(0,0,l),
(428,0,l)
);
},
{
closed = 1;
nodes = (
(356,270,l),
(1176,270,l),
(1176,572,l),
(356,572,l)
);
}
);
width = 1536;
},
{
anchors = (
{
name = bottom;
pos = (668,0);
},
{
name = ogonek;
pos = (1318,0);
},
{
name = tonos;
pos = (470,1490);
},
{
name = top;
pos = (668,1490);
}
);
associatedMasterId = m007;
guides = (
{
orientation = center;
angle = 90;
pos = (-7546,144);
},
{
angle = 90;
pos = (668,1584);
}
);
layerId = "9441E322-AECA-4664-975C-E722390BB003";
name = "Apr 27, 23, 14:12";
shapes = (
{
closed = 1;
nodes = (
(666,1290,l),
(670,1290,l),
(1124,0,l),
(1318,0,l),
(771,1490,l),
(567,1490,l),
(20,0,l),
(210,0,l)
);
},
{
closed = 1;
nodes = (
(304,424,l),
(1034,424,l),
(1034,584,l),
(304,584,l)
);
}
);
width = 1338;
},
{
anchors = (
{
name = bottom;
pos = (768,0);
},
{
name = ogonek;
pos = (1536,0);
},
{
name = tonos;
pos = (414,1490);
},
{
name = top;
pos = (768,1490);
}
);
associatedMasterId = m009;
guides = (
{
angle = 90;
pos = (768,1575);
}
);
layerId = "0BFEF75C-ECE8-4C23-945E-8627A8152775";
name = "Apr 27, 23, 14:19";
shapes = (
{
closed = 1;
nodes = (
(428,0,l),
(760,1080,l),
(764,1080,l),
(1095,0,l),
(1536,0,l),
(1020,1490,l),
(516,1490,l),
(0,0,l)
);
},
{
closed = 1;
nodes = (
(1176,238,l),
(1176,558,l),
(356,558,l),
(356,238,l)
);
}
);
width = 1536;
},
{
anchors = (
{
name = bottom;
pos = (814,0);
},
{
name = ogonek;
pos = (1582,0);
},
{
name = tonos;
pos = (460,1490);
},
{
name = top;
pos = (814,1490);
}
);
associatedMasterId = "5C20EF92-B63D-42A8-8878-93C2863E0093";
guides = (
{
pos = (1036,1364);
},
{
orientation = center;
angle = 90;
pos = (1020,964);
}
);
layerId = "E506FA9C-D116-4BB4-891F-BA3DF3D06C72";
name = "Apr 27, 23, 14:25";
shapes = (
{
closed = 1;
nodes = (
(482,0,l),
(808,1080,l),
(820,1080,l),
(1146,0,l),
(1582,0,l),
(1090,1490,l),
(538,1490,l),
(46,0,l)
);
},
{
closed = 1;
nodes = (
(1222,286,l),
(1222,588,l),
(402,588,l),
(402,286,l)
);
}
);
width = 1628;
},
{
anchors = (
{
name = bottom;
pos = (692,0);
},
{
name = ogonek;
pos = (1332,0);
},
{
name = tonos;
pos = (494,1490);
},
{
name = top;
pos = (692,1490);
}
);
associatedMasterId = "C698F293-3EC0-4A5A-A3A0-0FDB1F5CF265";
layerId = "28030662-3E7C-411F-A627-670A87F191D8";
name = "Apr 27, 23, 14:28";
shapes = (
{
closed = 1;
nodes = (
(242,0,l),
(686,1254,l),
(698,1254,l),
(1144,0,l),
(1332,0,l),
(786,1490,l),
(600,1490,l),
(52,0,l)
);
},
{
closed = 1;
nodes = (
(1074,422,l),
(1074,582,l),
(312,582,l),
(312,422,l)
);
}
);
width = 1384;
},
{
anchors = (
{
name = bottom;
pos = (586,0);
},
{
name = ogonek;
pos = (1150,0);
},
{
name = tonos;
pos = (480,1490);
},
{
name = top;
pos = (586,1490);
}
);
associatedMasterId = m011;
layerId = "BE44B94C-7BD2-4260-8CD3-65B4A63F1380";
name = "Apr 27, 23, 14:29";
shapes = (
{
closed = 1;
nodes = (
(70,0,l),
(584,1438,l),
(586,1438,l),
(1100,0,l),
(1150,0,l),
(617,1490,l),
(553,1490,l),
(20,0,l)
);
},
{
closed = 1;
nodes = (
(932,512,l),
(932,558,l),
(240,558,l),
(240,512,l)
);
}
);
width = 1170;
},
{
anchors = (
{
name = bottom;
pos = (632,0);
},
{
name = ogonek;
pos = (1196,0);
},
{
name = tonos;
pos = (526,1490);
},
{
name = top;
pos = (632,1490);
}
);
associatedMasterId = "B1F27B51-9973-4381-9301-4FE46FE1CA59";
layerId = "97748B60-6222-44D8-8FE8-97F1AE8939CB";
name = "Apr 27, 23, 14:31";
shapes = (
{
closed = 1;
nodes = (
(116,0,l),
(628,1432,l),
(634,1432,l),
(1146,0,l),
(1196,0,l),
(664,1490,l),
(600,1490,l),
(66,0,l)
);
},
{
closed = 1;
nodes = (
(978,504,l),
(978,550,l),
(286,550,l),
(286,504,l)
);
}
);
width = 1262;
}
);
metricRight = "=|A";
unicode = 65;
userData = {
com.typemytype.robofont.guideline.magnetic.9EkLRXjahr = 5;
"interface.width-adjustments" = (
-16
);
};
}
{
glyphname = B;
kernLeft = B;
kernRight = B;
layers = (
{
anchors = (
{
name = bottom;
pos = (651,0);
},
{
name = cross;
pos = (343,422);
},
{
name = top;
pos = (643,1490);
},
{
name = topl;
pos = (180,1490);
}
);
layerId = "C698F293-3EC0-4A5A-A3A0-0FDB1F5CF265";
shapes = (
{
closed = 1;
nodes = (
(725,0,ls),
(1076,0,o),
(1224,172,o),
(1224,397,cs),
(1224,631,o),
(1061,759,o),
(922,768,c),
(922,782,l),
(1052,817,o),
(1166,904,o),
(1166,1095,cs),
(1166,1313,o),
(1019,1490,o),
(708,1490,cs),
(180,1490,l),
(180,0,l)
);
},
{
closed = 1;
nodes = (
(370,676,l),
(730,676,ls),
(921,676,o),
(1041,548,o),
(1041,399,cs),
(1041,270,o),
(952,168,o),
(720,168,cs),
(370,168,l)
);
},
{
closed = 1;
nodes = (
(370,1322,l),
(704,1322,ls),
(897,1322,o),
(984,1220,o),
(984,1091,cs),
(984,937,o),
(858,836,o),
(698,836,cs),
(370,836,l)
);
}
);
width = 1340;
},
{
anchors = (
{
name = bottom;
pos = (664,0);
},
{
name = cross;
pos = (322,480);
},
{
name = top;
pos = (666,1490);
},
{
name = topl;
pos = (96,1490);
}
);
layerId = "5C20EF92-B63D-42A8-8878-93C2863E0093";
shapes = (
{
closed = 1;
nodes = (
(798,0,ls),
(1121,0,o),
(1320,177,o),
(1320,422,cs),
(1320,632,o),
(1166,769,o),
(974,776,c),
(974,792,l),
(1147,825,o),
(1262,953,o),
(1262,1118,cs),
(1262,1344,o),
(1082,1490,o),
(742,1490,cs),
(96,1490,l),
(96,0,l)
);
},
{
closed = 1;
nodes = (
(500,638,l),
(696,638,ls),
(818,638,o),
(894,579,o),
(894,474,cs),
(894,375,o),
(825,322,o),
(690,322,cs),
(500,322,l)
);
},
{
closed = 1;
nodes = (
(500,1172,l),
(672,1172,ls),
(772,1172,o),
(846,1121,o),
(846,1030,cs),
(846,938,o),
(772,888,o),
(666,888,cs),
(500,888,l)
);
}
);
width = 1368;
},
{
anchors = (
{
name = bottom;
pos = (636,0);
},
{
name = cross;
pos = (294,390);
},
{
name = top;
pos = (618,1490);
},
{
name = topl;
pos = (230,1490);
}
);
layerId = "B1F27B51-9973-4381-9301-4FE46FE1CA59";
shapes = (
{
closed = 1;
nodes = (
(746,0,ls),
(1002,0,o),
(1152,151,o),
(1152,382,cs),
(1152,588,o),
(1016,740,o),
(868,754,c),
(868,760,l),
(1012,796,o),
(1094,936,o),
(1094,1112,cs),
(1094,1346,o),
(946,1490,o),
(696,1490,cs),
(232,1490,l),
(232,0,l)
);
},
{
closed = 1;
nodes = (
(278,734,l),
(746,734,ls),
(956,734,o),
(1106,588,o),
(1106,382,cs),
(1106,180,o),
(964,46,o),
(746,46,cs),
(278,46,l)
);
},
{
closed = 1;
nodes = (
(278,1444,l),
(696,1444,ls),
(913,1444,o),
(1048,1323,o),
(1048,1112,cs),
(1048,934,o),
(949,780,o),
(746,780,cs),
(278,780,l)
);
}
);
width = 1310;
},
{
anchors = (
{
name = bottom;
pos = (636,0);
},
{
name = cross;
pos = (272,419);
},
{
name = top;
pos = (628,1490);
},
{
name = topl;
pos = (148,1490);
}
);
layerId = m007;
shapes = (
{
closed = 1;
nodes = (
(694,0,ls),
(1052,0,o),
(1227,163,o),
(1227,418,cs),
(1227,631,o),
(1093,742,o),
(924,770,c),
(924,772,l),
(1076,823,o),
(1166,923,o),
(1166,1094,cs),
(1166,1337,o),
(985,1490,o),
(686,1490,cs),
(148,1490,l),
(148,0,l)
);
},
{
closed = 1;
nodes = (
(328,678,l),
(704,678,ls),
(922,678,o),
(1044,576,o),
(1044,411,cs),
(1044,246,o),
(919,160,o),
(694,160,cs),
(328,160,l)
);
},
{
closed = 1;
nodes = (
(328,1330,l),
(693,1330,ls),
(878,1330,o),
(988,1235,o),
(988,1083,cs),
(988,931,o),
(878,836,o),
(693,836,cs),
(328,836,l)
);
}
);
width = 1307;
},
{
anchors = (
{
name = bottom;
pos = (648,0);
},
{
name = cross;
pos = (312,459);
},
{
name = top;
pos = (650,1490);
},
{
name = topl;
pos = (80,1490);
}
);
layerId = m009;
shapes = (
{
closed = 1;
nodes = (
(782,0,ls),
(1105,0,o),
(1296,178,o),
(1296,422,cs),
(1296,632,o),
(1150,776,o),
(958,783,c),
(958,785,l),
(1131,818,o),
(1246,945,o),
(1246,1118,cs),
(1246,1335,o),
(1066,1490,o),
(726,1490,cs),
(80,1490,l),
(80,0,l)
);
},
{
closed = 1;
nodes = (
(484,606,l),
(704,606,ls),
(805,606,o),
(870,548,o),
(870,459,cs),
(870,370,o),
(805,312,o),
(704,312,cs),
(484,312,l)
);
},
{
closed = 1;
nodes = (
(484,1178,l),
(679,1178,ls),
(771,1178,o),
(830,1123,o),
(830,1039,cs),
(830,955,o),
(771,900,o),
(679,900,cs),
(484,900,l)
);
}
);
width = 1331;
},
{
anchors = (
{
name = bottom;
pos = (599,0);
},
{
name = cross;
pos = (214,390);
},
{
name = top;
pos = (581,1479);
},
{
name = topl;
pos = (168,1490);
}
);
layerId = m011;
shapes = (
{
closed = 1;
nodes = (
(682,0,ls),
(961,0,o),
(1136,161,o),
(1136,396,cs),
(1136,602,o),
(975,732,o),
(814,758,c),
(814,759,l),
(956,800,o),
(1078,936,o),
(1078,1112,cs),
(1078,1346,o),
(898,1490,o),
(632,1490,cs),
(168,1490,l),
(168,0,l)
);
},
{
closed = 1;
nodes = (
(214,734,l),
(682,734,ls),
(892,734,o),
(1090,610,o),
(1090,396,cs),
(1090,189,o),
(937,46,o),
(682,46,cs),
(214,46,l)
);
},
{
closed = 1;
nodes = (
(214,1444,l),
(632,1444,ls),
(868,1444,o),
(1032,1323,o),
(1032,1112,cs),
(1032,934,o),
(885,780,o),
(682,780,cs),
(214,780,l)
);
}
);
width = 1236;
},
{
anchors = (
{
name = bottom;
pos = (614,0);
},
{
name = cross;
pos = (272,419);
},
{
name = top;
pos = (606,1490);
},
{
name = topl;
pos = (148,1490);
}
);
associatedMasterId = m007;
background = {
shapes = (
{
ref = R;
}
);
};
layerId = "42FE4B14-A352-47E9-A4B0-C7F5F300FE4D";
name = "May 11, 23, 13:55";
shapes = (
{
closed = 1;
nodes = (
(686,0,ls),
(1039,0,o),
(1184,172,o),
(1184,396,cs),
(1184,632,o),
(1021,762,o),
(884,771,c),
(884,773,l),
(1012,808,o),
(1126,902,o),
(1126,1094,cs),
(1126,1312,o),
(980,1490,o),
(670,1490,cs),
(148,1490,l),
(148,0,l)
);
},
{
closed = 1;
nodes = (
(328,678,l),
(696,678,ls),
(890,678,o),
(1012,547,o),
(1012,396,cs),
(1012,265,o),
(922,160,o),
(686,160,cs),
(328,160,l)
);
},
{
closed = 1;
nodes = (
(328,1330,l),
(670,1330,ls),
(867,1330,o),
(954,1225,o),
(954,1094,cs),
(954,937,o),
(826,834,o),
(664,834,cs),
(328,834,l)
);
}
);
width = 1268;
},
{
anchors = (
{
name = bottom;
pos = (630,0);
},
{
name = cross;
pos = (272,419);
},
{
name = top;
pos = (622,1490);
},
{
name = topl;
pos = (148,1490);
}
);
associatedMasterId = m007;
background = {
shapes = (
{
ref = R;
}
);
};
layerId = "E359358A-AD66-4AD0-887F-2EEAAE1E3BB9";
name = "May 11, 23, 13:58";
shapes = (
{
closed = 1;
nodes = (
(718,0,ls),
(1071,0,o),
(1216,172,o),
(1216,396,cs),
(1216,632,o),
(1053,762,o),
(916,771,c),
(916,773,l),
(1044,808,o),
(1158,902,o),
(1158,1094,cs),
(1158,1312,o),
(1012,1490,o),
(702,1490,cs),
(148,1490,l),
(148,0,l)
);
},
{
closed = 1;
nodes = (
(328,678,l),
(728,678,ls),
(922,678,o),
(1044,547,o),
(1044,396,cs),
(1044,265,o),
(954,160,o),
(718,160,cs),
(328,160,l)
);
},
{
closed = 1;
nodes = (
(328,1330,l),
(702,1330,ls),
(899,1330,o),
(986,1225,o),
(986,1094,cs),
(986,937,o),
(858,834,o),
(696,834,cs),
(328,834,l)
);
}
);
width = 1296;
},
{
anchors = (
{
name = bottom;
pos = (572,0);
},
{
name = cross;
pos = (214,390);
},
{
name = top;
pos = (554,1490);
},
{
name = topl;
pos = (168,1490);
}
);
associatedMasterId = m011;
layerId = "B7E4440C-B5E5-4D3D-97B6-72FE458F4C1D";
name = "May 11, 23, 14:11";
shapes = (
{
closed = 1;
nodes = (
(682,0,ls),
(938,0,o),
(1088,151,o),
(1088,382,cs),
(1088,588,o),
(946,734,o),
(802,756,c),
(802,758,l),
(946,794,o),
(1030,936,o),
(1030,1112,cs),
(1030,1346,o),
(882,1490,o),
(632,1490,cs),
(168,1490,l),
(168,0,l)
);
},
{
closed = 1;
nodes = (
(214,734,l),
(682,734,ls),
(892,734,o),
(1042,588,o),
(1042,382,cs),
(1042,180,o),
(900,46,o),
(682,46,cs),
(214,46,l)
);
},
{
closed = 1;
nodes = (
(214,1444,l),
(632,1444,ls),
(849,1444,o),
(984,1323,o),
(984,1112,cs),
(984,934,o),
(885,780,o),
(682,780,cs),
(214,780,l)
);
}
);
width = 1182;
},
{
anchors = (
{
name = bottom;
pos = (599,0);
},
{
name = cross;
pos = (214,390);
},
{
name = top;
pos = (581,1490);
},
{
name = topl;
pos = (168,1490);
}
);
associatedMasterId = m011;
layerId = "EA8F99FE-7048-49E9-A883-2F1205C0F1BB";
name = "May 11, 23, 14:12";
shapes = (
{
closed = 1;
nodes = (
(714,0,ls),
(970,0,o),
(1136,151,o),
(1136,382,cs),
(1136,588,o),
(978,734,o),
(834,756,c),
(834,758,l),
(978,794,o),
(1078,936,o),
(1078,1112,cs),
(1078,1346,o),
(914,1490,o),
(664,1490,cs),
(168,1490,l),
(168,0,l)
);
},
{
closed = 1;
nodes = (
(214,734,l),
(714,734,ls),
(924,734,o),
(1090,588,o),
(1090,382,cs),
(1090,180,o),
(932,46,o),
(714,46,cs),
(214,46,l)
);
},
{
closed = 1;
nodes = (
(214,1444,l),
(664,1444,ls),
(881,1444,o),
(1032,1323,o),
(1032,1112,cs),
(1032,934,o),
(917,780,o),
(714,780,cs),
(214,780,l)
);
}
);
width = 1236;
}
);
metricLeft = H;
unicode = 66;
userData = {
com.typemytype.robofont.guideline.magnetic.olHMUUD5VH = 5;
com.typemytype.robofont.guideline.magnetic.rWKPWS6RQH = 5;
"interface.width-adjustments" = (
-16
);
};
}
{
glyphname = I;
kernLeft = B;
kernRight = H;
layers = (
{
anchors = (
{
name = bottom;
pos = (275,0);
},
{
name = cross;
pos = (275,769);
},
{
name = ogonek;
pos = (370,0);
},
{
name = right;
pos = (386,0);
},
{
name = tonos;
pos = (180,1490);
},
{
name = top;
pos = (275,1490);
}
);
layerId = "C698F293-3EC0-4A5A-A3A0-0FDB1F5CF265";
shapes = (
{
closed = 1;
nodes = (
(180,1490,l),
(180,0,l),
(370,0,l),
(370,1490,l)
);
}
);
width = 550;
},
{
anchors = (
{
name = bottom;
pos = (296,0);
},
{
name = cross;
pos = (296,788);
},
{
name = ogonek;
pos = (500,0);
},
{
name = right;
pos = (526,0);
},
{
name = tonos;
pos = (96,1490);
},
{
name = top;
pos = (300,1490);
}
);
layerId = "5C20EF92-B63D-42A8-8878-93C2863E0093";
shapes = (
{
closed = 1;
nodes = (
(96,1490,l),
(96,0,l),
(500,0,l),
(500,1490,l)
);
}
);
width = 596;
},
{
anchors = (
{
name = bottom;
pos = (255,0);
},
{
name = cross;
pos = (255,768);
},
{
name = ogonek;
pos = (278,0);
},
{
name = right;
pos = (286,0);
},
{
name = tonos;
pos = (232,1490);
},
{
name = top;
pos = (255,1490);
}
);
layerId = "B1F27B51-9973-4381-9301-4FE46FE1CA59";
shapes = (
{
closed = 1;
nodes = (
(232,1490,l),
(232,0,l),
(278,0,l),
(278,1490,l)
);
}
);
width = 510;
},
{
anchors = (
{
name = bottom;
pos = (238,0);
},
{
name = cross;
pos = (238,768);
},
{
name = ogonek;
pos = (328,0);
},
{
name = right;
pos = (344,0);
},
{
name = tonos;
pos = (148,1490);
},
{
name = top;
pos = (238,1490);
}
);
layerId = m007;
shapes = (
{
closed = 1;
nodes = (
(148,1490,l),
(148,0,l),
(328,0,l),
(328,1490,l)
);
}
);
width = 476;
},
{
anchors = (
{
name = bottom;
pos = (288,0);
},
{
name = cross;
pos = (288,788);
},
{
name = ogonek;
pos = (496,0);
},
{
name = right;
pos = (522,0);
},
{
name = tonos;
pos = (80,1490);
},
{
name = top;
pos = (288,1490);
}
);
guides = (
{
orientation = center;
angle = 90;
pos = (-1560,1240);
}
);
layerId = m009;
shapes = (
{
closed = 1;
nodes = (
(80,1490,l),
(80,0,l),
(496,0,l),
(496,1490,l)
);
}
);
width = 576;
},
{
anchors = (
{
name = bottom;
pos = (191,0);
},
{
name = cross;
pos = (191,768);
},
{
name = ogonek;
pos = (214,0);
},
{
name = right;
pos = (222,0);
},
{
name = tonos;
pos = (168,1490);
},
{
name = top;
pos = (191,1490);
}
);
layerId = m011;
shapes = (
{
closed = 1;
nodes = (
(168,1490,l),
(168,0,l),
(214,0,l),
(214,1490,l)
);
}
);
width = 382;
}
);
metricLeft = H;
metricRight = H;
unicode = 73;
userData = {
"interface.width-adjustments" = (
-16
);
};
}
{
glyphname = K;
kernLeft = B;
kernRight = K;
layers = (
{
anchors = (
{
name = bottom;
pos = (704,0);
},
{
name = top;
pos = (704,1490);
}
);
layerId = "C698F293-3EC0-4A5A-A3A0-0FDB1F5CF265";
shapes = (
{
closed = 1;
nodes = (
(672,809,l),
(682,808,l),
(1318,1490,l),
(1069,1490,l),
(624,1009,ls),
(512,888,o),
(411,768,o),
(310,629,c),
(310,426,l)
);
},
{
closed = 1;
nodes = (
(370,0,l),
(370,566,l),
(367,659,l),
(370,980,l),
(370,1490,l),
(180,1490,l),
(180,0,l)
);
},
{
closed = 1;
nodes = (
(1319,0,l),
(673,906,l),
(555,758,l),
(1094,0,l)
);
}
);
width = 1376;
},
{
anchors = (
{
name = bottom;
pos = (750,0);
},
{
name = top;
pos = (750,1490);
}
);
layerId = "5C20EF92-B63D-42A8-8878-93C2863E0093";
shapes = (
{
closed = 1;
nodes = (
(820,739,l),
(858,723,l),
(1481,1490,l),
(1002,1490,l),
(706,1107,ls),
(547,901,o),
(485,791,o),
(403,603,c),
(403,261,l)
);
},
{
closed = 1;
nodes = (
(500,0,l),
(500,544,l),
(492,741,l),
(500,1170,l),
(500,1490,l),
(96,1490,l),
(96,0,l)
);
},
{
closed = 1;
nodes = (
(1509,0,l),
(930,895,l),
(674,599,l),
(1033,0,l)
);
}
);
width = 1555;
},
{
anchors = (
{
name = bottom;
pos = (662,0);
},
{
name = top;
pos = (662,1490);
}
);
layerId = "B1F27B51-9973-4381-9301-4FE46FE1CA59";
shapes = (
{
closed = 1;
nodes = (
(533,817,l),
(545,828,l),
(1158,1490,l),
(1097,1490,l),
(598,952,ls),
(478,823,o),
(378,713,o),
(258,584,c),
(273,536,l)
);
},
{
closed = 1;
nodes = (
(278,0,l),
(278,560,l),
(278,592,l),
(278,960,l),
(278,1490,l),
(232,1490,l),
(232,0,l)
);
},
{
closed = 1;
nodes = (
(1156,0,l),
(550,852,l),
(513,826,l),
(1101,0,l)
);
}
);
width = 1224;
},
{
anchors = (
{
name = bottom;
pos = (664,0);
},
{
name = top;
pos = (664,1490);
}
);
layerId = m007;
shapes = (
{
closed = 1;
nodes = (
(629,812,l),
(638,812,l),
(1274,1490,l),
(1036,1490,l),
(584,1004,ls),
(477,889,o),
(374,777,o),
(270,662,c),
(270,426,l)
);
},
{
closed = 1;
nodes = (
(328,0,l),
(328,567,l),
(328,655,l),
(328,971,l),
(328,1490,l),
(148,1490,l),
(148,0,l)
);
},
{
closed = 1;
nodes = (
(1274,0,l),
(625,907,l),
(514,765,l),
(1061,0,l)
);
}
);
width = 1299;
},
{
anchors = (
{
name = bottom;
pos = (734,0);
},
{
name = top;
pos = (734,1490);
}
);
layerId = m009;
shapes = (
{
closed = 1;
nodes = (
(804,723,l),
(842,723,l),
(1465,1490,l),
(984,1490,l),
(688,1107,ls),
(588,977,o),
(487,848,o),
(387,718,c),
(387,213,l)
);
},
{
closed = 1;
nodes = (
(496,0,l),
(496,544,l),
(496,741,l),
(496,1170,l),
(496,1490,l),
(80,1490,l),
(80,0,l)
);
},
{
closed = 1;
nodes = (
(1493,0,l),
(906,911,l),
(658,599,l),
(1017,0,l)
);
}
);
width = 1493;
},
{
anchors = (
{
name = bottom;
pos = (598,0);
},
{
name = top;
pos = (598,1490);
}
);
layerId = m011;
shapes = (
{
closed = 1;
nodes = (
(469,817,l),
(481,828,l),
(1094,1490,l),
(1032.643,1490,l),
(534,952,ls),
(414,823,o),
(314,713,o),
(194,584,c),
(209,536,l)
);
},
{
closed = 1;
nodes = (
(214,0,l),
(214,560,l),
(214,592,l),
(214,960,l),
(214,1490,l),
(168,1490,l),
(168,0,l)
);
},
{
closed = 1;
nodes = (
(1092.228,0,l),
(485.74,852.335,l),
(449,826,l),
(1037,0,l)
);
}
);
width = 1119;
},
{
anchors = (
{
name = bottom;
pos = (638,0);
},
{
name = top;
pos = (642,1490);
}
);
associatedMasterId = m007;
layerId = "60D149AC-58B1-4E16-BB9C-1872B7A929BE";
name = "Apr 28, 23, 13:16";
shapes = (
{
closed = 1;
nodes = (
(328,0,l),
(328,482,l),
(514,692,l),
(1032,0,l),
(1250,0,l),
(626,818,l),
(1250,1490,l),
(1016,1490,l),
(346,750,l),
(328,750,l),
(328,1490,l),
(148,1490,l),
(148,0,l)
);
}
);
width = 1275;
},
{
anchors = (
{
name = bottom;
pos = (670,0);
},
{
name = top;
pos = (674,1490);
}
);
associatedMasterId = "C698F293-3EC0-4A5A-A3A0-0FDB1F5CF265";
layerId = "4A5B5D19-C519-4B9B-9073-22CA98218BFA";
name = "Apr 28, 23, 13:29";
shapes = (
{
closed = 1;
nodes = (
(360,0,l),
(360,482,l),
(546,692,l),
(1064,0,l),
(1282,0,l),
(658,818,l),
(1282,1490,l),
(1048,1490,l),
(378,750,l),
(360,750,l),
(360,1490,l),
(180,1490,l),
(180,0,l)
);
}
);
width = 1339;
},
{
anchors = (
{
name = bottom;
pos = (718,2);
},
{
name = top;
pos = (720,1490);
}
);
associatedMasterId = m009;
layerId = "AEA6FA60-90D2-40A4-89A1-544D11D25678";
name = "Apr 28, 23, 13:31";
shapes = (
{
closed = 1;
nodes = (
(496,0,l),
(496,384,l),
(647,564,l),
(976,0,l),
(1448,0,l),
(924,826,l),
(1436,1490,l),
(946,1490,l),
(498,888,l),
(496,888,l),
(496,1490,l),
(80,1490,l),
(80,0,l)
);
}
);
width = 1448;
},
{
anchors = (
{
name = bottom;
pos = (722,2);
},
{
name = top;
pos = (724,1490);
}
);
associatedMasterId = "5C20EF92-B63D-42A8-8878-93C2863E0093";
layerId = "BFA780A9-2D70-4DE8-B9DD-6C0BEF960781";
name = "Apr 28, 23, 13:44";
shapes = (
{
closed = 1;
nodes = (
(500,0,l),
(500,384,l),
(634,558,l),
(968,0,l),
(1452,0,l),
(936,826,l),
(1440,1490,l),
(968,1490,l),
(520,888,l),
(500,888,l),
(500,1490,l),
(96,1490,l),
(96,0,l)
);
}
);
width = 1498;
},
{
anchors = (
{
name = bottom;
pos = (568,0);
},
{
name = top;
pos = (572,1490);
}
);
associatedMasterId = m011;
layerId = "F5A62804-CC71-4626-B933-C0A51204BEEB";
name = "Apr 28, 23, 13:46";
shapes = (
{
closed = 1;
nodes = (
(430,743,l),
(1058,0,l),
(1118,0,l),
(462,777,l)
);
},
{
closed = 1;
nodes = (
(214,1490,l),
(168,1490,l),
(168,0,l),
(214,0,l)
);
},
{
closed = 1;
nodes = (
(203,474,l),
(1126,1490,l),
(1064,1490,l),
(203,543,l)
);
}
);
width = 1151;
},
{
anchors = (
{
name = bottom;
pos = (568,0);
},
{
name = top;
pos = (572,1490);
}
);
associatedMasterId = m011;
background = {
shapes = (
{
closed = 1;
nodes = (
(586,812,l),
(595,812,l),
(1231,1490,l),
(993,1490,l),
(541,1004,ls),
(434,889,o),
(331,777,o),
(227,662,c),
(227,426,l)
);
},
{
closed = 1;
nodes = (
(285,567,l),
(285,655,l),
(285,971,l),
(285,1490,l),
(105,1490,l),
(105,0,l),
(285,0,l)
);
},
{
closed = 1;
nodes = (
(582,907,l),
(471,765,l),
(1018,0,l),
(1231,0,l)
);
},
{
closed = 1;
nodes = (
(214,1490,l),
(168,1490,l),
(168,0,l),
(214,0,l)
);
}
);
};
layerId = "A2B37CD1-ADB3-4BAF-A673-E0EB0114E89F";
name = "Apr 28, 23, 13:51";
shapes = (
{
attr = {
lineCapStart = 4;
strokeWidth = 46;
};
closed = 0;
nodes = (
(1064,0,l),
(467,839,l)
);
},
{
attr = {
lineCapStart = 4;
strokeWidth = 46;
};
closed = 0;
nodes = (
(1064,1490,l),
(192,549,l)
);
},
{
attr = {
strokeWidth = 46;
};
closed = 0;
nodes = (
(191,0,l),
(191,1490,l)
);
}
);
width = 1120;
},
{
anchors = (
{
name = bottom;
pos = (634,0);
},
{
name = top;
pos = (638,1490);
}
);
associatedMasterId = "B1F27B51-9973-4381-9301-4FE46FE1CA59";
layerId = "C5411416-C2E7-4EBB-8F20-34010D17B61C";
name = "Apr 28, 23, 13:54";
shapes = (
{
closed = 1;
nodes = (
(280,0,l),
(280,486,l),
(504,734,l),
(1122,0,l),
(1184,0,l),
(536,768,l),
(1192,1490,l),
(1128,1490,l),
(286,562,l),
(280,562,l),
(280,1490,l),
(232,1490,l),
(232,0,l)
);
}
);
width = 1258;
}
);
metricLeft = H;
metricRight = X;
unicode = 75;
userData = {
com.typemytype.robofont.guideline.magnetic.bB6GeEoQ3O = 5;
"interface.width-adjustments" = (
-16
);
};
}
{
glyphname = L;
kernLeft = B;
kernRight = L;
layers = (
{
anchors = (
{
name = bottom;
pos = (619,0);
},
{
name = cross;
pos = (399,745);
},
{
name = dot;
pos = (610,797);
},
{
name = raccent;
pos = (622,1490);
},
{
name = top;
pos = (275,1490);
}
);
layerId = "C698F293-3EC0-4A5A-A3A0-0FDB1F5CF265";
shapes = (
{
closed = 1;
nodes = (
(1060,0,l),
(1060,168,l),
(370,168,l),
(370,1490,l),
(180,1490,l),
(180,0,l)
);
}
);
width = 1158;
},
{
anchors = (
{
name = bottom;
pos = (600,0);
},
{
name = cross;
pos = (360,745);
},
{
name = dot;
pos = (606,872);
},
{
name = raccent;
pos = (704,1490);
},
{
name = top;
pos = (294,1490);
}
);
layerId = "5C20EF92-B63D-42A8-8878-93C2863E0093";
shapes = (
{
closed = 1;
nodes = (
(1102,0,l),
(1102,326,l),
(500,326,l),
(500,1490,l),
(96,1490,l),
(96,0,l)
);
}
);
width = 1158;
},
{
anchors = (
{
name = bottom;
pos = (628,0);
},
{
name = cross;
pos = (384,745);
},
{
name = dot;
pos = (606,748);
},
{
name = raccent;
pos = (626,1490);
},
{
name = top;
pos = (256,1490);
}
);
layerId = "B1F27B51-9973-4381-9301-4FE46FE1CA59";
shapes = (
{
closed = 1;
nodes = (
(1024,0,l),
(1024,46,l),
(280,46,l),
(280,1490,l),
(232,1490,l),
(232,0,l)
);
}
);
width = 1152;
},
{
anchors = (
{
name = bottom;
pos = (584,0);
},
{
name = cross;
pos = (350,745);
},
{
name = dot;
pos = (574,794);
},
{
name = raccent;
pos = (582,1490);
},
{
name = top;
pos = (238,1490);
}
);
layerId = m007;
shapes = (
{
closed = 1;
nodes = (
(1046,0,l),
(1046,160,l),
(328,160,l),
(328,1490,l),
(148,1490,l),
(148,0,l)
);
}
);
width = 1096;
},
{
anchors = (
{
name = bottom;
pos = (588,0);
},
{
name = cross;
pos = (381,745);
},
{
name = dot;
pos = (594,872);
},
{
name = raccent;
pos = (692,1490);
},
{
name = top;
pos = (288,1490);
}
);
layerId = m009;
shapes = (
{
closed = 1;
nodes = (
(1138,0,l),
(1138,352,l),
(496,352,l),
(496,1490,l),
(80,1490,l),
(80,0,l)
);
}
);
width = 1178;
},
{
anchors = (
{
name = bottom;
pos = (564,0);
},
{
name = cross;
pos = (338,745);
},
{
name = dot;
pos = (542,748);
},
{
name = raccent;
pos = (562,1490);
},
{
name = top;
pos = (192,1490);
}
);
layerId = m011;
shapes = (
{
closed = 1;
nodes = (
(984,0,l),
(984,46,l),
(216,46,l),
(216,1490,l),
(168,1490,l),
(168,0,l)
);
}
);
width = 1044;
},
{
anchors = (
{
name = bottom;
pos = (588,0);
},
{
name = cross;
pos = (381,745);
},
{
name = dot;
pos = (594,872);
},
{
name = raccent;
pos = (692,1490);
},
{
name = top;
pos = (288,1490);
}
);
associatedMasterId = m009;
guides = (
{
pos = (892,-416);
}
);
layerId = "E6BAE301-5BC9-402C-8265-CCCC9CF53E3B";
name = "Apr 27, 23, 12:47";
shapes = (
{
closed = 1;
nodes = (
(1090,0,l),
(1090,352,l),
(496,352,l),
(496,1490,l),
(80,1490,l),
(80,0,l)
);
}
);
width = 1138;
},
{
anchors = (
{
name = bottom;
pos = (584,0);
},
{
name = cross;
pos = (350,745);
},
{
name = dot;
pos = (574,794);
},
{
name = raccent;
pos = (582,1490);
},
{
name = top;
pos = (238,1490);
}
);
associatedMasterId = m007;
guides = (
{
angle = 90;
pos = (80,1944);
},
{
angle = 90;
pos = (556,-100);
}
);
layerId = "6715A9BB-D4BD-4FC9-87FA-7739626024A1";
name = "Apr 27, 23, 12:48";
shapes = (
{
closed = 1;
nodes = (
(1022,0,l),
(1022,160,l),
(328,160,l),
(328,1490,l),
(148,1490,l),
(148,0,l)
);
}
);
width = 1088;
},
{
anchors = (
{
name = bottom;
pos = (564,0);
},
{
name = cross;
pos = (338,745);
},
{
name = dot;
pos = (542,748);
},
{
name = raccent;
pos = (562,1490);
},
{
name = top;
pos = (192,1490);
}
);
associatedMasterId = m011;
layerId = "C452ABCF-DB18-40A1-A893-98324E0D0F0F";
name = "Apr 27, 23, 13:01";
shapes = (
{
closed = 1;
nodes = (
(960,0,l),
(960,46,l),
(216,46,l),
(216,1490,l),
(168,1490,l),
(168,0,l)
);
}
);
width = 1020;
}
);
metricLeft = H;
metricRight = T;
unicode = 76;
userData = {
"interface.width-adjustments" = (
-16
);
};
}
{
glyphname = N;
kernLeft = B;
kernRight = H;
layers = (
{
anchors = (
{
name = bottom;
pos = (790,0);
},
{
name = lfthook;
pos = (232,0);
},
{
name = lfthook2;
pos = (1348,0);
},
{
name = top;
pos = (790,1490);
}
);
layerId = "B1F27B51-9973-4381-9301-4FE46FE1CA59";
shapes = (
{
closed = 1;
nodes = (
(278,0,l),
(278,1129,ls),
(278,1233,o),
(274,1337,o),
(274,1441,c),
(260,1441,l),
(336,1337,o),
(407,1233,o),
(483,1129,cs),
(1304,0,l),
(1348,0,l),
(1348,1490,l),
(1302,1490,l),
(1302,359,ls),
(1302,255,o),
(1306,152,o),
(1306,48,c),
(1321,48,l),
(1246,152,o),
(1174,255,o),
(1099,359,cs),
(276,1490,l),
(232,1490,l),
(232,0,l)
);
}
);
width = 1580;
},
{
anchors = (
{
name = bottom;
pos = (772,0);
},
{
name = lfthook;
pos = (180,0);
},
{
name = lfthook2;
pos = (1363,0);
},
{
name = top;
pos = (772,1490);
}
);
layerId = "C698F293-3EC0-4A5A-A3A0-0FDB1F5CF265";
shapes = (
{
closed = 1;
nodes = (
(371,0,l),
(371,850,ls),
(371,930,o),
(362,1107,o),
(353,1329,c),
(318,1329,l),
(460,1076,o),
(522,966,o),
(597,848,cs),
(1137,0,l),
(1363,0,l),
(1363,1490,l),
(1173,1490,l),
(1173,576,ls),
(1173,483,o),
(1174,327,o),
(1192,155,c),
(1219,155,l),
(1142,321,o),
(1057,463,o),
(1010,537,cs),
(404,1490,l),
(180,1490,l),
(180,0,l)
);
}
);
width = 1543;
},
{
anchors = (
{
name = bottom;
pos = (756,0);
},
{
name = right;
pos = (1330,0);
},
{
name = top;
pos = (756,1676);
}
);
associatedMasterId = "C698F293-3EC0-4A5A-A3A0-0FDB1F5CF265";
guides = (
{
orientation = center;
angle = 90;
pos = (1116,284);
}
);
layerId = "CDCA1FA0-CAD8-4C14-B3A1-3337A4674D3F";
name = "Oct 7 18, 22:28";
shapes = (
{
closed = 1;
nodes = (
(1154,1490,l),
(1154,318,l),
(1140,318,l),
(354,1490,l),
(180,1490,l),
(180,0,l),
(360,0,l),
(360,1166,l),
(376,1166,l),
(1158,0,l),
(1332,0,l),
(1332,1490,l)
);
}
);
width = 1512;
},
{
anchors = (
{
name = bottom;
pos = (788,0);
},
{
name = lfthook;
pos = (96,0);
},
{
name = lfthook2;
pos = (1480,0);
},
{
name = top;
pos = (788,1490);
}
);
layerId = "5C20EF92-B63D-42A8-8878-93C2863E0093";
shapes = (
{
closed = 1;
nodes = (
(512,0,l),
(512,544,ls),
(512,665,o),
(496,885,o),
(480,1096,c),
(438,1096,l),
(539,859,o),
(596,729,o),
(709,544,cs),
(1040,0,l),
(1480,0,l),
(1480,1490,l),
(1064,1490,l),
(1064,944,ls),
(1064,801,o),
(1086,534,o),
(1096,372,c),
(1131,372,l),
(1053,616,o),
(983,753,o),
(891,905,cs),
(536,1490,l),
(96,1490,l),
(96,0,l)
);
}
);
width = 1576;
},
{
anchors = (
{
name = bottom;
pos = (742,0);
},
{
name = bottom_dd;
pos = (1566,-408);
},
{
name = right;
pos = (1454,0);
},
{
name = top;
pos = (742,1586);
},
{
name = top0315;
pos = (1566,1600);
},
{
name = top_dd;
pos = (1566,1600);
}
);
associatedMasterId = "5C20EF92-B63D-42A8-8878-93C2863E0093";
guides = (
{
pos = (12,1652);
},
{
orientation = center;
angle = 90;
pos = (900,240);
}
);
layerId = "F81B89FA-28D8-48B6-8D66-9AD40CA032B3";
name = "Oct 6 18, 13:13";
shapes = (
{
closed = 1;
nodes = (
(980,1490,l),
(980,674,l),
(968,674,l),
(498,1490,l),
(96,1490,l),
(96,0,l),
(500,0,l),
(500,818,l),
(510,818,l),
(990,0,l),
(1384,0,l),
(1384,1490,l)
);
}
);
width = 1480;
},
{
anchors = (
{
name = bottom;
pos = (758,0);
},
{
name = lfthook;
pos = (80,0);
},
{
name = lfthook2;
pos = (1432,0);
},
{
name = top;
pos = (758,1490);
}
);
guides = (
{
angle = 121.8201;
pos = (686,1198);
},
{
angle = -58.0704;
pos = (839,272);
}
);
layerId = m009;
shapes = (
{
closed = 1;
nodes = (
(496,0,l),
(496,544,ls),
(496,633,o),
(496,845,o),
(480,1056,c),
(398,1032,l),
(499,835,o),
(608,641,o),
(669,544,cs),
(1008,0,l),
(1432,0,l),
(1432,1490,l),
(1016,1490,l),
(1016,944,ls),
(1016,825,o),
(1020,566,o),
(1030,404,c),
(1080,520,l),
(1010,652,o),
(914,829,o),
(867,905,cs),
(504,1490,l),
(80,1490,l),
(80,0,l)
);
}
);
width = 1512;
},
{
anchors = (
{
name = bottom;
pos = (776,0);
},
{
name = right;
pos = (1456,0);
},
{
name = top;
pos = (776,1676);
}
);
associatedMasterId = m009;
guides = (
{
orientation = center;
angle = 90;
pos = (0,1520);
}
);
layerId = "4565A5AF-9B65-4622-9212-DE93E224C42A";
name = "May 30, 22, 16:31";
shapes = (
{
closed = 1;
nodes = (
(1044,1490,l),
(1044,694,l),
(1042,694,l),
(448,1490,l),
(96,1490,l),
(96,0,l),
(508,0,l),
(508,798,l),
(510,798,l),
(1112,0,l),
(1456,0,l),
(1456,1490,l)
);
}
);
width = 1552;
},
{
anchors = (
{
name = bottom;
pos = (726,0);
},
{
name = lfthook;
pos = (168,0);
},
{
name = lfthook2;
pos = (1284,0);
},
{
name = top;
pos = (726,1490);
}
);
layerId = m011;
name = "Thin Display";
shapes = (
{
closed = 1;
nodes = (
(214,0,l),
(214,1129,ls),
(214,1233,o),
(212,1337,o),
(212,1441,c),
(195,1441,l),
(271,1337,o),
(343,1233,o),
(419,1129,cs),
(1240,0,l),
(1284,0,l),
(1284,1490,l),
(1238,1490,l),
(1238,359,ls),
(1238,255,o),
(1240,152,o),
(1240,48,c),
(1258,48,l),
(1183,152,o),
(1110,255,o),
(1035,359,cs),
(212,1490,l),
(168,1490,l),
(168,0,l)
);
}
);
width = 1452;
},
{
anchors = (
{
name = bottom;
pos = (738,0);
},
{
name = right;
pos = (1332,0);
},
{
name = top;
pos = (738,1676);
}
);
associatedMasterId = m007;
layerId = "41B41DEF-CED6-4572-ACED-D9BFE7641AA8";
name = "Jun 2, 22, 17:03";
shapes = (
{
closed = 1;
nodes = (
(1140,1490,l),
(1140,268,l),
(1136,268,l),
(1134,271,o),
(1078,379,o),
(1027,456,cs),
(345,1490,l),
(148,1490,l),
(148,0,l),
(324,0,l),
(324,1223,l),
(328,1223,l),
(331,1219,o),
(386,1107,o),
(434,1035,cs),
(1127,0,l),
(1316,0,l),
(1316,1490,l)
);
}
);
width = 1464;
},
{
anchors = (
{
name = bottom;
pos = (727,0);
},
{
name = lfthook;
pos = (148,0);
},
{
name = lfthook2;
pos = (1306,0);
},
{
name = top;
pos = (727,1490);
}
);
background = {
shapes = (
{
attr = {
strokeWidth = 170;
};
closed = 0;
nodes = (
(255,1490,l),
(1199,0,l)
);
}
);
};
layerId = m007;
name = "Regular Display";
shapes = (
{
closed = 1;
nodes = (
(328,0,l),
(328,864,ls),
(328,940,o),
(325,1099,o),
(316,1332,c),
(295,1284,l),
(413,1085,o),
(507,931,o),
(551,862,cs),
(1097,0,l),
(1306,0,l),
(1306,1490,l),
(1126,1490,l),
(1126,528,ls),
(1126,466,o),
(1130,279,o),
(1135,174,c),
(1152,210,l),
(1087,325,o),
(1008,458,o),
(969,520,cs),
(355,1490,l),
(148,1490,l),
(148,0,l)
);
}
);
width = 1454;
},
{
anchors = (
{
name = bottom;
pos = (738,0);
},
{
name = right;
pos = (1332,0);
},
{
name = top;
pos = (738,1676);
}
);
associatedMasterId = m007;
layerId = "547C7450-A534-4D19-9CA4-A796D90E9411";
name = "Jun 2, 22, 17:02";
shapes = (
{
closed = 1;
nodes = (
(1140,1490,l),
(1140,292,l),
(1136,292,l),
(338,1490,l),
(148,1490,l),
(148,0,l),
(324,0,l),
(324,1193,l),
(328,1193,l),
(1130,0,l),
(1316,0,l),
(1316,1490,l)
);
}
);
width = 1464;
},
{
anchors = (
{
name = bottom;
pos = (742,0);
},
{
name = lfthook;
pos = (148,0);
},
{
name = lfthook2;
pos = (1324,0);
},
{
name = top;
pos = (742,1490);
}
);
associatedMasterId = m007;
layerId = "24BA08C0-4DDF-414E-AEDD-B054041AF8BD";
name = "Apr 25, 23, 09:08";
shapes = (
{
closed = 1;
nodes = (
(1144,1490,l),
(1144,292,l),
(1140,292,l),
(334,1490,l),
(148,1490,l),
(148,0,l),
(328,0,l),
(328,1193,l),
(332,1193,l),
(1142,0,l),
(1324,0,l),
(1324,1490,l)
);
}
);
width = 1472;
},
{
anchors = (
{
name = bottom;
pos = (736,0);
},
{
name = lfthook;
pos = (157,0);
},
{
name = lfthook2;
pos = (1315,0);
},
{
name = top;
pos = (736,1490);
}
);
associatedMasterId = m007;
layerId = "088D3FC3-4B9F-46B0-B508-0A097F10AC22";
name = "Apr 25, 23, 09:14";
shapes = (
{
closed = 1;
nodes = (
(1135,1490,l),
(1135,744,ls),
(1135,469,o),
(1141,240,o),
(1141,144,c),
(1184,194,l),
(364,1490,l),
(157,1490,l),
(157,0,l),
(337,0,l),
(337,744,ls),
(337,1007,o),
(331,1259,o),
(331,1360,c),
(293,1284,l),
(1106,0,l),
(1315,0,l),
(1315,1490,l)
);
}
);
width = 1472;
},
{
anchors = (
{
name = bottom;
pos = (736,0);
},
{
name = lfthook;
pos = (157,0);
},
{
name = lfthook2;
pos = (1315,0);
},
{
name = top;
pos = (736,1490);
}
);
associatedMasterId = m007;
background = {
shapes = (
{
attr = {
strokeWidth = 170;
};
closed = 0;
nodes = (
(299,1411,l),
(1152,64,l)
);
}
);
};
layerId = "DFCA2AD6-FB43-44E2-AA50-DBDC304059A2";
name = "Apr 25, 23, 09:22";
shapes = (
{
closed = 1;
nodes = (
(1135,1490,l),
(1135,528,ls),
(1135,466,o),
(1139,325,o),
(1144,220,c),
(1161,210,l),
(1096,325,o),
(1017,458,o),
(978,520,cs),
(364,1490,l),
(157,1490,l),
(157,0,l),
(337,0,l),
(337,744,ls),
(337,1007,o),
(331,1259,o),
(331,1360,c),
(304,1284,l),
(422,1085,o),
(516,931,o),
(560,862,cs),
(1106,0,l),
(1315,0,l),
(1315,1490,l)
);
}
);
width = 1472;
},
{
anchors = (
{
name = bottom;
pos = (770,0);
},
{
name = lfthook;
pos = (180,0);
},
{
name = lfthook2;
pos = (1364,0);
},
{
name = top;
pos = (770,1490);
}
);
associatedMasterId = "C698F293-3EC0-4A5A-A3A0-0FDB1F5CF265";
layerId = "AD99DA55-3286-45DD-BEF1-2E53315FEBC9";
name = "Apr 25, 23, 09:27";
shapes = (
{
closed = 1;
nodes = (
(1184,1490,l),
(1184,318,l),
(1170,318,l),
(354,1490,l),
(180,1490,l),
(180,0,l),
(360,0,l),
(360,1170,l),
(376,1170,l),
(1186,0,l),
(1364,0,l),
(1364,1490,l)
);
}
);
width = 1544;
},
{
anchors = (
{
name = bottom;
pos = (790,0);
},
{
name = lfthook;
pos = (232,0);
},
{
name = lfthook2;
pos = (1348,0);
},
{
name = top;
pos = (790,1490);
}
);
associatedMasterId = "B1F27B51-9973-4381-9301-4FE46FE1CA59";
layerId = "863C2CCC-020A-4020-A698-1027BE8E54BF";
name = "Apr 25, 23, 09:37";
shapes = (
{
closed = 1;
nodes = (
(1302,1490,l),
(1302,88,l),
(1296,88,l),
(276,1490,l),
(232,1490,l),
(232,0,l),
(278,0,l),
(278,1402,l),
(284,1402,l),
(1304,0,l),
(1348,0,l),
(1348,1490,l)
);
}
);
width = 1580;
},
{
anchors = (
{
name = bottom;
pos = (758,0);
},
{
name = lfthook;
pos = (80,0);
},
{
name = lfthook2;
pos = (1432,0);
},
{
name = top;
pos = (758,1490);
}
);
associatedMasterId = m009;
layerId = "4CD76CC0-AF89-4E82-8CB5-0A79DCF06AA3";
name = "Apr 25, 23, 09:40";
shapes = (
{
closed = 1;
nodes = (
(496,0,l),
(496,798,l),
(498,798,l),
(1084,0,l),
(1432,0,l),
(1432,1490,l),
(1016,1490,l),
(1016,694,l),
(1014,694,l),
(436,1490,l),
(80,1490,l),
(80,0,l)
);
}
);
width = 1512;
},
{
anchors = (
{
name = bottom;
pos = (758,0);
},
{
name = lfthook;
pos = (80,0);
},
{
name = lfthook2;
pos = (1432,0);
},
{
name = top;
pos = (758,1490);
}
);
associatedMasterId = m009;
layerId = "6D413A01-E854-46E0-9948-B3049D35F032";
name = "Apr 25, 23, 10:07";
shapes = (
{
closed = 1;
nodes = (
(496,0,l),
(496,1056,l),
(362,1056,l),
(989,0,l),
(1432,0,l),
(1432,1490,l),
(1016,1490,l),
(1016,404,l),
(1104,496,l),
(523,1490,l),
(80,1490,l),
(80,0,l)
);
}
);
width = 1512;
},
{
anchors = (
{
name = bottom;
pos = (758,0);
},
{
name = lfthook;
pos = (80,0);
},
{
name = lfthook2;
pos = (1432,0);
},
{
name = top;
pos = (758,1490);
}
);
associatedMasterId = m009;
layerId = "A7746784-5F75-4A84-96A6-412BC697DF2E";
name = "Apr 25, 23, 10:10";
shapes = (
{
closed = 1;
nodes = (
(496,0,l),
(496,1056,l),
(366,1032,l),
(1008,0,l),
(1432,0,l),
(1432,1490,l),
(1016,1490,l),
(1016,404,l),
(1107,520,l),
(504,1490,l),
(80,1490,l),
(80,0,l)
);
}
);
width = 1512;
},
{
anchors = (
{
name = bottom;
pos = (742,0);
},
{
name = lfthook;
pos = (96,0);
},
{
name = lfthook2;
pos = (1384,0);
},
{
name = top;
pos = (742,1490);
}
);
associatedMasterId = "5C20EF92-B63D-42A8-8878-93C2863E0093";
guides = (
{
pos = (12,1652);
},
{
orientation = center;
angle = 90;
pos = (900,240);
}
);
layerId = "D9566E02-014C-458C-AFC4-B1EE8EA822C6";
name = "Apr 25, 23, 10:17";
shapes = (
{
closed = 1;
nodes = (
(500,0,l),
(500,782,l),
(510,782,l),
(1048,0,l),
(1384,0,l),
(1384,1490,l),
(980,1490,l),
(980,710,l),
(968,710,l),
(440,1490,l),
(96,1490,l),
(96,0,l)
);
}
);
width = 1480;
}
);
metricLeft = H;
metricRight = H;
unicode = 78;
userData = {
"interface.width-adjustments" = (
-16
);
};
}
{
glyphname = P;
kernLeft = B;
kernRight = P;
layers = (
{
anchors = (
{
name = tonos;
pos = (190,1490);
},
{
name = top;
pos = (638,1490);
},
{
name = topl;
pos = (232,1490);
}
);
layerId = "B1F27B51-9973-4381-9301-4FE46FE1CA59";
shapes = (
{
closed = 1;
nodes = (
(278,0,l),
(278,1444,l),
(670,1444,ls),
(892,1444,o),
(1050,1281,o),
(1050,1054,cs),
(1050,826,o),
(892,666,o),
(670,666,cs),
(256,666,l),
(256,620,l),
(670,620,ls),
(919,620,o),
(1096,799,o),
(1096,1054,cs),
(1096,1308,o),
(919,1490,o),
(670,1490,cs),
(232,1490,l),
(232,0,l)
);
}
);
width = 1242;
},
{
anchors = (
{
name = tonos;
pos = (147,1490);
},
{
name = top;
pos = (652,1490);
},
{
name = topl;
pos = (180,1490);
}
);
guides = (
{
angle = 90;
pos = (1396,1760);
},
{
angle = 90;
pos = (1248,1804);
}
);
layerId = "C698F293-3EC0-4A5A-A3A0-0FDB1F5CF265";
shapes = (
{
closed = 1;
nodes = (
(370,0,l),
(370,1323,l),
(680,1323,ls),
(918,1323,o),
(1009,1192,o),
(1009,1016,cs),
(1009,839,o),
(918,706,o),
(682,706,cs),
(330,706,l),
(330,539,l),
(691,539,ls),
(1038,539,o),
(1198,750,o),
(1198,1016,cs),
(1198,1281,o),
(1038,1490,o),
(690,1490,cs),
(180,1490,l),
(180,0,l)
);
}
);
width = 1308;
},
{
anchors = (
{
name = tonos;
pos = (114,1490);
},
{
name = top;
pos = (616,1490);
},
{
name = topl;
pos = (148,1490);
}
);
background = {
shapes = (
{
ref = R;
}
);
};
guides = (
{
pos = (0,665);
},
{
pos = (0,1038);
}
);
layerId = m007;
shapes = (
{
closed = 1;
nodes = (
(328,0,l),
(328,1330,l),
(676,1330,ls),
(883,1330,o),
(1010,1219,o),
(1010,1038,cs),
(1010,857,o),
(883,745,o),
(676,745,cs),
(238,745,l),
(238,585,l),
(674,585,ls),
(985,585,o),
(1188,760,o),
(1188,1038,cs),
(1188,1316,o),
(993,1490,o),
(682,1490,cs),
(148,1490,l),
(148,0,l)
);
}
);
width = 1253;
},
{
anchors = (
{
name = tonos;
pos = (76,1490);
},
{
name = top;
pos = (658,1490);
},
{
name = topl;
pos = (96,1490);
}
);
layerId = "5C20EF92-B63D-42A8-8878-93C2863E0093";
shapes = (
{
closed = 1;
nodes = (
(500,0,l),
(500,1166,l),
(642,1166,ls),
(785,1166,o),
(870,1091,o),
(870,962,cs),
(870,836,o),
(785,756,o),
(642,756,cs),
(340,756,l),
(340,442,l),
(724,442,ls),
(1064,442,o),
(1292,642,o),
(1292,962,cs),
(1292,1280,o),
(1070,1490,o),
(738,1490,cs),
(96,1490,l),
(96,0,l)
);
}
);
width = 1344;
},
{
anchors = (
{
name = tonos;
pos = (72,1490);
},
{
name = top;
pos = (654,1490);
},
{
name = topl;
pos = (84,1490);
}
);
background = {
shapes = (
{
ref = R;
}
);
};
layerId = m009;
shapes = (
{
closed = 1;
nodes = (
(496,0,l),
(496,1148,l),
(682,1148,ls),
(807,1148,o),
(886,1079,o),
(886,970,cs),
(886,861,o),
(807,792,o),
(682,792,cs),
(319,792,l),
(319,450,l),
(713,450,ls),
(1069,450,o),
(1292,651,o),
(1292,970,cs),
(1292,1289,o),
(1069,1490,o),
(713,1490,cs),
(80,1490,l),
(80,0,l)
);
}
);
width = 1327;
},
{
anchors = (
{
name = tonos;
pos = (84,1490);
},
{
name = top;
pos = (666,1676);
}
);
associatedMasterId = m009;
layerId = "B85D432A-DEAF-440B-A130-C5EC0D31991E";
name = "May 30, 22, 16:27";
shapes = (
{
closed = 1;
nodes = (
(508,0,l),
(508,1160,l),
(674,1160,ls),
(818,1160,o),
(886,1100,o),
(886,974,cs),
(886,848,o),
(818,788,o),
(674,788,cs),
(348,788,l),
(348,474,l),
(691,474,ls),
(1083,474,o),
(1284,653,o),
(1284,974,cs),
(1284,1306,o),
(1088,1490,o),
(705,1490,cs),
(96,1490,l),
(96,0,l)
);
}
);
width = 1352;
},
{
anchors = (
{
name = tonos;
pos = (84,1490);
},
{
name = top;
pos = (666,1676);
}
);
associatedMasterId = m009;
layerId = "DF3FBFC0-EBCF-4643-B1BA-BF3CE8DB63BD";
name = "May 30, 22, 16:26";
shapes = (
{
closed = 1;
nodes = (
(508,0,l),
(508,1160,l),
(674,1160,ls),
(818,1160,o),
(886,1100,o),
(886,974,cs),
(886,848,o),
(818,788,o),
(674,788,cs),
(348,788,l),
(348,474,l),
(748,474,ls),
(1088,474,o),
(1300,654,o),
(1300,974,cs),
(1300,1292,o),
(1094,1490,o),
(762,1490,cs),
(96,1490,l),
(96,0,l)
);
}
);
width = 1352;
},
{
anchors = (
{
name = tonos;
pos = (84,1490);
},
{
name = top;
pos = (666,1676);
}
);
associatedMasterId = m009;
background = {
shapes = (
{
ref = E;
}
);
};
layerId = "44BB5334-5619-4FDE-B216-397A9C70E91A";
name = "May 30, 22, 14:11";
shapes = (
{
closed = 1;
nodes = (
(508,0,l),
(508,1160,l),
(658,1160,ls),
(796,1160,o),
(886,1089,o),
(886,966,cs),
(886,843,o),
(796,772,o),
(658,772,cs),
(348,772,l),
(348,458,l),
(732,458,ls),
(1072,458,o),
(1300,646,o),
(1300,966,cs),
(1300,1284,o),
(1078,1490,o),
(746,1490,cs),
(96,1490,l),
(96,0,l)
);
}
);
width = 1352;
},
{
anchors = (
{
name = tonos;
pos = (84,1490);
},
{
name = top;
pos = (666,1676);
}
);
associatedMasterId = m009;
background = {
shapes = (
{
ref = E;
}
);
};
layerId = "4268C587-58AB-4179-9E87-DEA079739FE5";
name = "May 30, 22, 14:11";
shapes = (
{
closed = 1;
nodes = (
(508,0,l),
(508,1160,l),
(658,1160,ls),
(796,1160,o),
(886,1081,o),
(886,958,cs),
(886,835,o),
(796,756,o),
(658,756,cs),
(348,756,l),
(348,442,l),
(732,442,ls),
(1072,442,o),
(1300,642,o),
(1300,962,cs),
(1300,1280,o),
(1078,1490,o),
(746,1490,cs),
(96,1490,l),
(96,0,l)
);
}
);
width = 1352;
},
{
anchors = (
{
name = tonos;
pos = (126,1490);
},
{
name = top;
pos = (574,1490);
},
{
name = topl;
pos = (168,1490);
}
);
background = {
shapes = (
{
ref = R;
}
);
};
layerId = m011;
shapes = (
{
closed = 1;
nodes = (
(214,0,l),
(214,1444,l),
(654,1444,ls),
(877,1444,o),
(1034,1293,o),
(1034,1064,cs),
(1034,838,o),
(877,688,o),
(654,688,cs),
(192,688,l),
(192,642,l),
(654,642,ls),
(903,642,o),
(1080,811,o),
(1080,1064,cs),
(1080,1320,o),
(902,1490,o),
(654,1490,cs),
(168,1490,l),
(168,0,l)
);
}
);
width = 1125;
},
{
anchors = (
{
name = tonos;
pos = (114,1490);
},
{
name = top;
pos = (616,1490);
},
{
name = topl;
pos = (148,1490);
}
);
associatedMasterId = m007;
background = {
shapes = (
{
ref = R;
}
);
};
layerId = "B0D89AF8-9762-4A88-8616-A3D94F493775";
name = "Apr 27, 23, 13:49";
shapes = (
{
closed = 1;
nodes = (
(328,0,l),
(328,1330,l),
(646,1330,ls),
(888,1330,o),
(980,1197,o),
(980,1018,cs),
(980,839,o),
(888,704,o),
(648,704,cs),
(294,704,l),
(294,544,l),
(654,544,ls),
(1001,544,o),
(1158,755,o),
(1158,1018,cs),
(1158,1281,o),
(1001,1490,o),
(652,1490,cs),
(148,1490,l),
(148,0,l)
);
}
);
width = 1236;
},
{
anchors = (
{
name = tonos;
pos = (68,1490);
},
{
name = top;
pos = (650,1490);
},
{
name = topl;
pos = (80,1490);
}
);
associatedMasterId = m009;
layerId = "F6D01A60-ABEF-411D-827B-6D00923F7ABA";
name = "Apr 27, 23, 14:02";
shapes = (
{
closed = 1;
nodes = (
(492,0,l),
(492,1152,l),
(654,1152,ls),
(798,1152,o),
(866,1095,o),
(866,974,cs),
(866,853,o),
(798,796,o),
(654,796,cs),
(332,796,l),
(332,474,l),
(671,474,ls),
(1063,474,o),
(1272,653,o),
(1272,974,cs),
(1272,1306,o),
(1068,1490,o),
(685,1490,cs),
(80,1490,l),
(80,0,l)
);
}
);
width = 1308;
},
{
anchors = (
{
name = tonos;
pos = (126,1490);
},
{
name = top;
pos = (574,1490);
},
{
name = topl;
pos = (168,1490);
}
);
associatedMasterId = m011;
background = {
shapes = (
{
ref = R;
}
);
};
layerId = "F3E71BCF-DB67-4161-9221-042C3C1A1A4D";
name = "Apr 27, 23, 14:08";
shapes = (
{
closed = 1;
nodes = (
(214,0,l),
(214,1444,l),
(606,1444,ls),
(828,1444,o),
(986,1281,o),
(986,1054,cs),
(986,826,o),
(828,666,o),
(606,666,cs),
(192,666,l),
(192,620,l),
(606,620,ls),
(855,620,o),
(1032,799,o),
(1032,1054,cs),
(1032,1308,o),
(855,1490,o),
(606,1490,cs),
(168,1490,l),
(168,0,l)
);
}
);
width = 1114;
}
);
metricLeft = H;
unicode = 80;
userData = {
com.typemytype.robofont.guideline.magnetic.fNIC4eKo9v = 5;
com.typemytype.robofont.guideline.magnetic.hdLF6WxJ6g = 5;
"interface.width-adjustments" = (
-16
);
};
}
{
glyphname = U;
kernLeft = U;
kernRight = J;
layers = (
{
anchors = (
{
name = bottom;
pos = (763,0);
},
{
name = ogonek;
pos = (1344,507);
},
{
name = right;
pos = (849,0);
},
{
name = rtophorn;
pos = (1154,1490);
},
{
name = top;
pos = (763,1490);
}
);
layerId = "C698F293-3EC0-4A5A-A3A0-0FDB1F5CF265";
shapes = (
{
closed = 1;
nodes = (
(1114,-24,o),
(1344,200,o),
(1344,507,cs),
(1344,1490,l),
(1154,1490,l),
(1154,522,ls),
(1154,308,o),
(1006,152,o),
(763,152,cs),
(519,152,o),
(370,308,o),
(370,522,cs),
(370,1490,l),
(180,1490,l),
(180,507,ls),
(180,200,o),
(410,-24,o),
(763,-24,cs)
);
}
);
width = 1524;
},
{
anchors = (
{
name = bottom;
pos = (738,0);
},
{
name = ogonek;
pos = (1382,536);
},
{
name = right;
pos = (866,0);
},
{
name = rtophorn;
pos = (978,1490);
},
{
name = top;
pos = (738,1490);
}
);
layerId = "5C20EF92-B63D-42A8-8878-93C2863E0093";
shapes = (
{
closed = 1;
nodes = (
(1121,-18,o),
(1382,195,o),
(1382,536,cs),
(1382,1490,l),
(978,1490,l),
(978,570,ls),
(978,431,o),
(878,332,o),
(738,332,cs),
(600,332,o),
(500,431,o),
(500,570,cs),
(500,1490,l),
(96,1490,l),
(96,536,ls),
(96,195,o),
(353,-18,o),
(738,-18,cs)
);
}
);
width = 1478;
},
{
anchors = (
{
name = bottom;
pos = (736,0);
},
{
name = ogonek;
pos = (1272,504);
},
{
name = right;
pos = (798,0);
},
{
name = rtophorn;
pos = (1224,1490);
},
{
name = top;
pos = (736,1490);
}
);
layerId = "B1F27B51-9973-4381-9301-4FE46FE1CA59";
shapes = (
{
closed = 1;
nodes = (
(1042,-22,o),
(1272,201,o),
(1272,504,cs),
(1272,1490,l),
(1226,1490,l),
(1226,504,ls),
(1226,228,o),
(1017,24,o),
(736,24,cs),
(455,24,o),
(246,228,o),
(246,504,cs),
(246,1490,l),
(200,1490,l),
(200,504,ls),
(200,202,o),
(431,-22,o),
(736,-22,cs)
);
}
);
width = 1472;
},
{
anchors = (
{
name = bottom;
pos = (720,0);
},
{
name = ogonek;
pos = (1300,506);
},
{
name = right;
pos = (804,0);
},
{
name = rtophorn;
pos = (1120,1490);
},
{
name = top;
pos = (720,1490);
}
);
background = {
shapes = (
{
closed = 1;
nodes = (
(1120,520,ls),
(1120,302,o),
(968,144,o),
(720,144,cs),
(471,144,o),
(320,302,o),
(320,520,cs),
(320,1490,l),
(140,1490,l),
(140,506,ls),
(140,200,o),
(369,-24,o),
(720,-24,cs),
(1070,-24,o),
(1300,200,o),
(1300,506,cs),
(1300,1490,l),
(1120,1490,l)
);
}
);
};
layerId = m007;
shapes = (
{
closed = 1;
nodes = (
(1071,-24,o),
(1300,200,o),
(1300,506,cs),
(1300,1490,l),
(1120,1490,l),
(1120,520,ls),
(1120,302,o),
(969,144,o),
(720,144,cs),
(471,144,o),
(320,302,o),
(320,520,cs),
(320,1490,l),
(140,1490,l),
(140,506,ls),
(140,200,o),
(369,-24,o),
(720,-24,cs)
);
}
);
width = 1440;
},
{
anchors = (
{
name = bottom;
pos = (722,0);
},
{
name = ogonek;
pos = (1364,530);
},
{
name = right;
pos = (850,0);
},
{
name = rtophorn;
pos = (960,1490);
},
{
name = top;
pos = (722,1490);
}
);
layerId = m009;
shapes = (
{
closed = 1;
nodes = (
(1111,-24,o),
(1364,194,o),
(1364,530,cs),
(1364,1490,l),
(960,1490,l),
(960,564,ls),
(960,425,o),
(862,326,o),
(722,326,cs),
(584,326,o),
(484,426,o),
(484,564,cs),
(484,1490,l),
(80,1490,l),
(80,530,ls),
(80,193,o),
(332,-24,o),
(722,-24,cs)
);
}
);
width = 1444;
},
{
anchors = (
{
name = bottom;
pos = (676,0);
},
{
name = ogonek;
pos = (1212,510);
},
{
name = right;
pos = (738,0);
},
{
name = rtophorn;
pos = (1164,1490);
},
{
name = top;
pos = (676,1490);
}
);
layerId = m011;
name = "Thin Display";
shapes = (
{
closed = 1;
nodes = (
(982,-16,o),
(1212,207,o),
(1212,510,cs),
(1212,1490,l),
(1166,1490,l),
(1166,510,ls),
(1166,234,o),
(957,30,o),
(676,30,cs),
(395,30,o),
(186,234,o),
(186,510,cs),
(186,1490,l),
(140,1490,l),
(140,510,ls),
(140,208,o),
(371,-16,o),
(676,-16,cs)
);
}
);
width = 1352;
}
);
metricRight = "=|U";
unicode = 85;
userData = {
com.typemytype.robofont.guideline.magnetic.icXM2D4lH7 = 5;
"interface.width-adjustments" = (
-16
);
};
}
{
glyphname = V;
kernLeft = V;
kernRight = V;
layers = (
{
anchors = (
{
name = bottom;
pos = (706,0);
},
{
name = top;
pos = (706,1490);
}
);
layerId = "C698F293-3EC0-4A5A-A3A0-0FDB1F5CF265";
shapes = (
{
closed = 1;
nodes = (
(819,0,l),
(1361,1490,l),
(1159,1490,l),
(852,606,ls),
(817,505,o),
(764,345,o),
(692,90,c),
(729,90,l),
(657,338,o),
(603,505,o),
(567,606,cs),
(252,1490,l),
(52,1490,l),
(600,0,l)
);
}
);
width = 1413;
},
{
anchors = (
{
name = bottom;
pos = (814,0);
},
{
name = top;
pos = (814,1490);
}
);
guides = (
{
orientation = center;
angle = 90;
pos = (1040,1048);
}
);
layerId = "5C20EF92-B63D-42A8-8878-93C2863E0093";
shapes = (
{
closed = 1;
nodes = (
(1098,0,l),
(1582,1490,l),
(1130,1490,l),
(965,912,ls),
(893,661,o),
(837,402,o),
(781,135,c),
(871,135,l),
(812,402,o),
(752,661,o),
(677,912,cs),
(504,1490,l),
(46,1490,l),
(546,0,l)
);
}
);
width = 1628;
},
{
anchors = (
{
name = bottom;
pos = (812,0);
},
{
name = top;
pos = (812,1586);
}
);
associatedMasterId = "5C20EF92-B63D-42A8-8878-93C2863E0093";
guides = (
{
orientation = center;
angle = 90;
pos = (1040,1048);
}
);
layerId = "B0E2023B-B6D1-4711-B977-6B7F091C03CB";
name = "Oct 2 18, 14:43";
shapes = (
{
closed = 1;
nodes = (
(46,1490,l),
(552,0,l),
(1070,0,l),
(1576,1490,l),
(1128,1490,l),
(820,498,l),
(802,498,l),
(494,1490,l)
);
}
);
width = 1624;
},
{
anchors = (
{
name = bottom;
pos = (655,0);
},
{
name = top;
pos = (655,1490);
}
);
layerId = "B1F27B51-9973-4381-9301-4FE46FE1CA59";
shapes = (
{
closed = 1;
nodes = (
(687,0,l),
(1244,1490,l),
(1195,1490,l),
(765,336,ls),
(725,229,o),
(686,123,o),
(647,16,c),
(665,16,l),
(626,123,o),
(587,229,o),
(547,336,cs),
(115,1490,l),
(66,1490,l),
(624,0,l)
);
}
);
width = 1310;
},
{
anchors = (
{
name = bottom;
pos = (669,0);
},
{
name = top;
pos = (669,1490);
}
);
layerId = m007;
shapes = (
{
closed = 1;
nodes = (
(774,0,l),
(1318,1490,l),
(1130,1490,l),
(816,592,ls),
(782,494,o),
(729,336,o),
(650,88,c),
(700,88,l),
(619,336,o),
(567,494,o),
(532,592,cs),
(210,1490,l),
(20,1490,l),
(570,0,l)
);
}
);
width = 1338;
},
{
anchors = (
{
name = bottom;
pos = (768,0);
},
{
name = top;
pos = (768,1490);
}
);
guides = (
{
angle = 106.6794;
pos = (458,1490);
},
{
angle = 254.0188;
pos = (1084,1490);
}
);
layerId = m009;
shapes = (
{
closed = 1;
nodes = (
(1052,0,l),
(1536,1490,l),
(1084,1490,l),
(919,912,ls),
(847,661,o),
(783,410,o),
(719,159,c),
(841,159,l),
(774,410,o),
(706,661,o),
(631,912,cs),
(458,1490,l),
(0,1490,l),
(500,0,l)
);
}
);
width = 1536;
},
{
anchors = (
{
name = bottom;
pos = (812,0);
},
{
name = top;
pos = (812,1586);
}
);
associatedMasterId = m009;
guides = (
{
orientation = center;
angle = 90;
pos = (1040,1048);
}
);
layerId = "6ABB602C-060F-482F-BE1D-F143A542C6A5";
name = "Oct 2 18, 14:43";
shapes = (
{
closed = 1;
nodes = (
(46,1490,l),
(552,0,l),
(1070,0,l),
(1576,1490,l),
(1128,1490,l),
(820,498,l),
(802,498,l),
(494,1490,l)
);
}
);
width = 1624;
},
{
anchors = (
{
name = bottom;
pos = (609,0);
},
{
name = top;
pos = (609,1490);
}
);
layerId = m011;
shapes = (
{
closed = 1;
nodes = (
(641,0,l),
(1198,1490,l),
(1149,1490,l),
(719,336,ls),
(679,229,o),
(640,123,o),
(601,16,c),
(619,16,l),
(580,123,o),
(541,229,o),
(501,336,cs),
(69,1490,l),
(20,1490,l),
(578,0,l)
);
}
);
width = 1218;
},
{
anchors = (
{
name = bottom;
pos = (660,0);
},
{
name = top;
pos = (660,1676);
}
);
associatedMasterId = m007;
guides = (
{
orientation = center;
angle = 90;
pos = (-5426,476);
},
{
angle = 90;
pos = (20,2088);
},
{
angle = 90;
pos = (1260,2196);
}
);
layerId = "3FA903E9-B3D7-457A-8D6F-8E8B9907DA5F";
name = "Jul 9, 22, 13:16";
shapes = (
{
closed = 1;
nodes = (
(20,1490,l),
(568,0,l),
(754,0,l),
(1300,1490,l),
(1112,1490,l),
(662,214,l),
(660,214,l),
(210,1490,l)
);
}
);
width = 1320;
},
{
anchors = (
{
name = bottom;
pos = (669,0);
},
{
name = top;
pos = (669,1490);
}
);
associatedMasterId = m007;
layerId = "EBCA45E4-4BDE-49C7-BE14-4331B065986B";
name = "Apr 25, 23, 11:25";
shapes = (
{
closed = 1;
nodes = (
(20,1490,l),
(567,0,l),
(771,0,l),
(1318,1490,l),
(1124,1490,l),
(671,200,l),
(667,200,l),
(210,1490,l)
);
}
);
width = 1338;
},
{
anchors = (
{
name = bottom;
pos = (669,0);
},
{
name = top;
pos = (669,1490);
}
);
associatedMasterId = m007;
guides = (
{
angle = 250.7354;
pos = (1128,1490);
},
{
angle = 109.7366;
pos = (208,1490);
}
);
layerId = "0769E1B1-9A14-48EB-B49E-07202F43F955";
name = "Apr 25, 23, 11:29";
shapes = (
{
closed = 1;
nodes = (
(20,1490,l),
(570,0,l),
(774,0,l),
(1318,1490,l),
(1128,1490,l),
(638,88,l),
(711,88,l),
(208,1490,l)
);
}
);
width = 1338;
},
{
anchors = (
{
name = bottom;
pos = (692,0);
},
{
name = top;
pos = (692,1490);
}
);
associatedMasterId = "C698F293-3EC0-4A5A-A3A0-0FDB1F5CF265";
guides = (
{
orientation = center;
angle = 90;
pos = (944,476);
},
{
angle = 90;
pos = (312,2088);
},
{
angle = 90;
pos = (1552,2196);
}
);
layerId = "7CAE4187-76E4-45EE-88F6-59F1B01B8027";
name = "Apr 25, 23, 11:32";
shapes = (
{
closed = 1;
nodes = (
(52,1490,l),
(600,0,l),
(786,0,l),
(1332,1490,l),
(1144,1490,l),
(702,236,l),
(684,236,l),
(242,1490,l)
);
}
);
width = 1384;
},
{
anchors = (
{
name = bottom;
pos = (768,0);
},
{
name = top;
pos = (768,1490);
}
);
associatedMasterId = m009;
layerId = "A070968B-48D1-4437-B499-B4AD7CE16A2E";
name = "Apr 25, 23, 11:33";
shapes = (
{
closed = 1;
nodes = (
(0,1490,l),
(492,0,l),
(1044,0,l),
(1536,1490,l),
(1080,1490,l),
(769,432,l),
(767,432,l),
(458,1490,l)
);
}
);
width = 1536;
},
{
anchors = (
{
name = bottom;
pos = (768,0);
},
{
name = top;
pos = (768,1490);
}
);
associatedMasterId = m009;
guides = (
{
angle = 106.6794;
pos = (458,1490);
},
{
angle = 254.0188;
pos = (1084,1490);
}
);
layerId = "268F958A-D394-4AC3-AD3C-3F3BD275D75E";
name = "Apr 25, 23, 11:36";
shapes = (
{
closed = 1;
nodes = (
(0,1490,l),
(500,0,l),
(1052,0,l),
(1536,1490,l),
(1084,1490,l),
(703,159,l),
(857,159,l),
(458,1490,l)
);
}
);
width = 1536;
},
{
anchors = (
{
name = bottom;
pos = (814,0);
},
{
name = top;
pos = (814,1490);
}
);
associatedMasterId = "5C20EF92-B63D-42A8-8878-93C2863E0093";
guides = (
{
orientation = center;
angle = 90;
pos = (1040,1048);
}
);
layerId = "DECDD8FC-E366-4A8A-9650-881D2ABA9834";
name = "Apr 25, 23, 11:38";
shapes = (
{
closed = 1;
nodes = (
(46,1490,l),
(538,0,l),
(1090,0,l),
(1582,1490,l),
(1126,1490,l),
(820,440,l),
(808,440,l),
(504,1490,l)
);
}
);
width = 1628;
},
{
anchors = (
{
name = bottom;
pos = (585,0);
},
{
name = top;
pos = (585,1490);
}
);
associatedMasterId = m011;
layerId = "CAFF45F8-367B-4748-B878-EF345C94D80A";
name = "Apr 25, 23, 11:42";
shapes = (
{
closed = 1;
nodes = (
(20,1490,l),
(554,0,l),
(618,0,l),
(1150,1490,l),
(1100,1490,l),
(588,58,l),
(582,58,l),
(70,1490,l)
);
}
);
width = 1170;
},
{
anchors = (
{
name = bottom;
pos = (609,0);
},
{
name = top;
pos = (609,1490);
}
);
associatedMasterId = m011;
layerId = "75BBAA06-5CEE-430C-998E-EF23D685DA68";
name = "Apr 25, 23, 11:42";
shapes = (
{
closed = 1;
nodes = (
(20,1490,l),
(578,0,l),
(641,0,l),
(1198,1490,l),
(1149,1490,l),
(599,16,l),
(621,16,l),
(69,1490,l)
);
}
);
width = 1218;
},
{
anchors = (
{
name = bottom;
pos = (632,0);
},
{
name = top;
pos = (632,1490);
}
);
associatedMasterId = "B1F27B51-9973-4381-9301-4FE46FE1CA59";
layerId = "E88AA4F1-59E6-434E-A5D0-8452EB45915A";
name = "Apr 25, 23, 11:43";
shapes = (
{
closed = 1;
nodes = (
(66,1490,l),
(600,0,l),
(664,0,l),
(1196,1490,l),
(1146,1490,l),
(634,58,l),
(628,58,l),
(116,1490,l)
);
}
);
width = 1262;
}
);
metricLeft = A;
metricRight = A;
unicode = 86;
userData = {
com.typemytype.robofont.guideline.magnetic.IJvllllLzF = 5;
com.typemytype.robofont.guideline.magnetic.KeOP4W9VuQ = 5;
com.typemytype.robofont.guideline.magnetic.yHrbtxZ5FX = 5;
"interface.width-adjustments" = (
-16
);
};
}
{
glyphname = W;
kernLeft = W;
kernRight = W;
layers = (
{
anchors = (
{
name = bottom;
pos = (1009,0);
},
{
name = top;
pos = (1009,1490);
}
);
layerId = "C698F293-3EC0-4A5A-A3A0-0FDB1F5CF265";
shapes = (
{
closed = 1;
nodes = (
(680,0,l),
(935,944,ls),
(973,1085,o),
(999,1216,o),
(1028,1395,c),
(988,1395,l),
(1017,1206,o),
(1048,1066,o),
(1081,944,cs),
(1337,0,l),
(1558,0,l),
(1966,1490,l),
(1770,1490,l),
(1535,576,l),
(1498,429,o),
(1463,278,o),
(1434,115,c),
(1460,115,l),
(1429,278,o),
(1395,429,o),
(1356,576,c),
(1117,1490,l),
(901,1490,l),
(660,576,l),
(621,429,o),
(588,278,o),
(558,115,c),
(581,115,l),
(552,278,o),
(519,429,o),
(482,576,c),
(246,1490,l),
(52,1490,l),
(458,0,l)
);
}
);
width = 2018;
},
{
anchors = (
{
name = bottom;
pos = (1108,0);
},
{
name = top;
pos = (1108,1490);
}
);
guides = (
{
orientation = center;
angle = 90;
pos = (-4165,2076);
}
);
layerId = "5C20EF92-B63D-42A8-8878-93C2863E0093";
shapes = (
{
closed = 1;
nodes = (
(898,0,l),
(1047,607,ls),
(1099,819,o),
(1110,1072,o),
(1161,1296,c),
(1055,1296,l),
(1098,1072,o),
(1119,816,o),
(1170,607,cs),
(1318,0,l),
(1775,0,l),
(2170,1490,l),
(1718,1490,l),
(1598,912,ls),
(1553,693,o),
(1523,395,o),
(1486,176,c),
(1567,176,l),
(1525,395,o),
(1492,693,o),
(1442,912,cs),
(1310,1490,l),
(906,1490,l),
(774,912,ls),
(724,693,o),
(691,395,o),
(649,176,c),
(729,176,l),
(692,395,o),
(662,693,o),
(617,912,cs),
(498,1490,l),
(46,1490,l),
(441,0,l)
);
}
);
width = 2216;
},
{
anchors = (
{
name = bottom;
pos = (951,0);
},
{
name = top;
pos = (951,1490);
}
);
layerId = "B1F27B51-9973-4381-9301-4FE46FE1CA59";
shapes = (
{
closed = 1;
nodes = (
(558,0,l),
(859,1104,ls),
(892,1227,o),
(925,1349,o),
(956,1472,c),
(946,1472,l),
(977,1349,o),
(1010,1227,o),
(1043,1104,cs),
(1344,0,l),
(1414,0,l),
(1836,1490,l),
(1788,1490,l),
(1466,352,ls),
(1434,240,o),
(1404,128,o),
(1374,16,c),
(1384,16,l),
(1356,128,o),
(1326,240,o),
(1296,352,cs),
(986,1490,l),
(916,1490,l),
(606,352,ls),
(576,240,o),
(546,128,o),
(518,16,c),
(528,16,l),
(498,128,o),
(468,240,o),
(436,352,cs),
(114,1490,l),
(66,1490,l),
(488,0,l)
);
}
);
width = 1902;
},
{
anchors = (
{
name = bottom;
pos = (884,20);
},
{
name = top;
pos = (884,1730);
}
);
associatedMasterId = "B1F27B51-9973-4381-9301-4FE46FE1CA59";
background = {
shapes = (
{
closed = 1;
nodes = (
(504,0,l),
(878,1400,l),
(890,1400,l),
(1262,0,l),
(1330,0,l),
(1716,1490,l),
(1694,1490,l),
(1318,102,l),
(1304,102,l),
(940,1490,l),
(826,1490,l),
(466,98,l),
(448,98,l),
(72,1490,l),
(50,1490,l),
(436,0,l)
);
}
);
};
layerId = "11917E52-1163-4D25-A7C8-D834BC2206AE";
name = "Nov 25 18, 14:25";
shapes = (
{
closed = 1;
nodes = (
(46,1490,l),
(456,0,l),
(520,0,l),
(914,1490,l),
(864,1490,l),
(492,72,l),
(486,72,l),
(94,1490,l)
);
},
{
closed = 1;
nodes = (
(1320,72,l),
(1314,72,l),
(942,1490,l),
(894,1490,l),
(1286,0,l),
(1350,0,l),
(1760,1490,l),
(1714,1490,l)
);
}
);
width = 1768;
},
{
anchors = (
{
name = bottom;
pos = (972,0);
},
{
name = top;
pos = (972,1490);
}
);
guides = (
{
angle = 104.4295;
pos = (202,1490);
},
{
angle = 255.6141;
pos = (1740,1490);
},
{
angle = 104.6474;
pos = (1074,1490);
},
{
angle = 255.3091;
pos = (870,1490);
},
{
angle = 74.8459;
pos = (638,0);
},
{
angle = -74.7903;
pos = (1306,0);
}
);
layerId = m007;
shapes = (
{
closed = 1;
nodes = (
(638,0,l),
(898,960,ls),
(934,1093,o),
(962,1227,o),
(990,1360,c),
(952,1360,l),
(980,1227,o),
(1009,1093,o),
(1045,960,cs),
(1306,0,l),
(1516,0,l),
(1924,1490,l),
(1740,1490,l),
(1500,560,l),
(1463,416,o),
(1428,272,o),
(1399,128,c),
(1423,128,l),
(1393,272,o),
(1358,416,o),
(1320,560,c),
(1076,1490,l),
(868,1490,l),
(622,560,l),
(584,416,o),
(550,272,o),
(521,128,c),
(542,128,l),
(513,272,o),
(480,416,o),
(443,560,c),
(202,1490,l),
(20,1490,l),
(426,0,l)
);
}
);
width = 1944;
},
{
anchors = (
{
name = bottom;
pos = (1062,0);
},
{
name = top;
pos = (1062,1490);
}
);
layerId = m009;
shapes = (
{
closed = 1;
nodes = (
(852,0,l),
(1021,688,ls),
(1047,794,o),
(1072,944,o),
(1123,1168,c),
(1001,1168,l),
(1052,944,o),
(1077,794,o),
(1103,688,cs),
(1272,0,l),
(1729,0,l),
(2124,1490,l),
(1672,1490,l),
(1552,912,ls),
(1507,693,o),
(1469,475,o),
(1432,256,c),
(1529,256,l),
(1487,475,o),
(1446,693,o),
(1396,912,cs),
(1264,1490,l),
(860,1490,l),
(728,912,ls),
(678,693,o),
(637,475,o),
(595,256,c),
(691,256,l),
(654,475,o),
(616,693,o),
(571,912,cs),
(452,1490,l),
(0,1490,l),
(395,0,l)
);
}
);
width = 2124;
},
{
anchors = (
{
name = bottom;
pos = (905,0);
},
{
name = top;
pos = (905,1490);
}
);
layerId = m011;
shapes = (
{
closed = 1;
nodes = (
(512,0,l),
(813,1104,ls),
(846,1227,o),
(879,1349,o),
(912,1472,c),
(898,1472,l),
(931,1349,o),
(964,1227,o),
(997,1104,cs),
(1298,0,l),
(1368,0,l),
(1790,1490,l),
(1742,1490,l),
(1420,352,ls),
(1388,240,o),
(1358,128,o),
(1326,16,c),
(1340,16,l),
(1310,128,o),
(1280,240,o),
(1250,352,cs),
(940,1490,l),
(870,1490,l),
(560,352,ls),
(530,240,o),
(500,128,o),
(470,16,c),
(484,16,l),
(452,128,o),
(422,240,o),
(390,352,cs),
(68,1490,l),
(20,1490,l),
(442,0,l)
);
}
);
width = 1810;
},
{
anchors = (
{
name = bottom;
pos = (884,20);
},
{
name = top;
pos = (884,1730);
}
);
associatedMasterId = m011;
background = {
shapes = (
{
closed = 1;
nodes = (
(504,0,l),
(878,1400,l),
(890,1400,l),
(1262,0,l),
(1330,0,l),
(1716,1490,l),
(1694,1490,l),
(1318,102,l),
(1304,102,l),
(940,1490,l),
(826,1490,l),
(466,98,l),
(448,98,l),
(72,1490,l),
(50,1490,l),
(436,0,l)
);
}
);
};
layerId = "5C1D6669-4A6C-40F1-A2A6-E8D5CA359ED6";
name = "Nov 25 18, 14:25";
shapes = (
{
closed = 1;
nodes = (
(46,1490,l),
(456,0,l),
(520,0,l),
(914,1490,l),
(864,1490,l),
(492,72,l),
(486,72,l),
(94,1490,l)
);
},
{
closed = 1;
nodes = (
(1320,72,l),
(1314,72,l),
(942,1490,l),
(894,1490,l),
(1286,0,l),
(1350,0,l),
(1760,1490,l),
(1714,1490,l)
);
}
);
width = 1768;
},
{
anchors = (
{
name = bottom;
pos = (945,12);
},
{
name = top;
pos = (945,1676);
}
);
associatedMasterId = m007;
guides = (
{
pos = (841,360);
},
{
orientation = center;
angle = 90;
pos = (-8497,2096);
},
{
angle = 90;
pos = (453,332);
},
{
angle = 90;
pos = (1629,356);
}
);
layerId = "C0FC24A8-B72B-48C7-9C9A-10DB59154429";
metricLeft = "=A*0.84";
metricRight = "=A*0.84";
name = "Jul 9, 22, 13:17";
shapes = (
{
closed = 1;
nodes = (
(611,0,l),
(939,1186,l),
(951,1186,l),
(1279,0,l),
(1465,0,l),
(1873,1490,l),
(1689,1490,l),
(1379,276,l),
(1363,276,l),
(1047,1490,l),
(843,1490,l),
(525,276,l),
(511,276,l),
(199,1490,l),
(17,1490,l),
(423,0,l)
);
}
);
width = 1890;
},
{
anchors = (
{
name = bottom;
pos = (948,12);
},
{
name = top;
pos = (948,1490);
}
);
associatedMasterId = m007;
layerId = "E18D8DC4-B7DC-49BC-8FA4-9427720A7BD2";
name = "Apr 25, 23, 11:46";
shapes = (
{
closed = 1;
nodes = (
(614,0,l),
(946,1200,l),
(950,1200,l),
(1282,0,l),
(1468,0,l),
(1876,1490,l),
(1692,1490,l),
(1376,258,l),
(1372,258,l),
(1050,1490,l),
(846,1490,l),
(523,258,l),
(519,258,l),
(202,1490,l),
(20,1490,l),
(426,0,l)
);
}
);
width = 1896;
},
{
anchors = (
{
name = bottom;
pos = (972,12);
},
{
name = top;
pos = (972,1490);
}
);
associatedMasterId = m007;
guides = (
{
angle = 104.4295;
pos = (202,1490);
},
{
angle = 255.6141;
pos = (1740,1490);
},
{
angle = 104.6474;
pos = (1074,1490);
},
{
angle = 255.3091;
pos = (870,1490);
},
{
angle = -74.535;
pos = (1306,0);
},
{
angle = 74.535;
pos = (638,0);
}
);
layerId = "49FFE8BA-922E-4B1C-BCFB-E07743567438";
name = "Apr 25, 23, 11:49";
shapes = (
{
closed = 1;
nodes = (
(638,0,l),
(1014,1360,l),
(930,1360,l),
(1306,0,l),
(1516,0,l),
(1924,1490,l),
(1740,1490,l),
(1391,128,l),
(1430,128,l),
(1074,1490,l),
(870,1490,l),
(513,128,l),
(552,128,l),
(202,1490,l),
(20,1490,l),
(426,0,l)
);
}
);
width = 1944;
},
{
anchors = (
{
name = bottom;
pos = (980,12);
},
{
name = top;
pos = (980,1490);
}
);
associatedMasterId = "C698F293-3EC0-4A5A-A3A0-0FDB1F5CF265";
layerId = "73007E1F-20AF-492D-A20A-994864F83AE6";
name = "Apr 25, 23, 11:58";
shapes = (
{
closed = 1;
nodes = (
(646,0,l),
(974,1186,l),
(986,1186,l),
(1314,0,l),
(1500,0,l),
(1908,1490,l),
(1724,1490,l),
(1414,276,l),
(1398,276,l),
(1082,1490,l),
(878,1490,l),
(560,276,l),
(546,276,l),
(234,1490,l),
(52,1490,l),
(458,0,l)
);
}
);
width = 1960;
},
{
anchors = (
{
name = bottom;
pos = (1086,0);
},
{
name = top;
pos = (1086,1490);
}
);
associatedMasterId = m009;
layerId = "2AF39399-1092-4C9A-BD0A-028B7AF0A2A8";
name = "Apr 25, 23, 12:00";
shapes = (
{
closed = 1;
nodes = (
(828,0,l),
(1084,845,l),
(1088,845,l),
(1344,0,l),
(1732,0,l),
(2172,1490,l),
(1720,1490,l),
(1512,560,l),
(1508,560,l),
(1264,1490,l),
(908,1490,l),
(664,560,l),
(660,560,l),
(452,1490,l),
(0,1490,l),
(440,0,l)
);
}
);
width = 2172;
},
{
anchors = (
{
name = bottom;
pos = (1062,0);
},
{
name = top;
pos = (1062,1490);
}
);
associatedMasterId = m009;
layerId = "D826DD02-C52D-44F2-ABC8-811642028754";
name = "Apr 25, 23, 12:07";
shapes = (
{
closed = 1;
nodes = (
(852,0,l),
(1139,1168,l),
(985,1168,l),
(1272,0,l),
(1729,0,l),
(2124,1490,l),
(1672,1490,l),
(1416,256,l),
(1545,256,l),
(1264,1490,l),
(860,1490,l),
(579,256,l),
(707,256,l),
(452,1490,l),
(0,1490,l),
(395,0,l)
);
}
);
width = 2124;
},
{
anchors = (
{
name = bottom;
pos = (1132,0);
},
{
name = top;
pos = (1132,1490);
}
);
associatedMasterId = "5C20EF92-B63D-42A8-8878-93C2863E0093";
guides = (
{
orientation = center;
angle = 90;
pos = (-3079,2076);
}
);
layerId = "92DD304F-5D82-409F-86DF-7AB326FD3C52";
name = "Apr 25, 23, 12:13";
shapes = (
{
closed = 1;
nodes = (
(874,0,l),
(1126,832,l),
(1138,832,l),
(1390,0,l),
(1778,0,l),
(2218,1490,l),
(1766,1490,l),
(1562,570,l),
(1550,570,l),
(1310,1490,l),
(954,1490,l),
(714,574,l),
(702,574,l),
(498,1490,l),
(46,1490,l),
(486,0,l)
);
}
);
width = 2264;
},
{
anchors = (
{
name = bottom;
pos = (873,0);
},
{
name = top;
pos = (873,1490);
}
);
associatedMasterId = m011;
layerId = "E32C7517-6E28-468B-AE6C-A694046652E7";
name = "Apr 25, 23, 12:17";
shapes = (
{
closed = 1;
nodes = (
(492,0,l),
(872,1423,l),
(874,1423,l),
(1254,0,l),
(1316,0,l),
(1726,1490,l),
(1678,1490,l),
(1286,65,l),
(1284,65,l),
(904,1490,l),
(842,1490,l),
(462,65,l),
(460,65,l),
(68,1490,l),
(20,1490,l),
(430,0,l)
);
}
);
width = 1746;
},
{
anchors = (
{
name = bottom;
pos = (905,0);
},
{
name = top;
pos = (905,1490);
}
);
associatedMasterId = m011;
layerId = "310B4F52-36BF-4488-B253-8DCAA55A6CB1";
name = "Apr 25, 23, 12:21";
shapes = (
{
closed = 1;
nodes = (
(512,0,l),
(913,1472,l),
(897,1472,l),
(1298,0,l),
(1368,0,l),
(1790,1490,l),
(1742,1490,l),
(1325,16,l),
(1341,16,l),
(940,1490,l),
(870,1490,l),
(469,16,l),
(485,16,l),
(68,1490,l),
(20,1490,l),
(442,0,l)
);
}
);
width = 1810;
},
{
anchors = (
{
name = bottom;
pos = (922,12);
},
{
name = top;
pos = (922,1490);
}
);
associatedMasterId = "B1F27B51-9973-4381-9301-4FE46FE1CA59";
layerId = "7CB8798C-F7B1-4EA5-A3E4-0E6637AFFB21";
name = "Apr 25, 23, 12:24";
shapes = (
{
closed = 1;
nodes = (
(540,0,l),
(918,1416,l),
(924,1416,l),
(1302,0,l),
(1366,0,l),
(1776,1490,l),
(1728,1490,l),
(1338,72,l),
(1332,72,l),
(954,1490,l),
(890,1490,l),
(512,72,l),
(506,72,l),
(116,1490,l),
(66,1490,l),
(476,0,l)
);
}
);
width = 1842;
}
);
metricLeft = A;
metricRight = A;
unicode = 87;
userData = {
com.typemytype.robofont.guideline.magnetic.8gZT6dIVxI = 5;
com.typemytype.robofont.guideline.magnetic.ZoWqubfLj9 = 5;
com.typemytype.robofont.guideline.magnetic.k6chDe7LUI = 5;
com.typemytype.robofont.guideline.magnetic.tUpIEqa0MC = 5;
"interface.width-adjustments" = (
-16
);
};
}
{
glyphname = bracketleft;
kernLeft = parenleft;
kernRight = parenleft;
layers = (
{
anchors = (
{
name = cross;
pos = (312,651);
}
);
background = {
shapes = (
{
ref = parenleft;
}
);
};
guides = (
{
name = "Mid center";
pos = (0,651);
}
);
layerId = "C698F293-3EC0-4A5A-A3A0-0FDB1F5CF265";
shapes = (
{
closed = 1;
nodes = (
(624,-279,l),
(624,-126,l),
(398,-126,l),
(398,1428,l),
(624,1428,l),
(624,1581,l),
(226,1581,l),
(226,-279,l)
);
}
);
width = 747;
},
{
anchors = (
{
name = cross;
pos = (339,651);
}
);
background = {
shapes = (
{
ref = parenleft;
}
);
};
guides = (
{
name = "Mid center";
pos = (0,651);
}
);
layerId = "5C20EF92-B63D-42A8-8878-93C2863E0093";
shapes = (
{
closed = 1;
nodes = (
(710,-279,l),
(710,13,l),
(534,13,l),
(534,1289,l),
(710,1289,l),
(710,1581,l),
(144,1581,l),
(144,-279,l)
);
}
);
width = 794;
},
{
anchors = (
{
name = cross;
pos = (279,651);
}
);
background = {
shapes = (
{
ref = parenleft;
}
);
};
guides = (
{
pos = (52,2144);
},
{
pos = (52,-416);
},
{
name = "Mid center";
pos = (0,651);
}
);
layerId = "B1F27B51-9973-4381-9301-4FE46FE1CA59";
shapes = (
{
closed = 1;
nodes = (
(488,-280,l),
(488,-234,l),
(302,-234,l),
(302,1536,l),
(488,1536,l),
(488,1582,l),
(256,1582,l),
(256,-280,l)
);
}
);
width = 646;
},
{
anchors = (
{
name = cross;
pos = (244,636);
}
);
background = {
shapes = (
{
ref = parenleft;
}
);
};
guides = (
{
name = "Mid center";
pos = (0,636);
}
);
layerId = m007;
shapes = (
{
closed = 1;
nodes = (
(533,-294,l),
(533,-148,l),
(329,-148,l),
(329,1420,l),
(533,1420,l),
(533,1566,l),
(159,1566,l),
(159,-294,l)
);
}
);
width = 612;
},
{
anchors = (
{
name = cross;
pos = (308,636);
}
);
background = {
shapes = (
{
ref = parenleft;
}
);
};
guides = (
{
name = "Mid center";
pos = (0,636);
}
);
layerId = m009;
shapes = (
{
closed = 1;
nodes = (
(676,-294,l),
(676,10,l),
(508,10,l),
(508,1262,l),
(676,1262,l),
(676,1566,l),
(108,1566,l),
(108,-294,l)
);
}
);
width = 736;
},
{
anchors = (
{
name = cross;
pos = (215,636);
}
);
background = {
shapes = (
{
ref = parenleft;
}
);
};
guides = (
{
pos = (-76,2144);
},
{
name = "Mid center";
pos = (0,636);
}
);
layerId = m011;
shapes = (
{
closed = 1;
nodes = (
(424,-295,l),
(424,-249,l),
(238,-249,l),
(238,1521,l),
(424,1521,l),
(424,1567,l),
(192,1567,l),
(192,-295,l)
);
}
);
width = 518;
}
);
metricWidth = parenleft;
unicode = 91;
}
{
glyphname = backslash;
kernLeft = V;
kernRight = A;
layers = (
{
layerId = "C698F293-3EC0-4A5A-A3A0-0FDB1F5CF265";
metricLeft = "=|slash";
metricRight = "=|slash";
shapes = (
{
closed = 1;
nodes = (
(692,-224,l),
(212,1560,l),
(46,1560,l),
(526,-224,l)
);
}
);
width = 738;
},
{
layerId = "5C20EF92-B63D-42A8-8878-93C2863E0093";
metricLeft = "=|slash";
metricRight = "=|slash";
shapes = (
{
closed = 1;
nodes = (
(832,-224,l),
(352,1560,l),
(12,1560,l),
(492,-224,l)
);
}
);
width = 844;
},
{
layerId = "B1F27B51-9973-4381-9301-4FE46FE1CA59";
metricLeft = "=|slash";
metricRight = "=|slash";
shapes = (
{
closed = 1;
nodes = (
(594,-224,l),
(114,1560,l),
(66,1560,l),
(546,-224,l)
);
}
);
width = 660;
},
{
layerId = m007;
metricLeft = "=|slash";
metricRight = "=|slash";
shapes = (
{
closed = 1;
nodes = (
(652,-224,l),
(172,1560,l),
(14,1560,l),
(494,-224,l)
);
}
);
width = 666;
},
{
layerId = m009;
metricLeft = "=|slash";
metricRight = "=|slash";
shapes = (
{
closed = 1;
nodes = (
(816,-224,l),
(336,1560,l),
(-4,1560,l),
(476,-224,l)
);
}
);
width = 812;
},
{
layerId = m011;
metricLeft = "=|slash";
metricRight = "=|slash";
shapes = (
{
closed = 1;
nodes = (
(530,-224,l),
(50,1560,l),
(2,1560,l),
(482,-224,l)
);
}
);
width = 532;
}
);
unicode = 92;
userData = {
"interface.width-adjustments" = (
-16
);
};
}
{
glyphname = underscore;
layers = (
{
anchors = (
{
name = _bottom;
pos = (467,158);
}
);
layerId = "C698F293-3EC0-4A5A-A3A0-0FDB1F5CF265";
shapes = (
{
closed = 1;
nodes = (
(0,0,l),
(0,-166,l),
(934,-166,l),
(934,0,l)
);
}
);
width = 934;
},
{
anchors = (
{
name = _bottom;
pos = (505,155);
}
);
guides = (
{
orientation = center;
angle = 90;
pos = (880,132);
}
);
layerId = "5C20EF92-B63D-42A8-8878-93C2863E0093";
shapes = (
{
closed = 1;
nodes = (
(0,0,l),
(0,-286,l),
(1010,-286,l),
(1010,0,l)
);
}
);
width = 1010;
},
{
anchors = (
{
name = _bottom;
pos = (442,243);
}
);
layerId = "B1F27B51-9973-4381-9301-4FE46FE1CA59";
shapes = (
{
closed = 1;
nodes = (
(0,0,l),
(0,-46,l),
(884,-46,l),
(884,0,l)
);
}
);
width = 884;
},
{
anchors = (
{
name = _bottom;
pos = (465,242);
}
);
layerId = m007;
shapes = (
{
closed = 1;
nodes = (
(0,0,l),
(0,-160,l),
(930,-160,l),
(930,0,l)
);
}
);
width = 930;
},
{
anchors = (
{
name = _bottom;
pos = (505,137);
}
);
guides = (
{
orientation = center;
angle = 90;
pos = (-2158,132);
}
);
layerId = m009;
shapes = (
{
closed = 1;
nodes = (
(0,0,l),
(0,-286,l),
(1010,-286,l),
(1010,0,l)
);
}
);
width = 1010;
},
{
anchors = (
{
name = _bottom;
pos = (442,299);
}
);
layerId = m011;
shapes = (
{
closed = 1;
nodes = (
(0,0,l),
(0,-46,l),
(884,-46,l),
(884,0,l)
);
}
);
width = 884;
}
);
metricLeft = "=0";
metricRight = "=0";
note = "Should align to the baseline at top";
unicode = 95;
}
{
glyphname = c;
kernLeft = o;
kernRight = o;
layers = (
{
anchors = (
{
name = bottom;
pos = (594,0);
},
{
name = cedilla;
pos = (594,0);
},
{
name = center;
pos = (594,559);
},
{
name = top;
pos = (594,1118);
},
{
name = topr;
pos = (970,899);
}
);
background = {
shapes = (
{
ref = o;
}
);
};
layerId = "B1F27B51-9973-4381-9301-4FE46FE1CA59";
shapes = (
{
closed = 1;
nodes = (
(843,-16,o),
(965,202,o),
(975,220,c),
(934.789,242.34,l),
(924.783,224.329,o),
(816,30,o),
(594,30,cs),
(358,30,o),
(176,251,o),
(176,559,cs),
(176,866,o),
(358,1088,o),
(594,1088,cs),
(814,1088,o),
(918.781,895.66,o),
(930.19,875.952,c),
(970,899,l),
(959,918,o),
(842,1134,o),
(594,1134,cs),
(330,1134,o),
(130,888,o),
(130,559,cs),
(130,229,o),
(330,-16,o),
(594,-16,cs)
);
}
);
width = 1095;
},
{
anchors = (
{
name = bottom;
pos = (530,0);
},
{
name = cedilla;
pos = (530,0);
},
{
name = center;
pos = (530,528);
},
{
name = top;
pos = (530,1056);
},
{
name = topr;
pos = (952,712);
}
);
background = {
shapes = (
{
ref = o;
},
{
closed = 1;
nodes = (
(768,-24,o),
(946,136,o),
(975,344,c),
(800,344,l),
(767,215,o),
(688,130,o),
(530,130,cs),
(330,130,o),
(212,286,o),
(212,526,cs),
(212,768,o),
(331,926,o),
(530,926,cs),
(686,926,o),
(778,836,o),
(803,712,c),
(975,712,l),
(946,925,o),
(770,1080,o),
(530,1080,cs),
(237,1080,o),
(40,850,o),
(40,526,cs),
(40,204,o),
(237,-24,o),
(530,-24,cs)
);
}
);
};
layerId = m011;
metricRight = "=o";
shapes = (
{
closed = 1;
nodes = (
(745,-16,o),
(909,128,o),
(952,344,c),
(905,344,l),
(864,153,o),
(719,30,o),
(530,30,cs),
(285,30,o),
(112,236,o),
(112,528,cs),
(112,820,o),
(285,1026,o),
(530,1026,cs),
(719,1026,o),
(864,903,o),
(905,712,c),
(952,712,l),
(909,928,o),
(745,1072,o),
(530,1072,cs),
(257,1072,o),
(66,843,o),
(66,528,cs),
(66,213,o),
(257,-16,o),
(530,-16,cs)
);
}
);
width = 1018;
},
{
anchors = (
{
name = bottom;
pos = (613,0);
},
{
name = cedilla;
pos = (613,0);
},
{
name = center;
pos = (613,559);
},
{
name = top;
pos = (613,1118);
},
{
name = topr;
pos = (1066,823);
}
);
background = {
anchors = (
{
name = bottom;
pos = (610,0);
},
{
name = center;
pos = (610,559);
},
{
name = ogonek;
pos = (1118,552);
},
{
name = top;
pos = (610,1118);
},
{
name = tophorn;
pos = (610,1132);
}
);
shapes = (
{
closed = 1;
nodes = (
(913,-24,o),
(1118,207,o),
(1118,552,cs),
(1118,902,o),
(913,1132,o),
(610,1132,cs),
(308,1132,o),
(104,902,o),
(104,552,cs),
(104,207,o),
(308,-24,o),
(610,-24,cs)
);
},
{
closed = 1;
nodes = (
(381,130,o),
(276,329,o),
(276,552,cs),
(276,777,o),
(381,978,o),
(610,978,cs),
(841,978,o),
(946,777,o),
(946,552,cs),
(946,329,o),
(841,130,o),
(610,130,cs)
);
}
);
};
layerId = "C698F293-3EC0-4A5A-A3A0-0FDB1F5CF265";
shapes = (
{
closed = 1;
nodes = (
(832,-24,o),
(1010,95,o),
(1070,294,c),
(898,343,l),
(865,222,o),
(763,137,o),
(613,137,cs),
(390,137,o),
(287,332,o),
(287,552,cs),
(287,775,o),
(390,971,o),
(613,971,cs),
(760,971,o),
(860,889,o),
(893,774,c),
(1066,823,l),
(1005,1018,o),
(829,1132,o),
(613,1132,cs),
(309,1132,o),
(104,902,o),
(104,552,cs),
(104,207,o),
(309,-24,o),
(613,-24,cs)
);
}
);
width = 1170;
},
{
anchors = (
{
name = bottom;
pos = (562,0);
},
{
name = cedilla;
pos = (562,0);
},
{
name = center;
pos = (562,528);
},
{
name = top;
pos = (562,1056);
},
{
name = topr;
pos = (1007,712);
}
);
background = {
shapes = (
{
ref = o;
}
);
};
layerId = m007;
metricRight = "=o-8";
shapes = (
{
closed = 1;
nodes = (
(800,-24,o),
(978,136,o),
(1007,344,c),
(832,344,l),
(799,215,o),
(720,130,o),
(562,130,cs),
(362,130,o),
(244,286,o),
(244,526,cs),
(244,768,o),
(363,926,o),
(562,926,cs),
(718,926,o),
(810,836,o),
(835,712,c),
(1007,712,l),
(978,925,o),
(802,1080,o),
(562,1080,cs),
(269,1080,o),
(72,850,o),
(72,526,cs),
(72,204,o),
(269,-24,o),
(562,-24,cs)
);
}
);
width = 1071;
},
{
anchors = (
{
name = cedilla;
pos = (566,0);
},
{
name = top;
pos = (566,1262);
}
);
associatedMasterId = m007;
background = {
shapes = (
{
ref = o;
}
);
};
guides = (
{
angle = 90;
pos = (566,1154);
}
);
layerId = "3D4284C5-230F-41B8-9029-5317DAB2DA4C";
metricRight = "=o-4";
name = "Jun 8, 22, 16:45";
shapes = (
{
closed = 1;
nodes = (
(831,352,l),
(797,215,o),
(708,130,o),
(562,130,cs),
(362,130,o),
(244,286,o),
(244,526,cs),
(244,768,o),
(363,926,o),
(562,926,cs),
(704,926,o),
(800,827,o),
(827,712,c),
(1004,712,l),
(978,913,o),
(809,1080,o),
(562,1080,cs),
(269,1080,o),
(72,850,o),
(72,526,cs),
(72,204,o),
(269,-24,o),
(562,-24,cs),
(799,-24,o),
(971,118,o),
(1007,352,c)
);
}
);
width = 1090;
},
{
anchors = (
{
name = cedilla;
pos = (544,0);
},
{
name = top;
pos = (542,1262);
}
);
associatedMasterId = m007;
background = {
shapes = (
{
ref = o;
}
);
};
guides = (
{
angle = 90;
pos = (532,1472);
}
);
layerId = "4CDFC08C-B125-45A8-80B0-C8B6C51FBC7B";
name = "Jun 2, 22, 18:17";
shapes = (
{
closed = 1;
nodes = (
(814,-16,o),
(962,171,o),
(976,352,c),
(796,352,l),
(794,233,o),
(682,138,o),
(542,138,cs),
(361,138,o),
(234,298,o),
(234,526,cs),
(234,757,o),
(357,920,o),
(540,920,cs),
(702,920,o),
(785,810,o),
(804,704,c),
(976,704,l),
(966,863,o),
(817,1072,o),
(540,1072,cs),
(259,1072,o),
(64,846,o),
(64,526,cs),
(64,210,o),
(263,-16,o),
(544,-16,cs)
);
}
);
width = 1038;
},
{
anchors = (
{
name = bottom;
pos = (640,0);
},
{
name = cedilla;
pos = (640,0);
},
{
name = center;
pos = (640,559);
},
{
name = top;
pos = (640,1118);
},
{
name = topr;
pos = (1175,707);
}
);
background = {
shapes = (
{
ref = o;
}
);
};
layerId = "5C20EF92-B63D-42A8-8878-93C2863E0093";
shapes = (
{
closed = 1;
nodes = (
(950,-20,o),
(1148,146,o),
(1175,412,c),
(806,466,l),
(789,345,o),
(734,280,o),
(646,280,cs),
(540,280,o),
(472,375,o),
(472,558,cs),
(472,742,o),
(540,832,o),
(646,832,cs),
(735,832,o),
(787,769,o),
(806,652,c),
(1175,707,l),
(1149,966,o),
(948,1132,o),
(640,1132,cs),
(276,1132,o),
(62,899,o),
(62,556,cs),
(62,212,o),
(276,-20,o),
(640,-20,cs)
);
}
);
width = 1235;
},
{
anchors = (
{
name = bottom_dd;
pos = (1170,-408);
},
{
name = cedilla;
pos = (610,0);
},
{
name = marktop;
pos = (610,1286);
},
{
name = top;
pos = (610,1286);
},
{
name = top0315;
pos = (1160,1292);
},
{
name = top_dd;
pos = (1170,1600);
}
);
associatedMasterId = "5C20EF92-B63D-42A8-8878-93C2863E0093";
background = {
shapes = (
{
pos = (8,0);
ref = o;
}
);
};
guides = (
{
pos = (1100,896);
},
{
angle = 90;
pos = (840,744);
},
{
pos = (1100,768);
},
{
pos = (1100,640);
}
);
layerId = "2B3DB753-D8C7-4815-88D6-30EE8E924DF3";
name = "Oct 6 18, 11:04";
shapes = (
{
closed = 1;
nodes = (
(934,-20,o),
(1139,172,o),
(1140,466,c),
(782,466,l),
(772,353,o),
(719,294,o),
(626,294,cs),
(521,294,o),
(454,393,o),
(454,558,cs),
(454,724,o),
(521,823,o),
(626,824,cs),
(719,823,o),
(772,764,o),
(782,652,c),
(1140,652,l),
(1140,943,o),
(931,1132,o),
(616,1132,cs),
(271,1132,o),
(67,902,o),
(66,556,cs),
(67,209,o),
(271,-20,o),
(616,-20,cs)
);
}
);
width = 1204;
},
{
anchors = (
{
name = bottom;
pos = (610,0);
},
{
name = cedilla;
pos = (610,0);
},
{
name = center;
pos = (618,528);
},
{
name = top;
pos = (610,1056);
},
{
name = topr;
pos = (1150,618);
}
);
background = {
shapes = (
{
ref = o;
}
);
};
layerId = m009;
metricRight = "=o-2";
name = "Black Display";
shapes = (
{
closed = 1;
nodes = (
(928,-24,o),
(1150,168,o),
(1150,442,c),
(768,442,l),
(761,346,o),
(703,286,o),
(618,286,cs),
(513,286,o),
(450,377,o),
(450,528,cs),
(450,680,o),
(512,770,o),
(618,770,cs),
(703,770,o),
(761,712,o),
(768,618,c),
(1150,618,l),
(1140,892,o),
(920,1080,o),
(610,1080,cs),
(272,1080,o),
(46,858,o),
(46,528,cs),
(46,197,o),
(271,-24,o),
(610,-24,cs)
);
}
);
width = 1194;
},
{
anchors = (
{
name = cedilla;
pos = (594,0);
},
{
name = top;
pos = (594,1262);
}
);
associatedMasterId = m009;
background = {
shapes = (
{
ref = o;
}
);
};
guides = (
{
angle = 90;
pos = (514,1088);
}
);
layerId = "C7622861-E4C8-4137-A9A7-083126D788D6";
metricRight = "=o+2";
name = "Jun 2, 22, 19:07";
shapes = (
{
closed = 1;
nodes = (
(907,-24,o),
(1092,162,o),
(1104,442,c),
(738,442,l),
(730,338,o),
(682,280,o),
(604,280,cs),
(505,280,o),
(450,369,o),
(450,528,cs),
(450,687,o),
(505,776,o),
(604,776,cs),
(682,776,o),
(730,720,o),
(738,618,c),
(1104,618,l),
(1094,893,o),
(904,1080,o),
(594,1080,cs),
(250,1080,o),
(46,851,o),
(46,528,cs),
(46,203,o),
(250,-24,o),
(594,-24,cs)
);
}
);
width = 1152;
},
{
anchors = (
{
name = cedilla;
pos = (610,0);
},
{
name = top;
pos = (610,1262);
}
);
associatedMasterId = m009;
background = {
shapes = (
{
ref = o;
}
);
};
guides = (
{
angle = 90;
pos = (610,1088);
}
);
layerId = "85212A8E-4DDF-494B-97E9-2715FD124324";
metricRight = "=o+2";
name = "May 30, 22, 17:28";
shapes = (
{
closed = 1;
nodes = (
(923,-17,o),
(1114,162,o),
(1118,442,c),
(762,442,l),
(746,343,o),
(693,288,o),
(616,288,cs),
(520,288,o),
(466,374,o),
(466,528,cs),
(466,682,o),
(520,768,o),
(616,768,cs),
(693,768,o),
(746,714,o),
(762,618,c),
(1118,618,l),
(1116,893,o),
(920,1071,o),
(610,1072,cs),
(266,1071,o),
(62,851,o),
(62,528,cs),
(62,203,o),
(266,-17,o),
(610,-16,cs)
);
}
);
width = 1182;
},
{
anchors = (
{
name = cedilla;
pos = (594,0);
},
{
name = top;
pos = (594,1262);
}
);
associatedMasterId = m009;
background = {
shapes = (
{
ref = o;
}
);
};
guides = (
{
angle = 90;
pos = (514,1088);
}
);
layerId = "97FFD256-F847-4C73-B17C-F59FD43D9CFB";
metricRight = "=o+2";
name = "May 31, 22, 09:03";
shapes = (
{
closed = 1;
nodes = (
(907,-17,o),
(1092,162,o),
(1104,442,c),
(738,442,l),
(730,343,o),
(681,288,o),
(604,288,cs),
(507,288,o),
(450,376,o),
(450,528,cs),
(450,680,o),
(507,768,o),
(604,768,cs),
(680,768,o),
(730,714,o),
(738,618,c),
(1104,618,l),
(1094,893,o),
(904,1071,o),
(594,1072,cs),
(250,1071,o),
(46,851,o),
(46,528,cs),
(46,203,o),
(250,-17,o),
(594,-16,cs)
);
}
);
width = 1152;
},
{
anchors = (
{
name = cedilla;
pos = (594,0);
},
{
name = top;
pos = (594,1262);
}
);
associatedMasterId = m009;
background = {
shapes = (
{
ref = o;
}
);
};
guides = (
{
angle = 90;
pos = (514,1088);
}
);
layerId = "DE0310DE-AEB3-4AEF-AFC4-94470D5B08F9";
metricRight = "=o-2";
name = "Jul 8, 22, 17:57";
shapes = (
{
closed = 1;
nodes = (
(907,-24,o),
(1118,162,o),
(1118,442,c),
(736,442,l),
(728,338,o),
(680,286,o),
(602,286,cs),
(503,286,o),
(450,369,o),
(450,528,cs),
(450,687,o),
(503,770,o),
(602,770,cs),
(680,770,o),
(728,720,o),
(736,618,c),
(1118,618,l),
(1108,893,o),
(904,1080,o),
(594,1080,cs),
(250,1080,o),
(46,851,o),
(46,528,cs),
(46,203,o),
(250,-24,o),
(594,-24,cs)
);
}
);
width = 1162;
},
{
anchors = (
{
name = cedilla;
pos = (524,0);
},
{
name = center;
pos = (536,555);
},
{
name = top;
pos = (524,1304);
},
{
name = topr;
pos = (934,792);
}
);
associatedMasterId = m011;
background = {
shapes = (
{
ref = o;
},
{
closed = 1;
nodes = (
(768,-24,o),
(946,136,o),
(975,344,c),
(800,344,l),
(767,215,o),
(688,130,o),
(530,130,cs),
(330,130,o),
(212,286,o),
(212,526,cs),
(212,768,o),
(331,926,o),
(530,926,cs),
(686,926,o),
(778,836,o),
(803,712,c),
(975,712,l),
(946,925,o),
(770,1080,o),
(530,1080,cs),
(237,1080,o),
(40,850,o),
(40,526,cs),
(40,204,o),
(237,-24,o),
(530,-24,cs)
);
}
);
};
guides = (
{
angle = 90;
pos = (680,1616);
}
);
layerId = "61348D26-F952-40AE-AA9A-23D7E2F6785B";
metricRight = "=o-4";
name = "Apr 6, 23, 17:24";
shapes = (
{
closed = 1;
nodes = (
(739,-24,o),
(904,115,o),
(936,326,c),
(888,326,l),
(860,143,o),
(713,22,o),
(536,22,cs),
(287,22,o),
(112,258,o),
(112,556,cs),
(112,861,o),
(295,1088,o),
(536,1088,cs),
(711,1088,o),
(860,961,o),
(888,792,c),
(934,792,l),
(900,995,o),
(735,1134,o),
(536,1134,cs),
(263,1134,o),
(66,883,o),
(66,556,cs),
(66,225,o),
(264,-24,o),
(536,-24,cs)
);
}
);
width = 998;
},
{
anchors = (
{
name = cedilla;
pos = (642,0);
},
{
name = center;
pos = (640,559);
},
{
name = top;
pos = (642,1118);
},
{
name = topr;
pos = (1178,652);
}
);
associatedMasterId = "5C20EF92-B63D-42A8-8878-93C2863E0093";
background = {
shapes = (
{
ref = o;
}
);
};
layerId = "4E985152-8197-4B49-9445-1932F03A4ECC";
metricRight = "=o-2";
name = "May 6, 23, 17:06";
shapes = (
{
closed = 1;
nodes = (
(971,-20,o),
(1174,169,o),
(1178,466,c),
(806,466,l),
(797,348,o),
(734,280,o),
(646,280,cs),
(540,280,o),
(472,375,o),
(472,558,cs),
(472,742,o),
(540,832,o),
(646,832,cs),
(735,832,o),
(795,769,o),
(806,652,c),
(1178,652,l),
(1176,943,o),
(969,1132,o),
(640,1132,cs),
(276,1132,o),
(62,899,o),
(62,556,cs),
(62,212,o),
(276,-20,o),
(640,-20,cs)
);
}
);
width = 1238;
},
{
anchors = (
{
name = cedilla;
pos = (606,0);
},
{
name = center;
pos = (610,559);
},
{
name = top;
pos = (606,1118);
},
{
name = topr;
pos = (1050,782);
}
);
associatedMasterId = "C698F293-3EC0-4A5A-A3A0-0FDB1F5CF265";
background = {
shapes = (
{
ref = o;
}
);
};
guides = (
{
angle = 90;
pos = (832,1472);
}
);
layerId = "27C82902-A17F-413B-B6B0-A8127A652AA9";
metricRight = "=o-4";
name = "May 6, 23, 17:09";
shapes = (
{
closed = 1;
nodes = (
(858,-24,o),
(1021,128,o),
(1050,326,c),
(878,326,l),
(847,204,o),
(745,130,o),
(610,130,cs),
(407,130,o),
(276,300,o),
(276,558,cs),
(276,812,o),
(410,978,o),
(610,978,cs),
(762,978,o),
(852,884,o),
(878,782,c),
(1050,782,l),
(1021,992,o),
(844,1132,o),
(608,1132,cs),
(305,1132,o),
(104,893,o),
(104,552,cs),
(104,218,o),
(297,-24,o),
(610,-24,cs)
);
}
);
width = 1150;
},
{
anchors = (
{
name = cedilla;
pos = (588,0);
},
{
name = center;
pos = (600,559);
},
{
name = top;
pos = (588,1118);
},
{
name = topr;
pos = (998,792);
}
);
associatedMasterId = "B1F27B51-9973-4381-9301-4FE46FE1CA59";
guides = (
{
angle = 90;
pos = (808,1616);
}
);
layerId = "6941CAFA-F6D2-41C7-8368-162A7D66CDE9";
metricRight = "=o-4";
name = "May 6, 23, 17:19";
shapes = (
{
closed = 1;
nodes = (
(803,-24,o),
(968,115,o),
(1000,326,c),
(952,326,l),
(924,143,o),
(777,22,o),
(600,22,cs),
(351,22,o),
(176,258,o),
(176,556,cs),
(176,861,o),
(359,1088,o),
(600,1088,cs),
(775,1088,o),
(924,961,o),
(952,792,c),
(998,792,l),
(964,995,o),
(799,1134,o),
(600,1134,cs),
(327,1134,o),
(130,883,o),
(130,556,cs),
(130,225,o),
(328,-24,o),
(600,-24,cs)
);
}
);
width = 1126;
},
{
anchors = (
{
name = cedilla;
pos = (588,0);
},
{
name = center;
pos = (600,559);
},
{
name = top;
pos = (588,1118);
},
{
name = topr;
pos = (998,792);
}
);
associatedMasterId = "B1F27B51-9973-4381-9301-4FE46FE1CA59";
guides = (
{
angle = 90;
pos = (808,1616);
},
{
angle = 34.3803;
pos = (985,907);
},
{
angle = -34.3803;
pos = (985,211);
}
);
layerId = "722A5DDC-A26F-4986-920F-502C33F46A44";
metricRight = "=o-4";
name = "May 6, 23, 17:23";
shapes = (
{
attr = {
strokePos = 1;
strokeWidth = 46;
};
closed = 0;
nodes = (
(970,899,l),
(959,918,o),
(844,1134,o),
(594,1134,cs),
(330,1134,o),
(130,888,o),
(130,559,cs),
(130,229,o),
(330,-16,o),
(594,-16,cs),
(844,-16,o),
(965,202,o),
(975,220,c)
);
}
);
width = 1126;
}
);
metricLeft = o;
unicode = 99;
userData = {
com.typemytype.robofont.guideline.magnetic.woLfa0Gzpt = 5;
"interface.width-adjustments" = (
-16
);
};
}
{
glyphname = d;
kernLeft = o;
kernRight = H;
layers = (
{
anchors = (
{
name = bottomr;
pos = (1088,0);
},
{
name = raccent;
pos = (1232,1490);
}
);
layerId = "C698F293-3EC0-4A5A-A3A0-0FDB1F5CF265";
shapes = (
{
pos = (1254,0);
ref = b;
scale = (-1,1);
}
);
width = 1254;
},
{
anchors = (
{
name = bottomr;
pos = (1220,0);
},
{
name = raccent;
pos = (1338,1490);
}
);
layerId = "5C20EF92-B63D-42A8-8878-93C2863E0093";
shapes = (
{
pos = (1322,0);
ref = b;
scale = (-1,1);
}
);
width = 1322;
},
{
anchors = (
{
name = bottomr;
pos = (992,0);
},
{
name = raccent;
pos = (1122,1490);
}
);
layerId = "B1F27B51-9973-4381-9301-4FE46FE1CA59";
shapes = (
{
pos = (1190,0);
ref = b;
scale = (-1,1);
}
);
width = 1190;
},
{
anchors = (
{
name = bottomr;
pos = (1032,0);
},
{
name = raccent;
pos = (1176,1490);
}
);
layerId = m007;
shapes = (
{
pos = (1158,0);
ref = b;
scale = (-1,1);
}
);
width = 1158;
},
{
anchors = (
{
name = bottomr;
pos = (1194,0);
},
{
name = raccent;
pos = (1312,1490);
}
);
layerId = m009;
name = "Black Display";
shapes = (
{
pos = (1280,0);
ref = b;
scale = (-1,1);
}
);
width = 1280;
},
{
anchors = (
{
name = bottom;
pos = (592,0);
},
{
name = cross;
pos = (872,1280);
},
{
name = raccent;
pos = (1274,1490);
},
{
name = top;
pos = (478,1490);
}
);
associatedMasterId = m009;
background = {
shapes = (
{
closed = 1;
nodes = (
(611,-15,o),
(719,70,o),
(766,184,c),
(774,184,l),
(774,0,l),
(1172,0,l),
(1172,1490,l),
(772,1490,l),
(772,922,l),
(766,922,l),
(722,1036,o),
(617,1132,o),
(452,1132,cs),
(230,1132,o),
(15,963,o),
(14,558,c),
(15,172,o),
(216,-15,o),
(454,-14,cs)
);
},
{
closed = 1;
nodes = (
(492,294,o),
(428,393,o),
(428,558,cs),
(428,724,o),
(492,823,o),
(602,824,cs),
(713,823,o),
(780,724,o),
(780,558,c),
(780,396,o),
(713,294,o),
(602,294,cs)
);
}
);
};
layerId = "AAF900D9-8F2E-4941-B7BB-0F303D6DC803";
name = "May 31, 22, 09:14";
shapes = (
{
closed = 1;
nodes = (
(597,-24,o),
(702,47,o),
(754,172,c),
(758,172,l),
(758,0,l),
(1156,0,l),
(1156,1490,l),
(754,1490,l),
(754,876,l),
(752,876,l),
(703,1006,o),
(596,1080,o),
(458,1080,cs),
(214,1080,o),
(46,855,o),
(46,530,cs),
(46,203,o),
(216,-24,o),
(462,-24,cs)
);
},
{
closed = 1;
nodes = (
(506,290,o),
(450,376,o),
(450,530,cs),
(450,683,o),
(506,768,o),
(608,768,cs),
(711,768,o),
(768,683,o),
(768,530,cs),
(768,376,o),
(711,290,o),
(608,290,cs)
);
}
);
width = 1242;
},
{
anchors = (
{
name = bottomr;
pos = (984,0);
},
{
name = raccent;
pos = (1092,1490);
}
);
layerId = m011;
shapes = (
{
pos = (1118,0);
ref = b;
scale = (-1,1);
}
);
width = 1118;
}
);
metricLeft = o;
metricRight = "=|n";
note = "mirror of b";
unicode = 100;
userData = {
"interface.width-adjustments" = (
-16
);
};
}
{
glyphname = e;
kernLeft = o;
kernRight = o;
layers = (
{
anchors = (
{
name = bottom;
pos = (590,0);
},
{
name = cedilla;
pos = (594,0);
},
{
name = ogonek;
pos = (1004,198);
},
{
name = top;
pos = (590,1118);
}
);
background = {
shapes = (
{
ref = o;
}
);
};
layerId = "B1F27B51-9973-4381-9301-4FE46FE1CA59";
metricRight = "=o-8";
shapes = (
{
closed = 1;
nodes = (
(834,-24,o),
(954,113,o),
(1004,198,c),
(966,224,l),
(925,157,o),
(823,22,o),
(616,22,cs),
(335,22,o),
(176,268,o),
(176,562,cs),
(176,568,ls),
(176,864,o),
(364,1088,o),
(594,1088,cs),
(831,1088,o),
(1005,864,o),
(1005,584,c),
(1025,604,l),
(154,604,l),
(154,558,l),
(1050,558,l),
(1050,584,ls),
(1050,898,o),
(855,1134,o),
(594,1134,cs),
(329,1134,o),
(130,884,o),
(130,556,cs),
(130,227,o),
(324,-24,o),
(616,-24,cs)
);
}
);
width = 1172;
},
{
anchors = (
{
name = bottom;
pos = (526,0);
},
{
name = cedilla;
pos = (530,0);
},
{
name = ogonek;
pos = (968,316);
},
{
name = top;
pos = (526,1056);
}
);
background = {
shapes = (
{
ref = o;
},
{
closed = 1;
nodes = (
(769,-24,o),
(949,114,o),
(989,316,c),
(819,316,l),
(787,206,o),
(689,130,o),
(539,130,cs),
(332,130,o),
(217,283,o),
(217,502,cs),
(217,574,ls),
(217,789,o),
(339,928,o),
(527,928,cs),
(716,928,o),
(839,789,o),
(839,574,c),
(912,625,l),
(139,625,l),
(139,479,l),
(1007,479,l),
(1007,526,ls),
(1007,854,o),
(821,1080,o),
(527,1080,cs),
(247,1080,o),
(49,847,o),
(49,526,cs),
(49,208,o),
(229,-24,o),
(539,-24,cs)
);
}
);
};
layerId = m011;
metricRight = "=o-4";
shapes = (
{
closed = 1;
nodes = (
(736,-16,o),
(919,115,o),
(968,316,c),
(920,316,l),
(874,141,o),
(709,30,o),
(530,30,cs),
(285,30,o),
(112,236,o),
(112,528,cs),
(112,530,ls),
(112,821,o),
(286,1026,o),
(530,1026,cs),
(763,1026,o),
(939,834,o),
(939,566,c),
(956,574,l),
(90,574,l),
(90,528,l),
(986,528,l),
(986,552,ls),
(986,847,o),
(801,1072,o),
(530,1072,cs),
(257,1072,o),
(66,843,o),
(66,528,cs),
(66,213,o),
(257,-16,o),
(530,-16,cs)
);
}
);
width = 1048;
},
{
anchors = (
{
name = bottom;
pos = (603,0);
},
{
name = cedilla;
pos = (605,0);
},
{
name = ogonek;
pos = (1076,260);
},
{
name = top;
pos = (603,1118);
}
);
background = {
shapes = (
{
ref = o;
}
);
};
guides = (
{
orientation = center;
angle = 90;
pos = (832,1764);
}
);
layerId = "C698F293-3EC0-4A5A-A3A0-0FDB1F5CF265";
metricRight = "=o-4";
shapes = (
{
closed = 1;
nodes = (
(857,-24,o),
(1024,91,o),
(1076,260,c),
(902,308,l),
(860,194,o),
(761,136,o),
(629,136,cs),
(424,136,o),
(286,273,o),
(286,522,cs),
(286,623,ls),
(286,805,o),
(405,972,o),
(607,972,cs),
(809,972,o),
(913,814,o),
(913,594,c),
(997,650,l),
(226,650,l),
(226,498,l),
(1094,498,l),
(1094,573,ls),
(1094,986,o),
(844,1132,o),
(607,1132,cs),
(302,1132,o),
(104,893,o),
(104,550,cs),
(104,206,o),
(304,-24,o),
(628,-24,cs)
);
}
);
width = 1194;
},
{
anchors = (
{
name = bottom;
pos = (550,0);
},
{
name = cedilla;
pos = (556,0);
},
{
name = ogonek;
pos = (1012,316);
},
{
name = top;
pos = (550,1056);
}
);
background = {
shapes = (
{
pos = (-12,0);
ref = o;
}
);
};
guides = (
{
orientation = center;
angle = 90;
pos = (-7932,1764);
},
{
angle = 90;
pos = (550,1152);
}
);
layerId = m007;
metricRight = "=o-4";
shapes = (
{
closed = 1;
nodes = (
(792,-24,o),
(972,114,o),
(1012,316,c),
(842,316,l),
(810,206,o),
(712,130,o),
(562,130,cs),
(355,130,o),
(240,283,o),
(240,502,cs),
(240,574,ls),
(240,789,o),
(362,928,o),
(550,928,cs),
(739,928,o),
(862,789,o),
(862,574,c),
(935,625,l),
(162,625,l),
(162,479,l),
(1030,479,l),
(1030,526,ls),
(1030,854,o),
(844,1080,o),
(550,1080,cs),
(270,1080,o),
(72,847,o),
(72,526,cs),
(72,208,o),
(252,-24,o),
(562,-24,cs)
);
}
);
width = 1098;
},
{
anchors = (
{
name = bottom;
pos = (570,0);
},
{
name = cedilla;
pos = (576,0);
},
{
name = ogonek;
pos = (704,0);
},
{
name = top;
pos = (570,1262);
}
);
associatedMasterId = m007;
background = {
shapes = (
{
ref = o;
}
);
};
guides = (
{
orientation = center;
angle = 90;
pos = (-6782,1764);
},
{
angle = 90;
pos = (570,1152);
}
);
layerId = "C877168B-0CF9-4C1D-B4CD-56C06E956862";
metricRight = "=o-4";
name = "Jun 8, 22, 16:03";
shapes = (
{
closed = 1;
nodes = (
(812,-24,o),
(1004,118,o),
(1044,320,c),
(874,320,l),
(842,210,o),
(724,130,o),
(582,130,cs),
(383,130,o),
(252,287,o),
(252,526,cs),
(252,542,ls),
(252,768,o),
(384,928,o),
(570,928,cs),
(736,928,o),
(880,800,o),
(886,624,c),
(170,624,l),
(170,480,l),
(1062,480,l),
(1062,526,ls),
(1062,854,o),
(864,1080,o),
(570,1080,cs),
(290,1080,o),
(80,847,o),
(80,526,cs),
(80,208,o),
(288,-24,o),
(582,-24,cs)
);
}
);
width = 1138;
},
{
anchors = (
{
name = bottom;
pos = (554,0);
},
{
name = cedilla;
pos = (560,0);
},
{
name = ogonek;
pos = (688,0);
},
{
name = top;
pos = (554,1262);
}
);
associatedMasterId = m007;
background = {
shapes = (
{
ref = o;
}
);
};
guides = (
{
orientation = center;
angle = 90;
pos = (-6245,1764);
},
{
angle = 90;
pos = (554,1152);
}
);
layerId = "8E489F8D-F2F6-40DC-A7ED-F156899F1198";
name = "Jun 2, 22, 18:32";
shapes = (
{
closed = 1;
nodes = (
(792,-24,o),
(988,118,o),
(1028,320,c),
(858,320,l),
(826,210,o),
(697,130,o),
(566,130,cs),
(372,130,o),
(240,296,o),
(240,486,cs),
(240,596,ls),
(240,761,o),
(365,928,o),
(556,928,cs),
(722,928,o),
(864,800,o),
(870,624,c),
(154,624,l),
(154,480,l),
(1044,480,l),
(1044,526,ls),
(1044,846,o),
(848,1080,o),
(554,1080,cs),
(262,1080,o),
(64,846,o),
(64,526,cs),
(64,208,o),
(272,-24,o),
(566,-24,cs)
);
}
);
width = 1076;
},
{
anchors = (
{
name = bottom;
pos = (622,0);
},
{
name = cedilla;
pos = (628,0);
},
{
name = ogonek;
pos = (1168,307);
},
{
name = top;
pos = (622,1118);
}
);
background = {
shapes = (
{
closed = 0;
nodes = (
(1186,306,l),
(814,360,l)
);
}
);
};
layerId = "5C20EF92-B63D-42A8-8878-93C2863E0093";
metricRight = "=o-4";
shapes = (
{
closed = 1;
nodes = (
(923,-20,o),
(1111,106,o),
(1168,307,c),
(814,359,l),
(790,297,o),
(728,262,o),
(646,262,cs),
(531,262,o),
(456,332,o),
(456,480,cs),
(456,640,ls),
(456,775,o),
(516,850,o),
(632,850,cs),
(748,850,o),
(808,775,o),
(808,640,c),
(996,686,l),
(186,686,l),
(186,466,l),
(1184,466,l),
(1184,558,ls),
(1184,914,o),
(966,1132,o),
(628,1132,cs),
(282,1132,o),
(62,902,o),
(62,556,cs),
(62,194,o),
(279,-20,o),
(638,-20,cs)
);
}
);
width = 1242;
},
{
anchors = (
{
name = bottom;
pos = (599,0);
},
{
name = cedilla;
pos = (608,0);
},
{
name = ogonek;
pos = (1148,345);
},
{
name = top;
pos = (599,1056);
}
);
background = {
shapes = (
{
ref = o;
}
);
};
guides = (
{
orientation = center;
angle = 90;
pos = (-3031,1104);
},
{
angle = 90;
pos = (599,1336);
}
);
layerId = m009;
metricRight = "=o-4";
shapes = (
{
closed = 1;
nodes = (
(885,-24,o),
(1109,129,o),
(1148,345,c),
(794,345,l),
(772,288,o),
(708,254,o),
(623,254,cs),
(504,254,o),
(434,323,o),
(434,440,cs),
(434,617,ls),
(434,728,o),
(499,794,o),
(610,794,cs),
(721,794,o),
(786,728,o),
(786,617,c),
(970,656,l),
(164,656,l),
(164,432,l),
(1152,432,l),
(1152,539,ls),
(1152,856,o),
(923,1080,o),
(599,1080,cs),
(275,1080,o),
(46,851,o),
(46,528,cs),
(46,205,o),
(278,-24,o),
(607,-24,cs)
);
}
);
width = 1194;
},
{
anchors = (
{
name = bottom;
pos = (594,0);
},
{
name = cedilla;
pos = (600,0);
},
{
name = ogonek;
pos = (930,50);
},
{
name = top;
pos = (595,1262);
}
);
associatedMasterId = m009;
background = {
shapes = (
{
ref = o;
}
);
};
guides = (
{
orientation = center;
angle = 90;
pos = (197,1004);
},
{
pos = (704,768);
},
{
angle = 90;
pos = (595,1184);
}
);
layerId = "4FC6A5E9-1968-40EB-941C-107121AAD240";
name = "May 30, 22, 17:14";
shapes = (
{
closed = 1;
nodes = (
(900,-17,o),
(1088,124,o),
(1124,342,c),
(778,342,l),
(756,283,o),
(692,250,o),
(614,248,cs),
(502,250,o),
(436,323,o),
(438,424,c),
(438,650,l),
(439,742,o),
(515,805,o),
(608,806,cs),
(701,805,o),
(777,741,o),
(780,650,c),
(180,650,l),
(180,442,l),
(1128,442,l),
(1128,530,ls),
(1128,865,o),
(918,1071,o),
(600,1072,cs),
(272,1071,o),
(62,854,o),
(62,528,c),
(62,186,o),
(269,-17,o),
(608,-16,c)
);
}
);
width = 1190;
},
{
anchors = (
{
name = bottom;
pos = (594,0);
},
{
name = cedilla;
pos = (600,0);
},
{
name = ogonek;
pos = (930,50);
},
{
name = top;
pos = (595,1262);
}
);
associatedMasterId = m009;
background = {
shapes = (
{
ref = o;
}
);
};
guides = (
{
orientation = center;
angle = 90;
pos = (197,1004);
},
{
pos = (704,768);
},
{
angle = 90;
pos = (595,1184);
},
{
pos = (249,345);
}
);
layerId = "E4DEEB7A-3ACB-4E31-B214-E07A2F84B13C";
name = "May 30, 22, 17:41";
shapes = (
{
closed = 1;
nodes = (
(900,-17,o),
(1088,127,o),
(1124,345,c),
(770,345,l),
(751,297,o),
(691,266,o),
(616,266,cs),
(515,266,o),
(450,331,o),
(450,431,cs),
(450,639,ls),
(450,725,o),
(519,790,o),
(608,790,cs),
(698,790,o),
(769,725,o),
(772,639,c),
(180,639,l),
(180,431,l),
(1128,431,l),
(1128,530,ls),
(1128,865,o),
(918,1071,o),
(600,1072,cs),
(272,1071,o),
(62,854,o),
(62,528,c),
(62,186,o),
(269,-17,o),
(608,-16,c)
);
}
);
width = 1190;
},
{
anchors = (
{
name = bottom;
pos = (622,0);
},
{
name = cedilla;
pos = (628,0);
},
{
name = ogonek;
pos = (958,50);
},
{
name = top;
pos = (622,1304);
}
);
associatedMasterId = "5C20EF92-B63D-42A8-8878-93C2863E0093";
background = {
shapes = (
{
pos = (-8,0);
ref = o;
}
);
};
guides = (
{
orientation = center;
angle = 90;
pos = (848,1004);
},
{
pos = (732,768);
}
);
layerId = "E78FF493-EDB1-4122-B6DD-1B8728C10E2E";
metricRight = "=o-4";
name = "Jun 8, 22, 16:23";
shapes = (
{
closed = 1;
nodes = (
(947,-20,o),
(1146,128,o),
(1184,360,c),
(818,360,l),
(794,297,o),
(728,262,o),
(646,262,cs),
(527,262,o),
(456,340,o),
(456,448,cs),
(456,686,l),
(459,783,o),
(539,850,o),
(638,850,cs),
(782,850,o),
(816,718,o),
(816,608,c),
(996,686,l),
(186,686,l),
(186,466,l),
(1184,466,l),
(1184,558,ls),
(1184,914,o),
(966,1132,o),
(628,1132,cs),
(282,1132,o),
(62,902,o),
(62,556,cs),
(62,194,o),
(279,-20,o),
(638,-20,cs)
);
}
);
width = 1242;
},
{
anchors = (
{
name = bottom;
pos = (583,0);
},
{
name = cedilla;
pos = (588,0);
},
{
name = ogonek;
pos = (888,50);
},
{
name = top;
pos = (583,1262);
}
);
associatedMasterId = m009;
background = {
shapes = (
{
ref = o;
}
);
};
guides = (
{
orientation = center;
angle = 90;
pos = (-3031,1104);
}
);
layerId = "DEEA5A72-1F34-41ED-A999-807C437D0F7F";
metricRight = "=o-4";
name = "Jul 8, 22, 18:01";
shapes = (
{
closed = 1;
nodes = (
(898,-24,o),
(1078,135,o),
(1116,345,c),
(762,345,l),
(740,289,o),
(681,254,o),
(604,254,cs),
(497,254,o),
(434,329,o),
(434,440,cs),
(434,617,ls),
(434,739,o),
(491,802,o),
(594,802,cs),
(697,802,o),
(754,739,o),
(754,617,c),
(938,656,l),
(164,656,l),
(164,432,l),
(1120,432,l),
(1120,539,ls),
(1120,869,o),
(904,1080,o),
(583,1080,cs),
(256,1080,o),
(46,858,o),
(46,528,cs),
(46,194,o),
(254,-24,o),
(591,-24,cs)
);
}
);
width = 1162;
},
{
anchors = (
{
name = bottom;
pos = (583,0);
},
{
name = cedilla;
pos = (588,0);
},
{
name = ogonek;
pos = (888,50);
},
{
name = top;
pos = (583,1262);
}
);
associatedMasterId = m009;
background = {
shapes = (
{
ref = o;
}
);
};
guides = (
{
orientation = center;
angle = 90;
pos = (-3031,1104);
}
);
layerId = "A118B990-3C97-48E5-9205-9B7CECAE1895";
metricRight = "=o-4";
name = "Jul 8, 22, 18:03";
shapes = (
{
closed = 1;
nodes = (
(885,-24,o),
(1109,129,o),
(1148,345,c),
(794,345,l),
(772,288,o),
(708,254,o),
(623,254,cs),
(504,254,o),
(434,323,o),
(434,440,cs),
(434,617,ls),
(434,733,o),
(499,802,o),
(610,802,cs),
(721,802,o),
(786,733,o),
(786,617,c),
(970,656,l),
(164,656,l),
(164,432,l),
(1152,432,l),
(1152,539,ls),
(1152,856,o),
(923,1080,o),
(599,1080,cs),
(275,1080,o),
(46,851,o),
(46,528,cs),
(46,205,o),
(278,-24,o),
(607,-24,cs)
);
}
);
width = 1194;
},
{
anchors = (
{
name = bottom;
pos = (526,0);
},
{
name = cedilla;
pos = (530,0);
},
{
name = ogonek;
pos = (1006,198);
},
{
name = top;
pos = (526,1262);
}
);
associatedMasterId = m011;
background = {
shapes = (
{
ref = o;
}
);
};
layerId = "5AF403E7-33C5-406C-80BE-A30561BF5381";
metricRight = "=o-4";
name = "Apr 6, 23, 10:32";
shapes = (
{
closed = 1;
nodes = (
(770,-16,o),
(929,119,o),
(973,316,c),
(927,316,l),
(886,153,o),
(759,30,o),
(552,30,cs),
(271,30,o),
(112,240,o),
(112,534,cs),
(112,540,ls),
(112,836,o),
(300,1026,o),
(530,1026,cs),
(767,1026,o),
(941,834,o),
(941,554,c),
(961,574,l),
(90,574,l),
(90,528,l),
(986,528,l),
(986,554,ls),
(986,868,o),
(791,1072,o),
(530,1072,cs),
(265,1072,o),
(66,856,o),
(66,528,cs),
(66,199,o),
(260,-16,o),
(552,-16,cs)
);
}
);
width = 1048;
},
{
anchors = (
{
name = bottom;
pos = (622,0);
},
{
name = cedilla;
pos = (628,0);
},
{
name = ogonek;
pos = (1180,360);
},
{
name = top;
pos = (622,1118);
}
);
associatedMasterId = "5C20EF92-B63D-42A8-8878-93C2863E0093";
background = {
shapes = (
{
ref = o;
}
);
};
layerId = "FE4CBA89-7B4F-4ED7-90A2-1E91423E5590";
metricRight = "=o-4";
name = "May 6, 23, 17:03";
shapes = (
{
closed = 1;
nodes = (
(947,-20,o),
(1142,128,o),
(1180,360,c),
(814,360,l),
(790,297,o),
(728,262,o),
(646,262,cs),
(531,262,o),
(456,332,o),
(456,480,cs),
(456,640,ls),
(456,775,o),
(516,850,o),
(632,850,cs),
(748,850,o),
(808,775,o),
(808,640,c),
(996,686,l),
(186,686,l),
(186,466,l),
(1184,466,l),
(1184,558,ls),
(1184,914,o),
(966,1132,o),
(628,1132,cs),
(282,1132,o),
(62,902,o),
(62,556,cs),
(62,194,o),
(279,-20,o),
(638,-20,cs)
);
}
);
width = 1242;
}
);
metricLeft = o;
metricRight = o;
unicode = 101;
userData = {
com.typemytype.robofont.guideline.magnetic.5XWlAkuiPv = 5;
"interface.width-adjustments" = (
-16
);
};
}
{
glyphname = f;
kernLeft = f;
kernRight = f;
layers = (
{
layerId = "B1F27B51-9973-4381-9301-4FE46FE1CA59";
shapes = (
{
pos = (-66,0);
ref = _part.f_base;
},
{
closed = 1;
nodes = (
(10,1118,l),
(10,1072,l),
(548,1072,l),
(548,1118,l)
);
}
);
width = 602;
},
{
anchors = (
{
name = bottom;
pos = (286,0);
},
{
name = top;
pos = (328,1678);
}
);
associatedMasterId = "B1F27B51-9973-4381-9301-4FE46FE1CA59";
background = {
shapes = (
{
closed = 1;
nodes = (
(296,0,l,{
name = hr00;
}),
(296,1268,ls),
(296,1415,o),
(359,1487,o),
(494,1486,cs),
(556,1487,o),
(577,1471,o),
(588,1470,c),
(632,1534,l),
(617,1543,o),
(598,1559,o),
(524,1560,cs),
(415,1559,o),
(263,1486,o),
(262,1344,cs),
(262,0,l)
);
},
{
closed = 1;
nodes = (
(679,1047,o),
(783,1151,o),
(782,1280,cs),
(783,1409,o),
(679,1513,o),
(550,1512,cs),
(421,1513,o),
(317,1409,o),
(318,1280,cs),
(317,1151,o),
(421,1047,o),
(550,1048,cs)
);
}
);
};
layerId = "EEC3B7B5-366D-4A2B-B0D1-EFDAE34EDF22";
name = "Nov 26 18, 09:09";
shapes = (
{
closed = 1;
nodes = (
(62,1118,l),
(62,1070,l),
(574,1070,l),
(574,1118,l)
);
},
{
closed = 0;
nodes = (
(632,1498,l),
(605,1507,o),
(579,1513,o),
(550,1512,cs),
(421,1513,o),
(317,1409,o),
(318,1280,cs),
(318,0,l)
);
}
);
width = 678;
},
{
layerId = "C698F293-3EC0-4A5A-A3A0-0FDB1F5CF265";
shapes = (
{
pos = (8,0);
ref = _part.f_base;
},
{
closed = 1;
nodes = (
(20,1118,l),
(20,964,l),
(678,964,l),
(678,1118,l)
);
}
);
width = 758;
},
{
layerId = m007;
shapes = (
{
pos = (3,0);
ref = _part.f_base;
},
{
closed = 1;
nodes = (
(15,1056,l),
(15,910,l),
(587,910,l),
(587,1056,l)
);
}
);
width = 627;
},
{
layerId = "5C20EF92-B63D-42A8-8878-93C2863E0093";
shapes = (
{
pos = (14,0);
ref = _part.f_base;
},
{
closed = 1;
nodes = (
(20,1118,l),
(20,826,l),
(811,826,l),
(811,1118,l)
);
}
);
width = 864;
},
{
layerId = m009;
metricRight = "=t";
name = "Black Display";
shapes = (
{
pos = (46,0);
ref = _part.f_base;
},
{
closed = 1;
nodes = (
(20,1056,l),
(20,752,l),
(832,752,l),
(832,1056,l)
);
}
);
width = 872;
},
{
layerId = m011;
shapes = (
{
pos = (-42,0);
ref = _part.f_base;
},
{
closed = 1;
nodes = (
(0,1056,l),
(0,1010,l),
(466,1010,l),
(466,1056,l)
);
}
);
width = 486;
},
{
anchors = (
{
name = bottom;
pos = (286,0);
},
{
name = top;
pos = (328,1678);
}
);
associatedMasterId = m011;
background = {
shapes = (
{
closed = 1;
nodes = (
(296,0,l,{
name = hr00;
}),
(296,1268,ls),
(296,1415,o),
(359,1487,o),
(494,1486,cs),
(556,1487,o),
(577,1471,o),
(588,1470,c),
(632,1534,l),
(617,1543,o),
(598,1559,o),
(524,1560,cs),
(415,1559,o),
(263,1486,o),
(262,1344,cs),
(262,0,l)
);
},
{
closed = 1;
nodes = (
(679,1047,o),
(783,1151,o),
(782,1280,cs),
(783,1409,o),
(679,1513,o),
(550,1512,cs),
(421,1513,o),
(317,1409,o),
(318,1280,cs),
(317,1151,o),
(421,1047,o),
(550,1048,cs)
);
}
);
};
layerId = "B40C3ECE-E849-485F-9ED5-057BFD17AE8D";
name = "Nov 26 18, 09:09";
shapes = (
{
closed = 1;
nodes = (
(62,1118,l),
(62,1070,l),
(574,1070,l),
(574,1118,l)
);
},
{
closed = 0;
nodes = (
(632,1498,l),
(605,1507,o),
(579,1513,o),
(550,1512,cs),
(421,1513,o),
(317,1409,o),
(318,1280,cs),
(318,0,l)
);
}
);
width = 678;
},
{
associatedMasterId = m009;
background = {
shapes = (
{
closed = 1;
nodes = (
(804,761,l),
(804,1069,l),
(53,1069,l),
(53,761,l)
);
},
{
closed = 1;
nodes = (
(604,0,l),
(604,1075,ls),
(604,1153,o),
(633,1182,o),
(713,1182,cs),
(749,1182,o),
(782,1182,o),
(804,1182,c),
(804,1490,l),
(768,1490,o),
(693,1490,o),
(602,1490,cs),
(322,1490,o),
(199,1385,o),
(199,1146,cs),
(199,0,l)
);
}
);
};
layerId = "61A7873A-9068-4AF9-B17E-616060BB3004";
name = "Apr 22, 23, 12:37";
shapes = (
{
pos = (14,0);
ref = _part.f_base;
},
{
closed = 1;
nodes = (
(20,1056,l),
(20,752,l),
(800,752,l),
(800,1056,l)
);
}
);
width = 840;
},
{
associatedMasterId = m007;
guides = (
{
angle = 90;
pos = (298,1317);
}
);
layerId = "E57C9381-4B1B-4ED3-8FD6-96CFFB3DFE05";
name = "Apr 23, 23, 08:56";
shapes = (
{
pos = (-26,0);
ref = _part.f_base;
},
{
closed = 1;
nodes = (
(10,1056,l),
(10,910,l),
(558,910,l),
(558,1056,l)
);
}
);
width = 568;
},
{
associatedMasterId = m011;
layerId = "94567BF6-7623-41FC-B7BD-ABE8B828E00C";
name = "Apr 23, 23, 09:12";
shapes = (
{
pos = (-66,0);
ref = _part.f_base;
},
{
closed = 1;
nodes = (
(0,1056,l),
(0,1010,l),
(442,1010,l),
(442,1056,l)
);
}
);
width = 392;
},
{
associatedMasterId = "5C20EF92-B63D-42A8-8878-93C2863E0093";
guides = (
{
pos = (-36,1228);
},
{
pos = (-36,256);
}
);
layerId = "CE29235F-285C-491C-BF99-41C92D4B646A";
name = "Apr 23, 23, 09:14";
shapes = (
{
pos = (-22,0);
ref = _part.f_base;
},
{
closed = 1;
nodes = (
(20,1118,l),
(20,826,l),
(766,826,l),
(766,1118,l)
);
}
);
width = 828;
}
);
metricLeft = t;
note = "!flatten";
unicode = 102;
userData = {
"interface.width-adjustments" = (
-16
);
};
}
{
glyphname = g;
kernLeft = o;
kernRight = g;
layers = (
{
anchors = (
{
name = bottom;
pos = (562,-436);
},
{
name = cross;
pos = (968,558);
},
{
name = top;
pos = (596,1118);
},
{
name = topr;
pos = (992,1118);
}
);
background = {
shapes = (
{
ref = d;
}
);
};
layerId = "B1F27B51-9973-4381-9301-4FE46FE1CA59";
shapes = (
{
closed = 1;
nodes = (
(834,-442,o),
(992,-299,o),
(992,-24,cs),
(992,1118,l),
(946,1118,l),
(946,832,l),
(940,832,l),
(879,1018,o),
(742,1134,o),
(562,1134,cs),
(297,1134,o),
(130,887,o),
(130,556,cs),
(130,227,o),
(300,0,o),
(562,0,cs),
(727,0,o),
(881,93,o),
(940,280,c),
(946,280,l),
(946,-24,ls),
(946,-274,o),
(809,-396,o),
(576,-396,cs),
(408,-396,o),
(274,-332,o),
(224,-200,c),
(180,-218,l),
(237,-367,o),
(388,-442,o),
(576,-442,cs)
);
},
{
closed = 1;
nodes = (
(326,46,o),
(176,253,o),
(176,556,cs),
(176,858,o),
(324,1088,o),
(562,1088,cs),
(799,1088,o),
(946,858,o),
(946,556,cs),
(946,242,o),
(794,46,o),
(562,46,cs)
);
}
);
width = 1190;
},
{
anchors = (
{
name = bottom;
pos = (562,-436);
},
{
name = cross;
pos = (968,558);
},
{
name = top;
pos = (596,1304);
}
);
associatedMasterId = "B1F27B51-9973-4381-9301-4FE46FE1CA59";
layerId = "2181E5E1-B714-4E06-B311-1F9B017BDC01";
name = "Nov 29 18, 19:54";
shapes = (
{
closed = 1;
nodes = (
(820,-442,o),
(992,-294,o),
(992,-66,cs),
(992,1118,l),
(946,1118,l),
(946,832,l),
(940,832,l),
(879,1018,o),
(742,1135,o),
(562,1134,cs),
(297,1135,o),
(131,887,o),
(130,556,cs),
(131,227,o),
(300,0,o),
(562,0,cs),
(728,0,o),
(881,93,o),
(940,280,c),
(946,280,l),
(946,-66,ls),
(945,-268,o),
(794,-396,o),
(564,-396,cs),
(354,-396,o),
(280,-288,o),
(224,-212,c),
(190,-242,l),
(245,-317,o),
(329,-442,o),
(564,-442,cs)
);
},
{
closed = 1;
nodes = (
(326,47,o),
(177,253,o),
(178,556,cs),
(177,858,o),
(324,1088,o),
(562,1088,cs),
(799,1088,o),
(945,858,o),
(946,556,cs),
(945,242,o),
(794,47,o),
(562,46,cs)
);
}
);
width = 1196;
},
{
anchors = (
{
name = bottom;
pos = (624,-441);
},
{
name = cross;
pos = (1012,564);
},
{
name = top;
pos = (605,1118);
},
{
name = topr;
pos = (1098,1118);
}
);
background = {
shapes = (
{
ref = d;
}
);
};
layerId = "C698F293-3EC0-4A5A-A3A0-0FDB1F5CF265";
shapes = (
{
closed = 1;
nodes = (
(883,-442,o),
(1098,-318,o),
(1098,-29,cs),
(1098,1118,l),
(923,1118,l),
(923,939,l),
(906,939,l),
(868,999,o),
(796,1132,o),
(580,1132,cs),
(301,1132,o),
(104,910,o),
(104,564,cs),
(104,213,o),
(308,18,o),
(576,18,cs),
(792,18,o),
(863,141,o),
(901,205,c),
(918,205,l),
(918,-19,ls),
(918,-203,o),
(789,-285,o),
(611,-285,cs),
(414,-285,o),
(344,-185,o),
(297,-120,c),
(151,-214,l),
(220,-337,o),
(363,-442,o),
(611,-442,cs)
);
},
{
closed = 1;
nodes = (
(396,178,o),
(287,338,o),
(287,568,cs),
(287,791,o),
(393,971,o),
(606,971,cs),
(812,971,o),
(920,805,o),
(920,568,cs),
(920,324,o),
(809,178,o),
(606,178,cs)
);
}
);
width = 1256;
},
{
anchors = (
{
name = bottom;
pos = (566,-432);
},
{
name = cross;
pos = (952,564);
},
{
name = top;
pos = (554,1056);
},
{
name = topr;
pos = (1032,1056);
}
);
background = {
shapes = (
{
ref = d;
}
);
};
layerId = m007;
shapes = (
{
closed = 1;
nodes = (
(814,-432,o),
(1032,-312,o),
(1032,0,cs),
(1032,1056,l),
(866,1056,l),
(866,891,l),
(865,891,l),
(792,1021,o),
(667,1076,o),
(530,1076,cs),
(255,1076,o),
(72,854,o),
(72,528,cs),
(72,203,o),
(255,-20,o),
(530,-20,cs),
(669,-20,o),
(785,37,o),
(863,160,c),
(864,160,l),
(864,0,ls),
(864,-180,o),
(752,-282,o),
(568,-282,cs),
(432,-282,o),
(328,-226,o),
(298,-112,c),
(124,-112,l),
(150,-320,o),
(330,-432,o),
(568,-432,cs)
);
},
{
closed = 1;
nodes = (
(373,133,o),
(244,269,o),
(244,528,cs),
(244,787,o),
(373,924,o),
(556,924,cs),
(752,924,o),
(876,767,o),
(876,528,cs),
(876,289,o),
(752,133,o),
(556,133,cs)
);
}
);
width = 1158;
},
{
anchors = (
{
name = bottom;
pos = (636,-416);
},
{
name = cross;
pos = (1020,568);
},
{
name = top;
pos = (651,1118);
},
{
name = topr;
pos = (1224,1118);
}
);
background = {
shapes = (
{
ref = d;
}
);
};
layerId = "5C20EF92-B63D-42A8-8878-93C2863E0093";
shapes = (
{
closed = 1;
nodes = (
(989,-442,o),
(1224,-273,o),
(1224,42,cs),
(1224,1118,l),
(826,1118,l),
(826,922,l),
(818,922,l),
(774,1036,o),
(665,1132,o),
(500,1132,cs),
(278,1132,o),
(62,963,o),
(62,558,cs),
(62,172,o),
(264,14,o),
(502,14,cs),
(653,14,o),
(756,79,o),
(799,192,c),
(828,192,l),
(828,2,ls),
(828,-115,o),
(764,-172,o),
(634,-172,cs),
(531,-172,o),
(463,-136,o),
(451,-76,c),
(98,-128,l),
(130,-320,o),
(330,-442,o),
(636,-442,cs)
);
},
{
closed = 1;
nodes = (
(540,300,o),
(476,393,o),
(476,558,cs),
(476,724,o),
(540,824,o),
(650,824,cs),
(761,824,o),
(828,724,o),
(828,558,cs),
(828,396,o),
(761,300,o),
(650,300,cs)
);
}
);
width = 1326;
},
{
anchors = (
{
name = bottom;
pos = (568,-416);
},
{
name = bottom_dd;
pos = (1240,-408);
},
{
name = cross;
pos = (952,568);
},
{
name = top;
pos = (568,1286);
},
{
name = top0315;
pos = (1240,1292);
},
{
name = top_dd;
pos = (1240,1600);
}
);
associatedMasterId = "5C20EF92-B63D-42A8-8878-93C2863E0093";
layerId = "62BD6BE4-77E0-4C2F-B706-F2CF0293CEEF";
name = "Sep 9 18, 17:18";
shapes = (
{
closed = 1;
nodes = (
(754,914,l),
(914,530,l),
(762,162,l),
(762,70,l),
(762,90,l),
(762,-61,o),
(681,-102,o),
(546,-102,cs),
(439,-102,o),
(346,-84,o),
(264,-34,c),
(120,-314,l),
(180,-352,o),
(361,-419,o),
(564,-418,cs),
(913,-419,o),
(1152,-215,o),
(1152,72,cs),
(1152,1108,l),
(754,1108,l)
);
},
{
closed = 1;
nodes = (
(738,1022,l),
(698,1117,o),
(585,1132,o),
(498,1132,cs),
(282,1132,o),
(61,963,o),
(62,568,cs),
(61,175,o),
(279,26,o),
(500,26,cs),
(614,26,o),
(716,55,o),
(742,114,c),
(910,114,l),
(910,1022,l)
);
},
{
closed = 1;
nodes = (
(436,730,o),
(500,823,o),
(628,824,cs),
(765,823,o),
(800,695,o),
(800,568,cs),
(800,433,o),
(762,326,o),
(628,326,cs),
(518,326,o),
(436,387,o),
(436,568,cs)
);
}
);
width = 1246;
},
{
anchors = (
{
name = bottom;
pos = (640,-416);
},
{
name = bottom_dd;
pos = (1312,-408);
},
{
name = cross;
pos = (1024,568);
},
{
name = top;
pos = (640,1286);
},
{
name = top0315;
pos = (1312,1292);
},
{
name = top_dd;
pos = (1312,1600);
}
);
associatedMasterId = "5C20EF92-B63D-42A8-8878-93C2863E0093";
background = {
shapes = (
{
pos = (8,0);
ref = d;
}
);
};
layerId = "18C495AE-FAFA-434D-BDF0-5F666B60BFFA";
name = "Nov 23 18, 15:17";
shapes = (
{
closed = 1;
nodes = (
(1009,-445,o),
(1225,-215,o),
(1224,72,cs),
(1224,1118,l),
(826,1118,l),
(826,922,l),
(818,922,l),
(774,1036,o),
(669,1132,o),
(504,1132,cs),
(282,1132,o),
(67,963,o),
(66,558,cs),
(67,172,o),
(268,15,o),
(506,14,cs),
(657,15,o),
(777,79,o),
(820,192,c),
(838,192,l),
(838,70,ls),
(838,-49,o),
(730,-148,o),
(582,-148,cs),
(474,-148,o),
(384,-99,o),
(344,-52,c),
(94,-250,l),
(177,-358,o),
(317,-445,o),
(578,-446,cs)
);
},
{
closed = 1;
nodes = (
(544,300,o),
(480,393,o),
(480,558,cs),
(480,724,o),
(544,823,o),
(654,824,cs),
(765,823,o),
(832,724,o),
(832,558,cs),
(832,396,o),
(765,300,o),
(654,300,cs)
);
}
);
width = 1326;
},
{
anchors = (
{
name = bottom;
pos = (634,-418);
},
{
name = cross;
pos = (989,568);
},
{
name = top;
pos = (620,1056);
},
{
name = topr;
pos = (1194,1056);
}
);
background = {
shapes = (
{
ref = d;
}
);
};
layerId = m009;
name = "Black Display";
shapes = (
{
closed = 1;
nodes = (
(989,-432,o),
(1194,-278,o),
(1194,76,cs),
(1194,1056,l),
(796,1056,l),
(796,914,l),
(795,914,l),
(732,1019,o),
(635,1080,o),
(498,1080,cs),
(233,1080,o),
(46,853,o),
(46,542,cs),
(46,237,o),
(225,16,o),
(502,16,cs),
(640,16,o),
(747,70,o),
(796,195,c),
(797,195,l),
(797,32,ls),
(797,-96,o),
(743,-158,o),
(632,-158,cs),
(545,-158,o),
(490,-123,o),
(476,-72,c),
(98,-72,l),
(131,-274,o),
(280,-432,o),
(632,-432,cs)
);
},
{
closed = 1;
nodes = (
(512,322,o),
(450,411,o),
(450,550,cs),
(450,688,o),
(512,776,o),
(621,776,cs),
(730,776,o),
(808,688,o),
(808,550,cs),
(808,411,o),
(730,322,o),
(621,322,cs)
);
}
);
width = 1280;
},
{
anchors = (
{
name = bottom;
pos = (626,-418);
},
{
name = cross;
pos = (981,568);
},
{
name = top;
pos = (626,1262);
}
);
associatedMasterId = m009;
background = {
shapes = (
{
closed = 1;
nodes = (
(979,-432,o),
(1186,-278,o),
(1186,20,cs),
(1186,1056,l),
(782,1056,l),
(782,878,l),
(778,878,l),
(738,979,o),
(640,1072,o),
(480,1072,cs),
(272,1072,o),
(66,914,o),
(66,528,cs),
(66,162,o),
(253,0,o),
(482,0,cs),
(626,0,o),
(746,64,o),
(784,164,c),
(788,164,l),
(788,0,ls),
(788,-125,o),
(728,-164,o),
(626,-164,cs),
(542,-164,o),
(478,-138,o),
(468,-80,c),
(90,-80,l),
(107,-282,o),
(270,-432,o),
(622,-432,cs)
);
},
{
closed = 1;
nodes = (
(527,292,o),
(470,377,o),
(470,528,cs),
(470,681,o),
(527,766,o),
(628,766,cs),
(731,766,o),
(788,681,o),
(788,528,cs),
(788,377,o),
(731,292,o),
(628,292,cs)
);
}
);
};
guides = (
{
angle = 90;
pos = (626,1077);
}
);
layerId = "40289E10-03EC-4188-BF6E-3D63CCB1EABB";
name = "May 27, 22, 09:18";
shapes = (
{
closed = 1;
nodes = (
(984,-432,o),
(1186,-306,o),
(1186,-80,cs),
(1186,1056,l),
(782,1056,l),
(782,878,l),
(778,878,l),
(738,979,o),
(640,1072,o),
(480,1072,cs),
(272,1072,o),
(66,914,o),
(66,528,cs),
(66,162,o),
(253,0,o),
(482,0,cs),
(626,0,o),
(746,64,o),
(784,164,c),
(788,164,l),
(788,-80,ls),
(788,-134,o),
(730,-164,o),
(626,-164,cs),
(533,-164,o),
(477,-134,o),
(468,-80,c),
(90,-80,l),
(109,-306,o),
(300,-432,o),
(622,-432,cs)
);
},
{
closed = 1;
nodes = (
(527,292,o),
(470,377,o),
(470,528,cs),
(470,681,o),
(527,766,o),
(628,766,cs),
(731,766,o),
(788,681,o),
(788,528,cs),
(788,377,o),
(731,292,o),
(628,292,cs)
);
}
);
width = 1288;
},
{
anchors = (
{
name = bottom;
pos = (554,-436);
},
{
name = cross;
pos = (960,528);
},
{
name = top;
pos = (530,1056);
},
{
name = topr;
pos = (984,1056);
}
);
background = {
shapes = (
{
ref = d;
}
);
};
layerId = m011;
shapes = (
{
closed = 1;
nodes = (
(824,-427,o),
(984,-258,o),
(984,0,cs),
(984,1056,l),
(938,1056,l),
(938,770,l),
(937,770,l),
(898,939,o),
(731,1072,o),
(530,1072,cs),
(268,1072,o),
(66,856,o),
(66,528,cs),
(66,197,o),
(265,-16,o),
(530,-16,cs),
(731,-16,o),
(893,113,o),
(937,280,c),
(938,280,l),
(938,0,ls),
(938,-231,o),
(797,-381,o),
(538,-381,cs),
(318,-381,o),
(200,-274,o),
(166,-112,c),
(119,-112,l),
(156,-300,o),
(289,-427,o),
(538,-427,cs)
);
},
{
closed = 1;
nodes = (
(293,30,o),
(112,222,o),
(112,528,cs),
(112,834,o),
(293,1026,o),
(530,1026,cs),
(774,1026,o),
(938,834,o),
(938,528,cs),
(938,222,o),
(774,30,o),
(530,30,cs)
);
}
);
width = 1118;
},
{
anchors = (
{
name = bottom;
pos = (636,-416);
},
{
name = cross;
pos = (1020,568);
},
{
name = top;
pos = (668,1118);
},
{
name = topr;
pos = (1224,1118);
}
);
associatedMasterId = "5C20EF92-B63D-42A8-8878-93C2863E0093";
layerId = "81AC4B8D-3775-46A7-B770-24FF4119BBBC";
name = "May 6, 23, 18:22";
shapes = (
{
closed = 1;
nodes = (
(989,-442,o),
(1224,-281,o),
(1224,2,cs),
(1224,1118,l),
(826,1118,l),
(826,922,l),
(818,922,l),
(774,1036,o),
(665,1132,o),
(500,1132,cs),
(278,1132,o),
(62,963,o),
(62,558,cs),
(62,172,o),
(264,14,o),
(502,14,cs),
(653,14,o),
(773,79,o),
(816,192,c),
(828,192,l),
(828,2,ls),
(828,-129,o),
(752,-172,o),
(648,-172,cs),
(555,-172,o),
(488,-144,o),
(476,-72,c),
(90,-72,l),
(104,-288,o),
(300,-442,o),
(636,-442,cs)
);
},
{
closed = 1;
nodes = (
(540,300,o),
(476,393,o),
(476,558,cs),
(476,724,o),
(540,824,o),
(650,824,cs),
(761,824,o),
(828,724,o),
(828,558,cs),
(828,396,o),
(761,300,o),
(650,300,cs)
);
}
);
width = 1326;
},
{
anchors = (
{
name = bottom;
pos = (636,-416);
},
{
name = cross;
pos = (1020,568);
},
{
name = top;
pos = (668,1118);
},
{
name = topr;
pos = (1224,1118);
}
);
associatedMasterId = "5C20EF92-B63D-42A8-8878-93C2863E0093";
layerId = "09D7F222-9E82-4955-B011-A3FE1CFBC4EF";
name = "May 6, 23, 18:27";
shapes = (
{
closed = 1;
nodes = (
(540,300,o),
(476,393,o),
(476,558,cs),
(476,724,o),
(540,824,o),
(650,824,cs),
(761,824,o),
(828,724,o),
(828,558,cs),
(828,396,o),
(761,300,o),
(650,300,cs)
);
},
{
closed = 1;
nodes = (
(989,-442,o),
(1224,-281,o),
(1224,2,cs),
(1224,1118,l),
(826,1118,l),
(826,922,l),
(818,922,l),
(774,1036,o),
(665,1132,o),
(500,1132,cs),
(278,1132,o),
(62,963,o),
(62,558,cs),
(62,172,o),
(264,14,o),
(502,14,cs),
(653,14,o),
(773,79,o),
(816,192,c),
(828,192,l),
(828,2,ls),
(828,-115,o),
(764,-172,o),
(634,-172,cs),
(531,-172,o),
(463,-136,o),
(451,-76,c),
(98,-128,l),
(130,-320,o),
(330,-442,o),
(636,-442,cs)
);
}
);
width = 1326;
},
{
anchors = (
{
name = bottom;
pos = (544,-432);
},
{
name = cross;
pos = (930,564);
},
{
name = top;
pos = (546,1056);
},
{
name = topr;
pos = (1010,1056);
}
);
associatedMasterId = m007;
layerId = "E93B7651-688C-4CCA-A0F3-CBA7AB4D5D76";
name = "May 6, 23, 23:05";
shapes = (
{
closed = 1;
nodes = (
(792,-432,o),
(1010,-312,o),
(1010,0,cs),
(1010,1056,l),
(844,1056,l),
(844,886,l),
(838,886,l),
(800,952,o),
(722,1076,o),
(524,1076,cs),
(254,1076,o),
(72,846,o),
(72,530,cs),
(72,210,o),
(238,-10,o),
(520,-10,cs),
(676,-10,o),
(774,60,o),
(838,174,c),
(842,174,l),
(842,0,ls),
(842,-180,o),
(730,-282,o),
(546,-282,cs),
(410,-282,o),
(306,-226,o),
(276,-112,c),
(102,-112,l),
(128,-320,o),
(308,-432,o),
(546,-432,cs)
);
},
{
closed = 1;
nodes = (
(344,142,o),
(244,298,o),
(244,528,cs),
(244,758,o),
(348,922,o),
(546,922,cs),
(732,922,o),
(842,778,o),
(842,528,cs),
(842,282,o),
(732,142,o),
(542,142,cs)
);
}
);
width = 1136;
},
{
anchors = (
{
name = bottom;
pos = (544,-432);
},
{
name = cross;
pos = (930,564);
},
{
name = top;
pos = (546,1056);
},
{
name = topr;
pos = (1010,1056);
}
);
associatedMasterId = m007;
background = {
anchors = (
{
name = bottom;
pos = (512,0);
},
{
name = bottomr;
pos = (1010,0);
},
{
name = cross;
pos = (840,1262);
},
{
name = raccent;
pos = (1154,1490);
},
{
name = top;
pos = (492,1262);
},
{
name = topbar;
pos = (1010,1490);
}
);
shapes = (
{
closed = 1;
nodes = (
(645,-20,o),
(766,38,o),
(842,160,c),
(844,160,l),
(844,0,l),
(1010,0,l),
(1010,1490,l),
(840,1490,l),
(840,900,l),
(838,900,l),
(770,1018,o),
(645,1076,o),
(508,1076,cs),
(233,1076,o),
(50,854,o),
(50,528,cs),
(50,203,o),
(233,-20,o),
(508,-20,cs)
);
},
{
closed = 1;
nodes = (
(351,133,o),
(222,269,o),
(222,528,cs),
(222,787,o),
(351,924,o),
(534,924,cs),
(730,924,o),
(854,767,o),
(854,528,cs),
(854,289,o),
(730,133,o),
(534,133,cs)
);
}
);
};
layerId = "958D6D51-9596-4354-9A28-C4F77AEFBED6";
name = "May 6, 23, 23:09";
shapes = (
{
closed = 1;
nodes = (
(792,-432,o),
(1010,-312,o),
(1010,0,cs),
(1010,1056,l),
(844,1056,l),
(844,877,l),
(843,877,l),
(801,953,o),
(722,1076,o),
(524,1076,cs),
(254,1076,o),
(72,846,o),
(72,530,cs),
(72,210,o),
(238,-10,o),
(520,-10,cs),
(679,-10,o),
(777,60,o),
(841,180,c),
(842,180,l),
(842,0,ls),
(842,-180,o),
(730,-282,o),
(546,-282,cs),
(410,-282,o),
(306,-226,o),
(276,-112,c),
(102,-112,l),
(128,-320,o),
(308,-432,o),
(546,-432,cs)
);
},
{
closed = 1;
nodes = (
(344,142,o),
(244,298,o),
(244,528,cs),
(244,758,o),
(348,922,o),
(546,922,cs),
(732,922,o),
(842,778,o),
(842,528,cs),
(842,282,o),
(732,142,o),
(542,142,cs)
);
}
);
width = 1136;
},
{
anchors = (
{
name = bottom;
pos = (606,-418);
},
{
name = cross;
pos = (961,568);
},
{
name = top;
pos = (638,1056);
},
{
name = topr;
pos = (1166,1056);
}
);
associatedMasterId = m009;
background = {
shapes = (
{
pos = (-28,0);
ref = d;
}
);
};
guides = (
{
angle = 90;
pos = (526,1077);
}
);
layerId = "A4883D2E-7836-4636-8ED4-E10ACDCE1428";
name = "May 6, 23, 23:13";
shapes = (
{
closed = 1;
nodes = (
(961,-432,o),
(1166,-278,o),
(1166,76,cs),
(1166,1056,l),
(768,1056,l),
(768,918,l),
(764,918,l),
(705,1024,o),
(599,1080,o),
(460,1080,cs),
(209,1080,o),
(46,869,o),
(46,544,cs),
(46,219,o),
(209,8,o),
(462,8,cs),
(601,8,o),
(698,55,o),
(764,148,c),
(769,148,l),
(769,32,ls),
(769,-96,o),
(715,-158,o),
(604,-158,cs),
(517,-158,o),
(462,-123,o),
(448,-72,c),
(70,-72,l),
(103,-274,o),
(252,-432,o),
(604,-432,cs)
);
},
{
closed = 1;
nodes = (
(494,300,o),
(434,393,o),
(434,536,cs),
(434,676,o),
(494,766,o),
(598,766,cs),
(702,766,o),
(778,676,o),
(778,536,cs),
(778,393,o),
(702,300,o),
(598,300,cs)
);
}
);
width = 1252;
},
{
anchors = (
{
name = bottom;
pos = (606,-418);
},
{
name = cross;
pos = (961,568);
},
{
name = top;
pos = (638,1056);
},
{
name = topr;
pos = (1166,1056);
}
);
associatedMasterId = m009;
background = {
shapes = (
{
pos = (-28,0);
ref = d;
}
);
};
layerId = "430F2658-1BAC-496A-AA65-EB6B20E171A1";
name = "May 6, 23, 23:14";
shapes = (
{
closed = 1;
nodes = (
(769,32,ls),
(769,-96,o),
(715,-158,o),
(604,-158,cs),
(517,-158,o),
(462,-123,o),
(448,-72,c),
(70,-72,l),
(103,-274,o),
(252,-432,o),
(604,-432,cs),
(961,-432,o),
(1166,-278,o),
(1166,76,cs),
(1166,1056,l),
(768,1056,l),
(768,918,l),
(765,918,l),
(698,1029,o),
(607,1080,o),
(470,1080,cs),
(205,1080,o),
(18,853,o),
(18,530,cs),
(18,194,o),
(197,-24,o),
(474,-24,cs),
(614,-24,o),
(720,40,o),
(768,164,c),
(769,164,l)
);
},
{
closed = 1;
nodes = (
(484,290,o),
(422,384,o),
(422,530,cs),
(422,675,o),
(484,768,o),
(593,768,cs),
(702,768,o),
(780,675,o),
(780,530,cs),
(780,384,o),
(702,290,o),
(593,290,cs)
);
}
);
width = 1252;
}
);
metricLeft = o;
metricRight = "=|n";
unicode = 103;
userData = {
"interface.width-adjustments" = (
-16
);
};
}
{
glyphname = l;
kernLeft = B;
kernRight = H;
layers = (
{
anchors = (
{
name = bottom;
pos = (247,0);
},
{
name = bottomr;
pos = (338,0);
},
{
name = centerr;
pos = (338,745);
},
{
name = cross;
pos = (247,768);
},
{
name = raccent;
pos = (481,1490);
},
{
name = top;
pos = (248,1490);
}
);
layerId = "C698F293-3EC0-4A5A-A3A0-0FDB1F5CF265";
shapes = (
{
closed = 1;
nodes = (
(158,1490,l),
(158,0,l),
(338,0,l),
(338,1490,l)
);
}
);
width = 496;
},
{
anchors = (
{
name = bottom;
pos = (302,0);
},
{
name = bottomr;
pos = (504,0);
},
{
name = centerr;
pos = (504,745);
},
{
name = cross;
pos = (302,768);
},
{
name = raccent;
pos = (620,1490);
},
{
name = top;
pos = (303,1490);
}
);
layerId = "5C20EF92-B63D-42A8-8878-93C2863E0093";
shapes = (
{
closed = 1;
nodes = (
(102,1490,l),
(102,0,l),
(504,0,l),
(504,1490,l)
);
}
);
width = 606;
},
{
anchors = (
{
name = bottom;
pos = (222,0);
},
{
name = bottomr;
pos = (244,0);
},
{
name = centerr;
pos = (244,745);
},
{
name = cross;
pos = (222,768);
},
{
name = raccent;
pos = (382,1490);
},
{
name = top;
pos = (221,1490);
}
);
layerId = "B1F27B51-9973-4381-9301-4FE46FE1CA59";
shapes = (
{
closed = 1;
nodes = (
(198,1490,l),
(198,0,l),
(244,0,l),
(244,1490,l)
);
}
);
width = 442;
},
{
anchors = (
{
name = bottom;
pos = (210,0);
},
{
name = bottomr;
pos = (296,0);
},
{
name = centerr;
pos = (296,745);
},
{
name = cross;
pos = (210,768);
},
{
name = raccent;
pos = (440,1490);
},
{
name = top;
pos = (211,1490);
}
);
layerId = m007;
shapes = (
{
closed = 1;
nodes = (
(126,1490,l),
(126,0,l),
(296,0,l),
(296,1490,l)
);
}
);
width = 422;
},
{
anchors = (
{
name = bottom;
pos = (285,0);
},
{
name = bottomr;
pos = (486,0);
},
{
name = centerr;
pos = (486,745);
},
{
name = cross;
pos = (286,768);
},
{
name = raccent;
pos = (602,1490);
},
{
name = top;
pos = (286,1490);
}
);
layerId = m009;
shapes = (
{
closed = 1;
nodes = (
(86,1490,l),
(86,0,l),
(486,0,l),
(486,1490,l)
);
}
);
width = 572;
},
{
anchors = (
{
name = bottom;
pos = (158,0);
},
{
name = bottomr;
pos = (180,0);
},
{
name = centerr;
pos = (180,745);
},
{
name = cross;
pos = (158,768);
},
{
name = raccent;
pos = (318,1490);
},
{
name = top;
pos = (157,1490);
}
);
layerId = m011;
shapes = (
{
closed = 1;
nodes = (
(134,1490,l),
(134,0,l),
(180,0,l),
(180,1490,l)
);
}
);
width = 314;
}
);
metricLeft = n;
metricRight = "=|l";
unicode = 108;
userData = {
"interface.width-adjustments" = (
-16
);
};
}
{
glyphname = o;
kernLeft = o;
kernRight = o;
layers = (
{
anchors = (
{
name = bottom;
pos = (594,0);
},
{
name = center;
pos = (594,559);
},
{
name = ogonek;
pos = (1056,556);
},
{
name = top;
pos = (594,1118);
},
{
name = tophorn;
pos = (594,1134);
}
);
layerId = "B1F27B51-9973-4381-9301-4FE46FE1CA59";
shapes = (
{
closed = 1;
nodes = (
(857,-24,o),
(1056,226,o),
(1056,556,cs),
(1056,884,o),
(856,1134,o),
(594,1134,cs),
(330,1134,o),
(130,885,o),
(130,556,cs),
(130,226,o),
(330,-24,o),
(594,-24,cs)
);
},
{
closed = 1;
nodes = (
(356,22,o),
(176,252,o),
(176,556,cs),
(176,857,o),
(358,1088,o),
(594,1088,cs),
(830,1088,o),
(1010,858,o),
(1010,556,cs),
(1010,252,o),
(831,22,o),
(594,22,cs)
);
}
);
width = 1186;
},
{
anchors = (
{
name = bottom;
pos = (613,0);
},
{
name = center;
pos = (613,559);
},
{
name = ogonek;
pos = (1124,552);
},
{
name = top;
pos = (613,1118);
},
{
name = tophorn;
pos = (613,1132);
}
);
layerId = "C698F293-3EC0-4A5A-A3A0-0FDB1F5CF265";
shapes = (
{
closed = 1;
nodes = (
(918,-24,o),
(1124,207,o),
(1124,552,cs),
(1124,902,o),
(918,1132,o),
(613,1132,cs),
(309,1132,o),
(104,902,o),
(104,552,cs),
(104,207,o),
(309,-24,o),
(613,-24,cs)
);
},
{
closed = 1;
nodes = (
(390,137,o),
(287,332,o),
(287,552,cs),
(287,775,o),
(390,971,o),
(613,971,cs),
(839,971,o),
(942,774,o),
(942,552,cs),
(942,332,o),
(839,137,o),
(613,137,cs)
);
}
);
width = 1228;
},
{
anchors = (
{
name = bottom;
pos = (640,0);
},
{
name = center;
pos = (640,559);
},
{
name = ogonek;
pos = (1218,556);
},
{
name = top;
pos = (640,1118);
},
{
name = tophorn;
pos = (640,1132);
}
);
layerId = "5C20EF92-B63D-42A8-8878-93C2863E0093";
shapes = (
{
closed = 1;
nodes = (
(1004,-20,o),
(1218,212,o),
(1218,556,cs),
(1218,899,o),
(1004,1132,o),
(641,1132,cs),
(276,1132,o),
(62,899,o),
(62,556,cs),
(62,212,o),
(276,-20,o),
(641,-20,cs)
);
},
{
closed = 1;
nodes = (
(535,280,o),
(472,383,o),
(472,558,cs),
(472,734,o),
(535,832,o),
(641,832,cs),
(745,832,o),
(808,734,o),
(808,558,cs),
(808,383,o),
(745,280,o),
(641,280,cs)
);
}
);
width = 1280;
},
{
anchors = (
{
name = bottom;
pos = (622,0);
},
{
name = center;
pos = (622,528);
},
{
name = ogonek;
pos = (1198,528);
},
{
name = top;
pos = (622,1056);
},
{
name = tophorn;
pos = (622,1080);
}
);
layerId = m009;
shapes = (
{
closed = 1;
nodes = (
(966,-24,o),
(1198,190,o),
(1198,528,cs),
(1198,865,o),
(966,1080,o),
(622,1080,cs),
(279,1080,o),
(46,865,o),
(46,528,cs),
(46,189,o),
(279,-24,o),
(622,-24,cs)
);
},
{
closed = 1;
nodes = (
(527,288,o),
(450,369,o),
(450,528,cs),
(450,687,o),
(527,768,o),
(622,768,cs),
(717,768,o),
(794,687,o),
(794,528,cs),
(794,369,o),
(717,288,o),
(622,288,cs)
);
}
);
width = 1244;
},
{
anchors = (
{
name = bottom;
pos = (614,0);
},
{
name = ogonek;
pos = (780,0);
},
{
name = top;
pos = (614,1262);
}
);
associatedMasterId = m009;
guides = (
{
pos = (-66,2860);
},
{
angle = 90;
pos = (614,1088);
}
);
layerId = "88035746-701D-4CC5-9EF4-F1F81ADD29D4";
name = "May 30, 22, 17:26";
shapes = (
{
closed = 1;
nodes = (
(958,-16,o),
(1166,190,o),
(1166,528,cs),
(1166,865,o),
(958,1072,o),
(614,1072,cs),
(271,1072,o),
(62,865,o),
(62,528,cs),
(62,189,o),
(271,-16,o),
(614,-16,cs)
);
},
{
closed = 1;
nodes = (
(519,296,o),
(466,380,o),
(466,528,cs),
(466,676,o),
(519,760,o),
(614,760,cs),
(709,760,o),
(762,676,o),
(762,528,cs),
(762,380,o),
(709,296,o),
(614,296,cs)
);
}
);
width = 1228;
},
{
anchors = (
{
name = bottom;
pos = (614,0);
},
{
name = ogonek;
pos = (780,0);
},
{
name = top;
pos = (614,1262);
}
);
associatedMasterId = m009;
guides = (
{
pos = (-66,2860);
},
{
pos = (706,768);
},
{
orientation = center;
angle = 90;
pos = (178,768);
},
{
angle = 90;
pos = (614,1088);
}
);
layerId = "6EA95EFC-35BE-4EA1-8BAE-244F0E9EEFCE";
name = "May 27, 22, 09:04";
shapes = (
{
closed = 1;
nodes = (
(958,-16,o),
(1166,190,o),
(1166,528,cs),
(1166,865,o),
(958,1072,o),
(614,1072,cs),
(271,1072,o),
(62,865,o),
(62,528,cs),
(62,189,o),
(271,-16,o),
(614,-16,cs)
);
},
{
closed = 1;
nodes = (
(522,278,o),
(466,363,o),
(466,528,cs),
(466,693,o),
(522,778,o),
(614,778,cs),
(704,778,o),
(762,692,o),
(762,528,cs),
(762,363,o),
(704,278,o),
(614,278,cs)
);
}
);
width = 1228;
},
{
anchors = (
{
name = bottom;
pos = (530,0);
},
{
name = center;
pos = (530,528);
},
{
name = ogonek;
pos = (992,528);
},
{
name = top;
pos = (530,1056);
},
{
name = tophorn;
pos = (530,1072);
}
);
layerId = m011;
shapes = (
{
closed = 1;
nodes = (
(802,-16,o),
(992,213,o),
(992,528,cs),
(992,843,o),
(802,1072,o),
(530,1072,cs),
(257,1072,o),
(66,843,o),
(66,528,cs),
(66,213,o),
(257,-16,o),
(530,-16,cs)
);
},
{
closed = 1;
nodes = (
(285,30,o),
(112,236,o),
(112,528,cs),
(112,820,o),
(285,1026,o),
(530,1026,cs),
(774,1026,o),
(946,820,o),
(946,528,cs),
(946,236,o),
(774,30,o),
(530,30,cs)
);
}
);
width = 1058;
},
{
anchors = (
{
name = bottom;
pos = (582,0);
},
{
name = ogonek;
pos = (710,0);
},
{
name = top;
pos = (582,1262);
},
{
name = tophorn;
pos = (864,774);
}
);
associatedMasterId = m007;
guides = (
{
orientation = center;
angle = 90;
pos = (-7530,1208);
},
{
angle = 90;
pos = (582,1120);
}
);
layerId = "EF05C08A-C8AF-4681-AF29-09D19ED87332";
name = "Jun 8, 22, 16:01";
shapes = (
{
closed = 1;
nodes = (
(875,-24,o),
(1084,204,o),
(1084,526,cs),
(1084,850,o),
(875,1080,o),
(582,1080,cs),
(289,1080,o),
(80,850,o),
(80,526,cs),
(80,204,o),
(289,-24,o),
(582,-24,cs)
);
},
{
closed = 1;
nodes = (
(382,130,o),
(252,286,o),
(252,526,cs),
(252,768,o),
(383,926,o),
(582,926,cs),
(781,926,o),
(912,767,o),
(912,526,cs),
(912,287,o),
(782,130,o),
(582,130,cs)
);
}
);
width = 1164;
},
{
anchors = (
{
name = bottom;
pos = (562,0);
},
{
name = center;
pos = (562,528);
},
{
name = ogonek;
pos = (1052,526);
},
{
name = top;
pos = (562,1056);
},
{
name = tophorn;
pos = (562,1080);
}
);
guides = (
{
orientation = center;
angle = 90;
pos = (-8686,1208);
},
{
angle = 90;
pos = (562,1120);
}
);
layerId = m007;
name = "Regular Display";
shapes = (
{
closed = 1;
nodes = (
(855,-24,o),
(1052,204,o),
(1052,526,cs),
(1052,850,o),
(855,1080,o),
(562,1080,cs),
(269,1080,o),
(72,850,o),
(72,526,cs),
(72,204,o),
(269,-24,o),
(562,-24,cs)
);
},
{
closed = 1;
nodes = (
(362,130,o),
(244,286,o),
(244,526,cs),
(244,768,o),
(363,926,o),
(562,926,cs),
(761,926,o),
(880,767,o),
(880,526,cs),
(880,287,o),
(762,130,o),
(562,130,cs)
);
}
);
width = 1124;
},
{
anchors = (
{
name = bottom;
pos = (598,0);
},
{
name = ogonek;
pos = (764,0);
},
{
name = top;
pos = (598,1262);
},
{
name = tophorn;
pos = (980,698);
}
);
associatedMasterId = m009;
guides = (
{
pos = (-162,2860);
},
{
angle = 90;
pos = (518,1088);
}
);
layerId = "1BEB46D3-E86E-4657-A945-9C6A6E1B9925";
name = "Jul 8, 22, 17:55";
shapes = (
{
closed = 1;
nodes = (
(942,-24,o),
(1150,190,o),
(1150,528,cs),
(1150,865,o),
(942,1080,o),
(598,1080,cs),
(255,1080,o),
(46,865,o),
(46,528,cs),
(46,189,o),
(255,-24,o),
(598,-24,cs)
);
},
{
closed = 1;
nodes = (
(503,280,o),
(450,369,o),
(450,528,cs),
(450,687,o),
(503,776,o),
(598,776,cs),
(693,776,o),
(746,687,o),
(746,528,cs),
(746,369,o),
(693,280,o),
(598,280,cs)
);
}
);
width = 1199;
},
{
anchors = (
{
name = bottom;
pos = (530,0);
},
{
name = ogonek;
pos = (992,556);
},
{
name = top;
pos = (530,1304);
},
{
name = tophorn;
pos = (530,1134);
}
);
associatedMasterId = m011;
layerId = "2BF75414-981B-4E25-870D-959EBA4C3D64";
name = "Apr 6, 23, 10:24";
shapes = (
{
closed = 1;
nodes = (
(793,-16,o),
(992,198,o),
(992,528,cs),
(992,856,o),
(792,1072,o),
(530,1072,cs),
(266,1072,o),
(66,857,o),
(66,528,cs),
(66,198,o),
(266,-16,o),
(530,-16,cs)
);
},
{
closed = 1;
nodes = (
(292,30,o),
(112,224,o),
(112,528,cs),
(112,829,o),
(294,1026,o),
(530,1026,cs),
(766,1026,o),
(946,830,o),
(946,528,cs),
(946,224,o),
(767,30,o),
(530,30,cs)
);
}
);
width = 1058;
}
);
metricRight = "=|o";
unicode = 111;
userData = {
com.typemytype.robofont.guideline.magnetic.k4vPhVkDP6 = 5;
"interface.width-adjustments" = (
-16
);
};
}
{
glyphname = q;
kernLeft = o;
kernRight = g;
layers = (
{
anchors = (
{
name = top;
pos = (623,1118);
},
{
name = topr;
pos = (1088,1118);
}
);
layerId = "C698F293-3EC0-4A5A-A3A0-0FDB1F5CF265";
shapes = (
{
pos = (1254,0);
ref = p;
scale = (-1,1);
}
);
width = 1254;
},
{
anchors = (
{
name = top;
pos = (661,1118);
},
{
name = topr;
pos = (1220,1118);
}
);
layerId = "5C20EF92-B63D-42A8-8878-93C2863E0093";
shapes = (
{
pos = (1322,0);
ref = p;
scale = (-1,1);
}
);
width = 1322;
},
{
anchors = (
{
name = top;
pos = (595,1118);
},
{
name = topr;
pos = (992,1118);
}
);
layerId = "B1F27B51-9973-4381-9301-4FE46FE1CA59";
shapes = (
{
pos = (1190,0);
ref = p;
scale = (-1,1);
}
);
width = 1190;
},
{
anchors = (
{
name = top;
pos = (580,1056);
},
{
name = topr;
pos = (1032,1056);
}
);
layerId = m007;
shapes = (
{
pos = (1158,0);
ref = p;
scale = (-1,1);
}
);
width = 1158;
},
{
anchors = (
{
name = top;
pos = (640,1056);
},
{
name = topr;
pos = (1194,1056);
}
);
layerId = m009;
shapes = (
{
pos = (1280,0);
ref = p;
scale = (-1,1);
}
);
width = 1280;
},
{
anchors = (
{
name = bottom;
pos = (956,-418);
},
{
name = cross;
pos = (956,-162);
},
{
name = top;
pos = (593,1262);
},
{
name = topr;
pos = (1156,1056);
}
);
associatedMasterId = m009;
guides = (
{
angle = 90;
pos = (513,1088);
},
{
angle = 90;
pos = (876,-432);
}
);
layerId = "0FCD6E7C-0642-405A-81B8-AF42AA04F26C";
name = "May 31, 22, 09:16";
shapes = (
{
closed = 1;
nodes = (
(1156,-418,l),
(1156,1056,l),
(758,1056,l),
(758,876,l),
(752,876,l),
(710,986,o),
(608,1072,o),
(458,1072,cs),
(250,1072,o),
(46,916,o),
(46,530,cs),
(46,160,o),
(236,-14,o),
(462,-14,cs),
(608,-14,o),
(708,66,o),
(752,172,c),
(756,172,l),
(756,-418,l)
);
},
{
closed = 1;
nodes = (
(507,290,o),
(450,376,o),
(450,530,cs),
(450,683,o),
(507,768,o),
(608,768,cs),
(711,768,o),
(768,683,o),
(768,530,cs),
(768,376,o),
(711,290,o),
(608,290,cs)
);
}
);
width = 1242;
},
{
anchors = (
{
name = top;
pos = (559,1056);
},
{
name = topr;
pos = (984,1056);
}
);
layerId = m011;
shapes = (
{
pos = (1118,0);
ref = p;
scale = (-1,1);
}
);
width = 1118;
}
);
metricLeft = o;
metricRight = "=|n";
unicode = 113;
userData = {
"interface.width-adjustments" = (
-16
);
};
}
{
glyphname = u;
kernLeft = u;
kernRight = u;
layers = (
{
anchors = (
{
name = bottom;
pos = (606,0);
},
{
name = ogonek;
pos = (1053,0);
},
{
name = rtophorn;
pos = (872,1118);
},
{
name = top;
pos = (605,1118);
}
);
layerId = "C698F293-3EC0-4A5A-A3A0-0FDB1F5CF265";
shapes = (
{
closed = 1;
nodes = (
(701,-14,o),
(834,61,o),
(903,271,c),
(879,271,l),
(879,0,l),
(1053,0,l),
(1053,1118,l),
(872,1118,l),
(872,448,ls),
(872,257,o),
(751,148,o),
(591,148,cs),
(435,148,o),
(338,251,o),
(338,423,cs),
(338,1118,l),
(158,1118,l),
(158,408,ls),
(158,125,o),
(311,-14,o),
(537,-14,cs)
);
}
);
width = 1211;
},
{
anchors = (
{
name = bottom;
pos = (681,0);
},
{
name = ogonek;
pos = (1228,0);
},
{
name = rtophorn;
pos = (826,1118);
},
{
name = top;
pos = (666,1118);
}
);
layerId = "5C20EF92-B63D-42A8-8878-93C2863E0093";
shapes = (
{
closed = 1;
nodes = (
(697,-14,o),
(804,117,o),
(855,286,c),
(843,286,l),
(851,0,l),
(1228,0,l),
(1228,1118,l),
(826,1118,l),
(826,490,ls),
(826,379,o),
(763,312,o),
(664,312,cs),
(563,312,o),
(504,379,o),
(504,490,cs),
(504,1118,l),
(102,1118,l),
(102,406,ls),
(102,162,o),
(255,-14,o),
(492,-14,cs)
);
}
);
width = 1330;
},
{
anchors = (
{
name = bottom;
pos = (704,0);
},
{
name = ogonek;
pos = (1176,0);
},
{
name = top;
pos = (634,1286);
}
);
associatedMasterId = "5C20EF92-B63D-42A8-8878-93C2863E0093";
guides = (
{
pos = (0,277.75);
},
{
pos = (0,752.125);
},
{
orientation = center;
angle = 90;
pos = (944,524);
}
);
layerId = "4F88E214-8A38-4ABA-85E9-D788B827E20A";
name = "Sep 16 18, 18:59";
shapes = (
{
closed = 1;
nodes = (
(774,433,o),
(771,291,o),
(638,290,cs),
(559,291,o),
(495,340,o),
(494,440,cs),
(494,1118,l),
(94,1118,l),
(94,424,ls),
(93,90,o),
(285,-15,o),
(492,-14,cs),
(608,-15,o),
(727,23,o),
(798,104,c),
(808,104,l),
(808,0,l),
(1176,0,l),
(1176,1118,l),
(774,1118,l),
(774,556,ls)
);
}
);
width = 1268;
},
{
anchors = (
{
name = bottom;
pos = (598,0);
},
{
name = ogonek;
pos = (998,0);
},
{
name = rtophorn;
pos = (952,1118);
},
{
name = top;
pos = (598,1118);
}
);
layerId = "B1F27B51-9973-4381-9301-4FE46FE1CA59";
shapes = (
{
closed = 1;
nodes = (
(758,-16,o),
(916,69,o),
(964,240,c),
(952,240,l),
(952,0,l),
(998,0,l),
(998,1118,l),
(952,1118,l),
(952,368,ls),
(952,172,o),
(796,30,o),
(588,30,cs),
(385,30,o),
(244,165,o),
(244,368,cs),
(244,1118,l),
(198,1118,l),
(198,368,ls),
(198,139,o),
(359,-16,o),
(588,-16,cs)
);
}
);
width = 1196;
},
{
anchors = (
{
name = bottom;
pos = (568,0);
},
{
name = ogonek;
pos = (994,0);
},
{
name = rtophorn;
pos = (824,1056);
},
{
name = top;
pos = (560,1056);
}
);
guides = (
{
orientation = center;
angle = 90;
pos = (-6453,1476);
}
);
layerId = m007;
shapes = (
{
closed = 1;
nodes = (
(681,-20,o),
(807,66,o),
(876,256,c),
(828,256,l),
(828,0,l),
(994,0,l),
(994,1056,l),
(824,1056,l),
(824,438,ls),
(824,225,o),
(700,136,o),
(546,136,cs),
(388,136,o),
(296,229,o),
(296,412,cs),
(296,1056,l),
(126,1056,l),
(126,400,ls),
(126,119,o),
(301,-20,o),
(514,-20,cs)
);
}
);
width = 1120;
},
{
anchors = (
{
name = bottom;
pos = (657,0);
},
{
name = ogonek;
pos = (1180,0);
},
{
name = rtophorn;
pos = (780,1056);
},
{
name = top;
pos = (633,1056);
}
);
layerId = m009;
shapes = (
{
closed = 1;
nodes = (
(656,-24,o),
(772,107,o),
(837,291,c),
(785,291,l),
(785,0,l),
(1180,0,l),
(1180,1056,l),
(780,1056,l),
(780,496,ls),
(780,374,o),
(727,314,o),
(633,314,cs),
(539,314,o),
(486,374,o),
(486,480,cs),
(486,1056,l),
(86,1056,l),
(86,390,ls),
(86,136,o),
(207,-24,o),
(442,-24,cs)
);
}
);
width = 1266;
},
{
anchors = (
{
name = bottom;
pos = (704,0);
},
{
name = ogonek;
pos = (1176,0);
},
{
name = top;
pos = (634,1286);
}
);
associatedMasterId = m009;
guides = (
{
pos = (0,277.75);
},
{
pos = (0,752.125);
},
{
orientation = center;
angle = 90;
pos = (944,524);
}
);
layerId = "20084D23-D07D-40E9-8D35-B6DF88C6B3D4";
name = "Sep 16 18, 18:59";
shapes = (
{
closed = 1;
nodes = (
(774,433,o),
(771,291,o),
(638,290,cs),
(559,291,o),
(495,340,o),
(494,440,cs),
(494,1118,l),
(94,1118,l),
(94,424,ls),
(93,90,o),
(285,-15,o),
(492,-14,cs),
(608,-15,o),
(727,23,o),
(798,104,c),
(808,104,l),
(808,0,l),
(1176,0,l),
(1176,1118,l),
(774,1118,l),
(774,556,ls)
);
}
);
width = 1268;
},
{
anchors = (
{
name = bottom;
pos = (534,0);
},
{
name = ogonek;
pos = (934,0);
},
{
name = rtophorn;
pos = (888,1056);
},
{
name = top;
pos = (534,1056);
}
);
layerId = m011;
shapes = (
{
closed = 1;
nodes = (
(694,-16,o),
(852,69,o),
(900,240,c),
(888,240,l),
(888,0,l),
(934,0,l),
(934,1056,l),
(888,1056,l),
(888,368,ls),
(888,172,o),
(732,30,o),
(524,30,cs),
(321,30,o),
(180,165,o),
(180,368,cs),
(180,1056,l),
(134,1056,l),
(134,368,ls),
(134,139,o),
(295,-16,o),
(524,-16,cs)
);
}
);
width = 1068;
},
{
anchors = (
{
name = bottom;
pos = (518,0);
},
{
name = ogonek;
pos = (902,0);
},
{
name = rtophorn;
pos = (856,1118);
},
{
name = top;
pos = (518,1304);
}
);
associatedMasterId = m011;
layerId = "BDA08B73-4640-47C2-942E-7F20EADBE740";
name = "Apr 6, 23, 16:10";
shapes = (
{
closed = 1;
nodes = (
(856,172,o),
(713,32,o),
(514,32,cs),
(317,32,o),
(180,169,o),
(180,366,cs),
(180,1118,l),
(134,1118,l),
(134,366,ls),
(134,143,o),
(291,-15,o),
(514,-14,cs),
(669,-15,o),
(797,61,o),
(850,178,c),
(856,178,l),
(856,0,l),
(902,0,l),
(902,1118,l),
(856,1118,l),
(856,366,ls)
);
}
);
width = 1036;
},
{
anchors = (
{
name = bottom;
pos = (568,0);
},
{
name = ogonek;
pos = (1010,0);
},
{
name = rtophorn;
pos = (840,1056);
},
{
name = top;
pos = (568,1056);
}
);
associatedMasterId = m007;
guides = (
{
orientation = center;
angle = 90;
pos = (-6453,1476);
}
);
layerId = "49980021-235C-4E2D-B031-344EA297C606";
name = "May 4, 23, 12:04";
shapes = (
{
closed = 1;
nodes = (
(840,225,o),
(712,136,o),
(558,136,cs),
(400,136,o),
(296,229,o),
(296,412,cs),
(296,1056,l),
(126,1056,l),
(126,400,ls),
(126,119,o),
(313,-20,o),
(526,-20,cs),
(693,-20,o),
(794,68,o),
(840,170,c),
(844,170,l),
(844,0,l),
(1010,0,l),
(1010,1056,l),
(840,1056,l),
(840,438,ls)
);
}
);
width = 1136;
},
{
anchors = (
{
name = bottom;
pos = (596,0);
},
{
name = ogonek;
pos = (1032,0);
},
{
name = rtophorn;
pos = (862,1118);
},
{
name = top;
pos = (596,1118);
}
);
associatedMasterId = "C698F293-3EC0-4A5A-A3A0-0FDB1F5CF265";
layerId = "0DE1E5E4-2B6B-40B5-9C05-E6A05855A48D";
name = "May 4, 23, 12:06";
shapes = (
{
closed = 1;
nodes = (
(862,247,o),
(701,152,o),
(574,152,cs),
(431,152,o),
(328,256,o),
(328,418,cs),
(328,1118,l),
(158,1118,l),
(158,408,ls),
(158,122,o),
(308,-14,o),
(518,-14,cs),
(687,-14,o),
(797,76,o),
(850,190,c),
(862,190,l),
(862,0,l),
(1032,0,l),
(1032,1118,l),
(862,1118,l),
(862,456,ls)
);
}
);
width = 1190;
},
{
anchors = (
{
name = bottom;
pos = (528,0);
},
{
name = ogonek;
pos = (934,0);
},
{
name = rtophorn;
pos = (888,1056);
},
{
name = top;
pos = (534,1056);
}
);
associatedMasterId = m011;
layerId = "89C8FB85-063D-4284-9212-DBFEF3ED7F6B";
name = "May 4, 23, 12:07";
shapes = (
{
closed = 1;
nodes = (
(888,172,o),
(732,30,o),
(524,30,cs),
(321,30,o),
(180,165,o),
(180,368,cs),
(180,1056,l),
(134,1056,l),
(134,368,ls),
(134,139,o),
(295,-16,o),
(524,-16,cs),
(694,-16,o),
(840,74,o),
(886,195,c),
(888,195,l),
(888,0,l),
(934,0,l),
(934,1056,l),
(888,1056,l),
(888,368,ls)
);
}
);
width = 1068;
},
{
anchors = (
{
name = bottom;
pos = (582,0);
},
{
name = ogonek;
pos = (966,0);
},
{
name = rtophorn;
pos = (920,1118);
},
{
name = top;
pos = (582,1118);
}
);
associatedMasterId = "B1F27B51-9973-4381-9301-4FE46FE1CA59";
layerId = "4C9D11DF-551A-44AD-BF95-59B61352D862";
name = "May 4, 23, 12:07";
shapes = (
{
closed = 1;
nodes = (
(920,172,o),
(777,32,o),
(578,32,cs),
(381,32,o),
(244,169,o),
(244,366,cs),
(244,1118,l),
(198,1118,l),
(198,366,ls),
(198,143,o),
(355,-14,o),
(578,-14,cs),
(733,-14,o),
(861,61,o),
(914,178,c),
(920,178,l),
(920,0,l),
(966,0,l),
(966,1118,l),
(920,1118,l),
(920,366,ls)
);
}
);
width = 1164;
},
{
anchors = (
{
name = bottom;
pos = (742,0);
},
{
name = ogonek;
pos = (1228,0);
},
{
name = rtophorn;
pos = (826,1118);
},
{
name = top;
pos = (666,1118);
}
);
associatedMasterId = "5C20EF92-B63D-42A8-8878-93C2863E0093";
layerId = "08A09694-802E-478F-A621-07F43F6929B6";
name = "May 4, 23, 12:08";
shapes = (
{
closed = 1;
nodes = (
(826,378,o),
(763,312,o),
(664,312,cs),
(562,312,o),
(504,378,o),
(504,488,cs),
(504,1118,l),
(102,1118,l),
(102,404,ls),
(102,160,o),
(257,-14,o),
(492,-14,cs),
(658,-14,o),
(786,70,o),
(834,212,c),
(846,212,l),
(846,0,l),
(1228,0,l),
(1228,1118,l),
(826,1118,l),
(826,488,ls)
);
}
);
width = 1330;
},
{
anchors = (
{
name = bottom;
pos = (726,0);
},
{
name = ogonek;
pos = (1212,0);
},
{
name = rtophorn;
pos = (812,1056);
},
{
name = top;
pos = (650,1056);
}
);
associatedMasterId = m009;
layerId = "62B2828A-5944-43EF-8E25-B43E09306313";
name = "May 4, 23, 12:08";
shapes = (
{
closed = 1;
nodes = (
(812,364,o),
(746,298,o),
(649,298,cs),
(548,298,o),
(486,364,o),
(486,472,cs),
(486,1056,l),
(86,1056,l),
(86,390,ls),
(86,150,o),
(244,-24,o),
(479,-24,cs),
(640,-24,o),
(762,60,o),
(812,200,c),
(814,200,l),
(814,0,l),
(1212,0,l),
(1212,1056,l),
(812,1056,l),
(812,472,ls)
);
}
);
width = 1298;
}
);
metricLeft = "=|n";
metricRight = "=|n";
unicode = 117;
userData = {
com.typemytype.robofont.guideline.magnetic.nBhGDD3LHZ = 5;
"interface.width-adjustments" = (
-16
);
};
}
{
glyphname = v;
kernLeft = v;
kernRight = v;
layers = (
{
anchors = (
{
name = bottom;
pos = (575,0);
},
{
name = top;
pos = (575,1118);
}
);
layerId = "C698F293-3EC0-4A5A-A3A0-0FDB1F5CF265";
shapes = (
{
closed = 1;
nodes = (
(670,0,l),
(1097,1118,l),
(900,1118,l),
(662,455,ls),
(612,317,o),
(582,179,o),
(543,51,c),
(609,51,l),
(570,179,o),
(539,317,o),
(489,455,cs),
(251,1118,l),
(54,1118,l),
(481,0,l)
);
}
);
width = 1151;
},
{
anchors = (
{
name = bottom;
pos = (647,0);
},
{
name = top;
pos = (647,1118);
}
);
layerId = "5C20EF92-B63D-42A8-8878-93C2863E0093";
shapes = (
{
closed = 1;
nodes = (
(882,0,l),
(1282,1118,l),
(866,1118,l),
(725,608,ls),
(683,456,o),
(654,304,o),
(622,120,c),
(685,120,l),
(652,304,o),
(622,457,o),
(579,608,cs),
(434,1118,l),
(12,1118,l),
(410,0,l)
);
}
);
width = 1294;
},
{
anchors = (
{
name = bottom;
pos = (557,0);
},
{
name = top;
pos = (557,1118);
}
);
layerId = "B1F27B51-9973-4381-9301-4FE46FE1CA59";
shapes = (
{
closed = 1;
nodes = (
(587,0,l),
(1014,1118,l),
(966,1118,l),
(667,336,ls),
(628,235,o),
(592,131,o),
(551,30,c),
(563,30,l),
(522,131,o),
(486,235,o),
(447,336,cs),
(148,1118,l),
(100,1118,l),
(527,0,l)
);
}
);
width = 1114;
},
{
anchors = (
{
name = bottom;
pos = (524,0);
},
{
name = top;
pos = (524,1056);
}
);
layerId = m007;
shapes = (
{
closed = 1;
nodes = (
(610,0,l),
(1018,1056,l),
(837,1056,l),
(612,448,ls),
(575,347,o),
(541,245,o),
(507,144,c),
(548,144,l),
(514,245,o),
(480,347,o),
(442,448,cs),
(214,1056,l),
(30,1056,l),
(438,0,l)
);
}
);
width = 1048;
},
{
anchors = (
{
name = bottom;
pos = (604,0);
},
{
name = top;
pos = (604,1056);
}
);
layerId = m009;
shapes = (
{
closed = 1;
nodes = (
(834,0,l),
(1212,1056,l),
(800,1056,l),
(674,608,ls),
(634,464,o),
(598,320,o),
(562,176,c),
(657,176,l),
(620,320,o),
(582,464,o),
(541,608,cs),
(412,1056,l),
(-4,1056,l),
(374,0,l)
);
}
);
width = 1208;
},
{
anchors = (
{
name = bottom;
pos = (499,0);
},
{
name = top;
pos = (499,1056);
}
);
layerId = m011;
shapes = (
{
closed = 1;
nodes = (
(527,0,l),
(963,1056,l),
(914,1056,l),
(617,336,ls),
(575,235,o),
(534,131,o),
(493,30,c),
(505,30,l),
(464,131,o),
(423,235,o),
(381,336,cs),
(84,1056,l),
(35,1056,l),
(471,0,l)
);
}
);
width = 998;
},
{
anchors = (
{
name = bottom;
pos = (570,0);
},
{
name = top;
pos = (570,1118);
}
);
associatedMasterId = "C698F293-3EC0-4A5A-A3A0-0FDB1F5CF265";
layerId = "F26C1F64-842E-4083-BF37-88CCB8C7AF69";
name = "Apr 25, 23, 12:56";
shapes = (
{
closed = 1;
nodes = (
(884,1118,l),
(576,226,l),
(564,226,l),
(256,1118,l),
(70,1118,l),
(482,0,l),
(658,0,l),
(1070,1118,l)
);
}
);
width = 1140;
},
{
anchors = (
{
name = bottom;
pos = (570,0);
},
{
name = top;
pos = (570,1118);
}
);
associatedMasterId = "C698F293-3EC0-4A5A-A3A0-0FDB1F5CF265";
guides = (
{
angle = 109.9625;
pos = (402,672);
},
{
angle = 250.0375;
pos = (738,672);
}
);
layerId = "831C831E-D48E-4F6C-8557-0667332C934D";
name = "Apr 25, 23, 12:57";
shapes = (
{
closed = 1;
nodes = (
(900,1118,l),
(529,96,l),
(611,96,l),
(240,1118,l),
(54,1118,l),
(482,0,l),
(658,0,l),
(1086,1118,l)
);
}
);
width = 1140;
},
{
anchors = (
{
name = bottom;
pos = (532,0);
},
{
name = top;
pos = (532,1056);
}
);
associatedMasterId = m007;
layerId = "727A55CC-49DE-48B2-9AFE-B70EBB8E8515";
name = "Apr 25, 23, 12:58";
shapes = (
{
closed = 1;
nodes = (
(845,1056,l),
(537,224,l),
(534,224,l),
(222,1056,l),
(38,1056,l),
(446,0,l),
(618,0,l),
(1026,1056,l)
);
}
);
width = 1064;
},
{
anchors = (
{
name = bottom;
pos = (596,0);
},
{
name = top;
pos = (596,1056);
}
);
associatedMasterId = m009;
layerId = "D2515983-CF2D-4F5E-84FF-E0123D5F1E31";
name = "Apr 25, 23, 13:03";
shapes = (
{
closed = 1;
nodes = (
(786,1056,l),
(604,374,l),
(600,374,l),
(412,1056,l),
(-4,1056,l),
(366,0,l),
(826,0,l),
(1196,1056,l)
);
}
);
width = 1192;
},
{
anchors = (
{
name = bottom;
pos = (604,0);
},
{
name = top;
pos = (604,1056);
}
);
associatedMasterId = m009;
layerId = "F4057868-18A4-4DBF-B48E-7EB259347069";
name = "Apr 25, 23, 13:04";
shapes = (
{
closed = 1;
nodes = (
(802,1056,l),
(557,176,l),
(665,176,l),
(412,1056,l),
(-4,1056,l),
(374,0,l),
(834,0,l),
(1212,1056,l)
);
}
);
width = 1208;
},
{
anchors = (
{
name = bottom;
pos = (620,0);
},
{
name = top;
pos = (620,1118);
}
);
associatedMasterId = "5C20EF92-B63D-42A8-8878-93C2863E0093";
layerId = "BE17E5CD-1F6F-4C7F-8AE3-C15BB4117037";
name = "Apr 25, 23, 13:05";
shapes = (
{
closed = 1;
nodes = (
(812,1118,l),
(632,378,l),
(620,378,l),
(434,1118,l),
(12,1118,l),
(386,0,l),
(852,0,l),
(1228,1118,l)
);
}
);
width = 1240;
},
{
anchors = (
{
name = bottom;
pos = (488,0);
},
{
name = top;
pos = (488,1056);
}
);
associatedMasterId = m011;
guides = (
{
angle = 90;
pos = (488,-16);
}
);
layerId = "A761B07F-9296-4DE8-851D-3FDB08286024";
name = "Apr 25, 23, 13:08";
shapes = (
{
closed = 1;
nodes = (
(887,1056,l),
(489,57,l),
(488,57,l),
(89,1056,l),
(40,1056,l),
(460,0,l),
(516,0,l),
(936,1056,l)
);
}
);
width = 976;
},
{
anchors = (
{
name = bottom;
pos = (488,0);
},
{
name = top;
pos = (488,1056);
}
);
associatedMasterId = m011;
layerId = "C6CFAFC0-0FD3-4E33-93F9-D1491BE19B7E";
name = "Apr 25, 23, 13:10";
shapes = (
{
closed = 1;
nodes = (
(903,1056,l),
(480,32,l),
(496,32,l),
(73,1056,l),
(24,1056,l),
(460,0,l),
(516,0,l),
(952,1056,l)
);
}
);
width = 976;
},
{
anchors = (
{
name = bottom;
pos = (534,0);
},
{
name = top;
pos = (534,1118);
}
);
associatedMasterId = "B1F27B51-9973-4381-9301-4FE46FE1CA59";
layerId = "0A3E20CF-54C4-44E8-BCF9-0330B00A2A0A";
name = "Apr 25, 23, 13:11";
shapes = (
{
closed = 1;
nodes = (
(915,1118,l),
(538,58,l),
(532,58,l),
(153,1118,l),
(104,1118,l),
(505,0,l),
(566,0,l),
(964,1118,l)
);
}
);
width = 1068;
}
);
metricRight = "=|v";
unicode = 118;
userData = {
com.typemytype.robofont.guideline.magnetic.HsEeMarF5L = 5;
"interface.width-adjustments" = (
-16
);
};
}
{
glyphname = z;
kernLeft = z;
kernRight = z;
layers = (
{
anchors = (
{
name = bottom;
pos = (549,0);
},
{
name = bottomr;
pos = (1005,0);
},
{
name = cross;
pos = (555,558);
},
{
name = top;
pos = (555,1118);
}
);
layerId = "C698F293-3EC0-4A5A-A3A0-0FDB1F5CF265";
shapes = (
{
closed = 1;
nodes = (
(1005,0,l),
(1005,167,l),
(376,167,l),
(376,178,l),
(985,975,l),
(985,1118,l),
(146,1118,l),
(146,951,l),
(753,951,l),
(753,940,l),
(126,134,l),
(126,0,l)
);
}
);
width = 1131;
},
{
anchors = (
{
name = bottom;
pos = (610,0);
},
{
name = bottomr;
pos = (1094,0);
},
{
name = cross;
pos = (602,558);
},
{
name = top;
pos = (606,1118);
}
);
layerId = "5C20EF92-B63D-42A8-8878-93C2863E0093";
shapes = (
{
closed = 1;
nodes = (
(1094,0,l),
(1094,306,l),
(632,306,l),
(632,312,l),
(1076,872,l),
(1076,1118,l),
(130,1118,l),
(130,812,l),
(602,812,l),
(602,806,l),
(114,222,l),
(114,0,l)
);
}
);
width = 1208;
},
{
anchors = (
{
name = bottom;
pos = (504,0);
},
{
name = bottomr;
pos = (914,0);
},
{
name = cross;
pos = (520,558);
},
{
name = top;
pos = (520,1118);
}
);
layerId = "B1F27B51-9973-4381-9301-4FE46FE1CA59";
shapes = (
{
closed = 1;
nodes = (
(914,0,l),
(914,46,l),
(216,46,l),
(216,52,l),
(884,1070,l),
(884,1118,l),
(200,1118,l),
(200,1072,l),
(827,1072,l),
(827,1066,l),
(158,46,l),
(158,0,l)
);
}
);
width = 1072;
},
{
anchors = (
{
name = bottom;
pos = (489,0);
},
{
name = bottomr;
pos = (886,0);
},
{
name = cross;
pos = (512,558);
},
{
name = top;
pos = (488,1056);
}
);
layerId = m007;
shapes = (
{
closed = 1;
nodes = (
(886,0,l),
(886,152,l),
(310,152,l),
(310,156,l),
(882,920,l),
(882,1056,l),
(94,1056,l),
(94,904,l),
(672,904,l),
(672,900,l),
(94,130,l),
(94,0,l)
);
}
);
width = 980;
},
{
anchors = (
{
name = bottom;
pos = (574,0);
},
{
name = bottomr;
pos = (1050,0);
},
{
name = cross;
pos = (575,528);
},
{
name = top;
pos = (572,1056);
}
);
background = {
shapes = (
{
closed = 1;
nodes = (
(970,0,l),
(970,152,l),
(394,152,l),
(394,156,l),
(966,920,l),
(966,1056,l),
(178,1056,l),
(178,904,l),
(756,904,l),
(756,900,l),
(178,130,l),
(178,0,l)
);
}
);
};
guides = (
{
angle = 46.003;
pos = (1040,784);
},
{
angle = 46.003;
pos = (98,256);
}
);
layerId = m009;
metricRight = "=|z";
shapes = (
{
closed = 1;
nodes = (
(1050,0,l),
(1050,302,l),
(576,302,l),
(576,304,l),
(1040,784,l),
(1040,1056,l),
(98,1056,l),
(98,752,l),
(575,752,l),
(575,750,l),
(98,256,l),
(98,0,l)
);
}
);
width = 1148;
},
{
anchors = (
{
name = bottom;
pos = (457,0);
},
{
name = bottomr;
pos = (835,0);
},
{
name = cross;
pos = (455,528);
},
{
name = top;
pos = (459,1056);
}
);
background = {
shapes = (
{
closed = 1;
nodes = (
(855,0,l),
(855,152,l),
(279,152,l),
(279,156,l),
(851,920,l),
(851,1056,l),
(63,1056,l),
(63,904,l),
(641,904,l),
(641,900,l),
(63,130,l),
(63,0,l)
);
}
);
};
layerId = m011;
shapes = (
{
closed = 1;
nodes = (
(835,0,l),
(835,46,l),
(136,46,l),
(136,47,l),
(829,1008,l),
(829,1056,l),
(89,1056,l),
(89,1010,l),
(774,1010,l),
(774,1009,l),
(79,46,l),
(79,0,l)
);
}
);
width = 914;
},
{
anchors = (
{
name = bottom;
pos = (440,0);
},
{
name = bottomr;
pos = (850,0);
},
{
name = cross;
pos = (456,558);
},
{
name = top;
pos = (464,1262);
}
);
associatedMasterId = m011;
background = {
shapes = (
{
closed = 1;
nodes = (
(855,0,l),
(855,152,l),
(279,152,l),
(279,156,l),
(851,920,l),
(851,1056,l),
(63,1056,l),
(63,904,l),
(641,904,l),
(641,900,l),
(63,130,l),
(63,0,l)
);
}
);
};
layerId = "2DC1F73D-6473-42D6-A6BE-322BEA50813F";
name = "Apr 7, 23, 10:08";
shapes = (
{
closed = 1;
nodes = (
(835,0,l),
(835,46,l),
(136,46,l),
(136,47,l),
(805,1008,l),
(805,1056,l),
(121,1056,l),
(121,1010,l),
(750,1010,l),
(750,1009,l),
(79,46,l),
(79,0,l)
);
}
);
width = 914;
},
{
anchors = (
{
name = bottom;
pos = (582,0);
},
{
name = bottomr;
pos = (1066,0);
},
{
name = cross;
pos = (582,528);
},
{
name = top;
pos = (582,1262);
}
);
associatedMasterId = m009;
layerId = "C7805A35-1229-4B96-A7C6-17F77EBAEBBA";
name = "Apr 7, 23, 10:57";
shapes = (
{
closed = 1;
nodes = (
(1066,0,l),
(1066,302,l),
(608,302,l),
(608,306,l),
(1048,816,l),
(1048,1056,l),
(116,1056,l),
(116,752,l),
(582,752,l),
(582,748,l),
(98,216,l),
(98,0,l)
);
}
);
width = 1164;
},
{
anchors = (
{
name = bottom;
pos = (582,0);
},
{
name = bottomr;
pos = (1066,0);
},
{
name = cross;
pos = (582,528);
},
{
name = top;
pos = (582,1262);
}
);
associatedMasterId = m009;
guides = (
{
angle = 47.8938;
pos = (1056,784);
},
{
angle = 47.8938;
pos = (90,256);
}
);
layerId = "9AD4AA09-D804-49DA-9436-872872A90170";
metricRight = "=|z";
name = "Apr 7, 23, 11:07";
shapes = (
{
closed = 1;
nodes = (
(1050,0,l),
(1050,302,l),
(608,302,l),
(608,306,l),
(1040,784,l),
(1040,1056,l),
(98,1056,l),
(98,752,l),
(543,752,l),
(543,748,l),
(98,256,l),
(98,0,l)
);
}
);
width = 1148;
}
);
metricRight = "=|z";
unicode = 122;
userData = {
com.typemytype.robofont.guideline.magnetic.R2Ni5F405P = 5;
"interface.width-adjustments" = (
-16
);
};
}
{
glyphname = braceleft;
kernLeft = parenleft;
kernRight = parenleft;
layers = (
{
background = {
shapes = (
{
ref = bracketleft;
}
);
};
guides = (
{
pos = (120,2144);
},
{
pos = (120,-416);
},
{
name = "Mid center";
pos = (68,651);
}
);
layerId = "C698F293-3EC0-4A5A-A3A0-0FDB1F5CF265";
shapes = (
{
closed = 1;
nodes = (
(467,646,o),
(528,750,o),
(528,901,cs),
(528,1187,ls),
(528,1356,o),
(581,1431,o),
(750,1430,c),
(750,1581,l),
(464,1581,o),
(362,1463,o),
(362,1190,cs),
(362,960,ls),
(362,802,o),
(306,741,o),
(144,741,c),
(144,646,l)
);
},
{
closed = 1;
nodes = (
(750,-130,l),
(580,-130,o),
(528,-54,o),
(528,115,cs),
(528,399,ls),
(528,549,o),
(467,656,o),
(144,656,c),
(144,561,l),
(306,561,o),
(362,498,o),
(362,340,cs),
(362,112,ls),
(362,-162,o),
(464,-279,o),
(750,-279,c)
);
},
{
closed = 1;
nodes = (
(323,560,l),
(323,742,l),
(144,742,l),
(144,560,l)
);
}
);
width = 873;
},
{
background = {
guides = (
{
pos = (1293,792);
}
);
shapes = (
{
pos = (1,0);
ref = bracketleft;
}
);
};
guides = (
{
pos = (1297,-464);
},
{
name = "Mid center";
pos = (81,651);
}
);
layerId = "5C20EF92-B63D-42A8-8878-93C2863E0093";
shapes = (
{
closed = 1;
nodes = (
(653,627,o),
(737,804,o),
(737,949,cs),
(737,1109,ls),
(737,1231,o),
(776,1289,o),
(951,1289,c),
(951,1581,l),
(651,1581,o),
(363,1580,o),
(363,1161,cs),
(363,1033,ls),
(363,890,o),
(306,825,o),
(137,825,c),
(137,627,l)
);
},
{
closed = 1;
nodes = (
(951,13,l),
(776,13,o),
(737,71,o),
(737,193,cs),
(737,353,ls),
(737,498,o),
(653,675,o),
(137,675,c),
(137,477,l),
(306,477,o),
(363,412,o),
(363,269,cs),
(363,141,ls),
(363,-278,o),
(651,-279,o),
(951,-279,c)
);
},
{
closed = 1;
nodes = (
(477,477,l),
(477,825,l),
(137,825,l),
(137,477,l)
);
}
);
width = 1035;
},
{
background = {
shapes = (
{
pos = (38,0);
ref = bracketleft;
}
);
};
guides = (
{
pos = (90,2144);
},
{
pos = (90,-416);
},
{
name = "Mid center";
pos = (38,651);
}
);
layerId = "B1F27B51-9973-4381-9301-4FE46FE1CA59";
shapes = (
{
closed = 1;
nodes = (
(366,629,o),
(434,698,o),
(434,889,cs),
(434,1271,ls),
(434,1457,o),
(500,1536,o),
(652,1536,c),
(652,1582,l),
(472,1582,o),
(388,1482,o),
(388,1271,cs),
(388,889,ls),
(388,723,o),
(340,675,o),
(172,675,c),
(172,629,l)
);
},
{
closed = 1;
nodes = (
(652,-234,l),
(500,-234,o),
(434,-154,o),
(434,31,cs),
(434,413,ls),
(434,604,o),
(366,675,o),
(172,675,c),
(172,629,l),
(340,629,o),
(388,579,o),
(388,413,cs),
(388,31,ls),
(388,-179,o),
(472,-280,o),
(652,-280,c)
);
},
{
closed = 1;
nodes = (
(328,629,l),
(328,675,l),
(172,675,l),
(172,629,l)
);
}
);
width = 810;
},
{
associatedMasterId = "B1F27B51-9973-4381-9301-4FE46FE1CA59";
background = {
shapes = (
{
closed = 1;
nodes = (
(280,660,o),
(319,736,o),
(320,890,cs),
(320,1260,ls),
(319,1460,o),
(388,1548,o),
(552,1548,c),
(552,1602,l),
(277,1601,o),
(301,1406,o),
(302,1230,cs),
(302,926,ls),
(301,755,o),
(245,695,o),
(88,696,c),
(88,660,l)
);
},
{
closed = 1;
nodes = (
(552,-230,l),
(388,-228,o),
(319,-140,o),
(320,62,cs),
(320,430,ls),
(319,583,o),
(280,659,o),
(88,660,c),
(88,626,l),
(245,625,o),
(301,564,o),
(302,396,cs),
(302,90,ls),
(301,-86,o),
(277,-281,o),
(552,-282,c)
);
},
{
closed = 1;
nodes = (
(172,626,l),
(172,696,l),
(88,696,l),
(88,626,l)
);
}
);
};
guides = (
{
pos = (52,2144);
},
{
pos = (52,-416);
},
{
pos = (636,864);
}
);
layerId = "0FCB815A-61ED-4764-8959-4BBA2BE46BCE";
name = "Dec 27 18, 14:58";
shapes = (
{
closed = 0;
nodes = (
(134,634,l),
(336,635,o),
(372,716,o),
(372,872,cs),
(372,1248,ls),
(372,1452,o),
(452,1537,o),
(614,1536,c)
);
},
{
closed = 0;
nodes = (
(614,-280,l),
(452,-280,o),
(372,-195,o),
(372,8,cs),
(372,384,ls),
(372,540,o),
(336,622,o),
(134,622,c)
);
}
);
width = 646;
},
{
associatedMasterId = "B1F27B51-9973-4381-9301-4FE46FE1CA59";
background = {
shapes = (
{
closed = 1;
nodes = (
(280,660,o),
(319,736,o),
(320,890,cs),
(320,1260,ls),
(319,1460,o),
(388,1548,o),
(552,1548,c),
(552,1602,l),
(277,1601,o),
(301,1406,o),
(302,1230,cs),
(302,926,ls),
(301,755,o),
(245,695,o),
(88,696,c),
(88,660,l)
);
},
{
closed = 1;
nodes = (
(552,-230,l),
(388,-228,o),
(319,-140,o),
(320,62,cs),
(320,430,ls),
(319,583,o),
(280,659,o),
(88,660,c),
(88,626,l),
(245,625,o),
(301,564,o),
(302,396,cs),
(302,90,ls),
(301,-86,o),
(277,-281,o),
(552,-282,c)
);
},
{
closed = 1;
nodes = (
(172,626,l),
(172,696,l),
(88,696,l),
(88,626,l)
);
}
);
};
guides = (
{
pos = (52,2144);
},
{
pos = (52,-416);
},
{
pos = (636,864);
}
);
layerId = "260A4824-ACF0-46C3-8347-AA4107B224D9";
name = "Dec 27 18, 15:03";
shapes = (
{
closed = 0;
nodes = (
(614,-280,l),
(452,-280,o),
(372,-195,o),
(372,8,cs),
(372,390,ls),
(372,546,o),
(336,628,o),
(134,628,c),
(336,629,o),
(372,711,o),
(372,866,cs),
(372,1248,ls),
(372,1452,o),
(452,1537,o),
(614,1536,c)
);
}
);
width = 646;
},
{
background = {
guides = (
{
pos = (717,1480);
},
{
pos = (753,864);
}
);
shapes = (
{
pos = (-1,0);
ref = bracketleft;
}
);
};
guides = (
{
pos = (-271,2144);
},
{
pos = (-271,-416);
},
{
name = "Mid center";
pos = (-31,636);
}
);
layerId = m007;
shapes = (
{
closed = 1;
nodes = (
(427,608,o),
(495,733,o),
(495,884,cs),
(495,1176,ls),
(495,1346,o),
(540,1420,o),
(709,1420,c),
(709,1566,l),
(424,1566,o),
(331,1443,o),
(331,1176,cs),
(331,942,ls),
(331,783,o),
(275,722,o),
(113,722,c),
(113,608,l)
);
},
{
closed = 1;
nodes = (
(709,-148,l),
(540,-148,o),
(495,-75,o),
(495,96,cs),
(495,386,ls),
(495,536,o),
(427,664,o),
(113,664,c),
(113,550,l),
(275,550,o),
(331,487,o),
(331,328,cs),
(331,96,ls),
(331,-172,o),
(424,-294,o),
(709,-294,c)
);
},
{
closed = 1;
nodes = (
(287,549,l),
(287,723,l),
(113,723,l),
(113,549,l)
);
}
);
width = 788;
},
{
background = {
guides = (
{
pos = (1197,792);
}
);
shapes = (
{
pos = (-15,0);
ref = bracketleft;
}
);
};
guides = (
{
pos = (1105,-464);
},
{
name = "Mid center";
pos = (-15,636);
}
);
layerId = m009;
shapes = (
{
closed = 1;
nodes = (
(637,596,o),
(737,773,o),
(737,918,cs),
(737,1094,ls),
(737,1233,o),
(779,1270,o),
(935,1270,c),
(935,1566,l),
(635,1566,o),
(347,1565,o),
(347,1146,cs),
(347,1018,ls),
(347,875,o),
(290,810,o),
(121,810,c),
(121,596,l)
);
},
{
closed = 1;
nodes = (
(935,2,l),
(779,2,o),
(737,39,o),
(737,178,cs),
(737,354,ls),
(737,499,o),
(637,676,o),
(121,676,c),
(121,462,l),
(290,462,o),
(347,397,o),
(347,254,cs),
(347,126,ls),
(347,-293,o),
(635,-294,o),
(935,-294,c)
);
},
{
closed = 1;
nodes = (
(481,462,l),
(481,810,l),
(121,810,l),
(121,462,l)
);
}
);
width = 995;
},
{
guides = (
{
pos = (-140,2144);
},
{
pos = (-140,-416);
},
{
name = "Mid center";
pos = (-64,636);
}
);
layerId = m011;
shapes = (
{
closed = 1;
nodes = (
(302,614,o),
(370,683,o),
(370,874,cs),
(370,1256,ls),
(370,1442,o),
(436,1521,o),
(588,1521,c),
(588,1567,l),
(408,1567,o),
(324,1467,o),
(324,1256,cs),
(324,874,ls),
(324,708,o),
(276,660,o),
(108,660,c),
(108,614,l)
);
},
{
closed = 1;
nodes = (
(588,-249,l),
(436,-249,o),
(370,-169,o),
(370,16,cs),
(370,398,ls),
(370,589,o),
(302,660,o),
(108,660,c),
(108,614,l),
(276,614,o),
(324,564,o),
(324,398,cs),
(324,16,ls),
(324,-194,o),
(408,-295,o),
(588,-295,c)
);
},
{
closed = 1;
nodes = (
(256,614,l),
(256,660,l),
(108,660,l),
(108,614,l)
);
}
);
width = 682;
}
);
metricLeft = hyphen;
metricRight = bracketleft;
unicode = 123;
}
{
glyphname = bar;
kernLeft = B;
kernRight = H;
layers = (
{
layerId = "C698F293-3EC0-4A5A-A3A0-0FDB1F5CF265";
shapes = (
{
closed = 1;
nodes = (
(262,1970,l),
(262,-480,l),
(419,-480,l),
(419,1970,l)
);
}
);
width = 681;
},
{
guides = (
{
pos = (-32,1240);
},
{
pos = (-32,764);
}
);
layerId = "5C20EF92-B63D-42A8-8878-93C2863E0093";
shapes = (
{
closed = 1;
nodes = (
(218,1970,l),
(218,-480,l),
(610,-480,l),
(610,1970,l)
);
}
);
width = 830;
},
{
layerId = "B1F27B51-9973-4381-9301-4FE46FE1CA59";
shapes = (
{
closed = 1;
nodes = (
(256,1970,l),
(256,-480,l),
(302,-480,l),
(302,1970,l)
);
}
);
width = 558;
},
{
layerId = m007;
shapes = (
{
closed = 1;
nodes = (
(230,1970,l),
(230,-480,l),
(376,-480,l),
(376,1970,l)
);
}
);
width = 606;
},
{
guides = (
{
pos = (-128,1240);
},
{
pos = (-128,764);
}
);
layerId = m009;
shapes = (
{
closed = 1;
nodes = (
(202,1970,l),
(202,-480,l),
(594,-480,l),
(594,1970,l)
);
}
);
width = 798;
},
{
layerId = m011;
shapes = (
{
closed = 1;
nodes = (
(192,1970,l),
(192,-480,l),
(238,-480,l),
(238,1970,l)
);
}
);
width = 430;
}
);
unicode = 124;
userData = {
"interface.width-adjustments" = (
-16
);
};
}
{
glyphname = currency;
layers = (
{
guides = (
{
angle = 90;
pos = (1004,1696);
},
{
pos = (176,836);
}
);
layerId = "C698F293-3EC0-4A5A-A3A0-0FDB1F5CF265";
shapes = (
{
closed = 1;
nodes = (
(1067,-20,o),
(1335,253,o),
(1335,608,cs),
(1335,963,o),
(1067,1234,o),
(738,1234,cs),
(408,1234,o),
(143,962,o),
(143,608,c),
(143,254,o),
(408,-20,o),
(738,-20,cs)
);
},
{
closed = 1;
nodes = (
(499,142,o),
(305,353,o),
(305,608,c),
(305,866,o),
(499,1074,o),
(738,1074,cs),
(977,1074,o),
(1168,866,o),
(1168,608,cs),
(1168,353,o),
(977,142,o),
(738,142,cs)
);
},
{
closed = 1;
nodes = (
(1366,1131,l),
(1244,1255,l),
(1044,1049,l),
(1162,925,l)
);
},
{
closed = 1;
nodes = (
(1366,109,l),
(1162,313,l),
(1044,191,l),
(1244,-15,l)
);
},
{
closed = 1;
nodes = (
(442,191,l),
(320,313,l),
(120,109,l),
(238,-15,l)
);
},
{
closed = 1;
nodes = (
(442,1049,l),
(238,1255,l),
(120,1131,l),
(320,925,l)
);
}
);
width = 1484;
},
{
guides = (
{
pos = (20,1240);
},
{
pos = (20,764);
}
);
layerId = "5C20EF92-B63D-42A8-8878-93C2863E0093";
shapes = (
{
closed = 1;
nodes = (
(1153,-20,o),
(1436,253,o),
(1438,608,cs),
(1436,963,o),
(1153,1234,o),
(814,1234,cs),
(470,1234,o),
(188,963,o),
(190,608,c),
(188,253,o),
(470,-20,o),
(814,-20,cs)
);
},
{
closed = 1;
nodes = (
(575,189,o),
(392,369,o),
(392,608,c),
(392,849,o),
(575,1026,o),
(814,1026,cs),
(1046,1026,o),
(1236,849,o),
(1236,608,cs),
(1236,369,o),
(1046,189,o),
(814,190,cs)
);
},
{
closed = 1;
nodes = (
(1484,1114,l),
(1326,1272,l),
(1118,1064,l),
(1272,908,l)
);
},
{
closed = 1;
nodes = (
(1484,126,l),
(1272,328,l),
(1118,174,l),
(1326,-32,l)
);
},
{
closed = 1;
nodes = (
(514,174,l),
(358,328,l),
(148,126,l),
(302,-32,l)
);
},
{
closed = 1;
nodes = (
(514,1064,l),
(302,1272,l),
(148,1114,l),
(358,908,l)
);
}
);
width = 1624;
},
{
layerId = "B1F27B51-9973-4381-9301-4FE46FE1CA59";
shapes = (
{
closed = 1;
nodes = (
(1023,-20,o),
(1274,253,o),
(1274,608,cs),
(1274,963,o),
(1023,1234,o),
(694,1234,cs),
(369,1234,o),
(116,963,o),
(116,608,cs),
(116,253,o),
(369,-20,o),
(694,-20,cs)
);
},
{
closed = 1;
nodes = (
(396,26,o),
(162,279,o),
(162,608,cs),
(162,938,o),
(397,1186,o),
(694,1186,cs),
(993,1186,o),
(1228,938,o),
(1228,608,cs),
(1226,279,o),
(995,26,o),
(694,26,cs)
);
},
{
closed = 1;
nodes = (
(1284,1184,l),
(1254,1218,l),
(1080,1038,l),
(1110,1004,l)
);
},
{
closed = 1;
nodes = (
(1284,34,l),
(1110,214,l),
(1080,180,l),
(1254,0,l)
);
},
{
closed = 1;
nodes = (
(310,180,l),
(280,214,l),
(104,34,l),
(136,0,l)
);
},
{
closed = 1;
nodes = (
(310,1038,l),
(136,1218,l),
(104,1184,l),
(280,1004,l)
);
}
);
width = 1394;
},
{
guides = (
{
angle = 90;
pos = (712,1696);
},
{
pos = (-116,836);
}
);
layerId = m007;
shapes = (
{
closed = 1;
nodes = (
(1033,-20,o),
(1300,253,o),
(1300,608,cs),
(1300,963,o),
(1033,1234,o),
(704,1234,cs),
(375,1234,o),
(110,963,o),
(110,608,c),
(110,253,o),
(375,-20,o),
(704,-20,cs)
);
},
{
closed = 1;
nodes = (
(465,140,o),
(270,352,o),
(270,608,c),
(270,867,o),
(465,1076,o),
(704,1076,cs),
(943,1076,o),
(1134,867,o),
(1134,608,cs),
(1134,352,o),
(943,140,o),
(704,140,cs)
);
},
{
closed = 1;
nodes = (
(1330,1132,l),
(1210,1254,l),
(1010,1048,l),
(1126,926,l)
);
},
{
closed = 1;
nodes = (
(1330,108,l),
(1126,312,l),
(1010,192,l),
(1210,-14,l)
);
},
{
closed = 1;
nodes = (
(408,192,l),
(288,312,l),
(88,108,l),
(204,-14,l)
);
},
{
closed = 1;
nodes = (
(408,1048,l),
(204,1254,l),
(88,1132,l),
(288,926,l)
);
}
);
width = 1416;
},
{
guides = (
{
pos = (-76,1240);
},
{
pos = (-76,764);
}
);
layerId = m009;
shapes = (
{
closed = 1;
nodes = (
(1137,-20,o),
(1420,253,o),
(1422,608,cs),
(1420,963,o),
(1137,1234,o),
(798,1234,cs),
(454,1234,o),
(172,963,o),
(174,608,c),
(172,253,o),
(454,-20,o),
(798,-20,cs)
);
},
{
closed = 1;
nodes = (
(559,189,o),
(376,369,o),
(376,608,c),
(376,849,o),
(559,1026,o),
(798,1026,cs),
(1030,1026,o),
(1220,849,o),
(1220,608,cs),
(1220,369,o),
(1030,189,o),
(798,190,cs)
);
},
{
closed = 1;
nodes = (
(1468,1114,l),
(1310,1272,l),
(1102,1064,l),
(1256,908,l)
);
},
{
closed = 1;
nodes = (
(1468,126,l),
(1256,328,l),
(1102,174,l),
(1310,-32,l)
);
},
{
closed = 1;
nodes = (
(498,174,l),
(342,328,l),
(132,126,l),
(286,-32,l)
);
},
{
closed = 1;
nodes = (
(498,1064,l),
(286,1272,l),
(132,1114,l),
(342,908,l)
);
}
);
width = 1592;
},
{
layerId = m011;
shapes = (
{
closed = 1;
nodes = (
(959,-20,o),
(1210,253,o),
(1210,608,cs),
(1210,963,o),
(959,1234,o),
(630,1234,cs),
(305,1234,o),
(52,963,o),
(52,608,cs),
(52,253,o),
(305,-20,o),
(630,-20,cs)
);
},
{
closed = 1;
nodes = (
(332,26,o),
(98,279,o),
(98,608,cs),
(98,938,o),
(333,1186,o),
(630,1186,cs),
(929,1186,o),
(1164,938,o),
(1164,608,cs),
(1162,279,o),
(931,26,o),
(630,26,cs)
);
},
{
closed = 1;
nodes = (
(1220,1184,l),
(1190,1218,l),
(1016,1038,l),
(1046,1004,l)
);
},
{
closed = 1;
nodes = (
(1220,34,l),
(1046,214,l),
(1016,180,l),
(1190,0,l)
);
},
{
closed = 1;
nodes = (
(246,180,l),
(216,214,l),
(40,34,l),
(72,0,l)
);
},
{
closed = 1;
nodes = (
(246,1038,l),
(72,1218,l),
(40,1184,l),
(216,1004,l)
);
}
);
width = 1266;
}
);
unicode = 164;
userData = {
com.typemytype.robofont.guideline.magnetic.1UyvG88lVl = 5;
com.typemytype.robofont.guideline.magnetic.UzBXDjMMIk = 5;
interface.gridadjust.original = "{'width': 2002.0, 'leftMargin': 143, 'rightMargin': 118.0}";
"interface.width-adjustments" = (
-16
);
};
}
{
glyphname = brokenbar;
layers = (
{
guides = (
{
pos = (500,832);
},
{
pos = (752,1116);
},
{
pos = (752,552);
}
);
layerId = "C698F293-3EC0-4A5A-A3A0-0FDB1F5CF265";
shapes = (
{
closed = 1;
nodes = (
(192,-280,l),
(361,-280,l),
(361,403,l),
(192,403,l)
);
},
{
closed = 1;
nodes = (
(192,1490,l),
(192,811,l),
(361,811,l),
(361,1490,l)
);
}
);
width = 553;
},
{
guides = (
{
pos = (828,1092);
},
{
pos = (864,576);
}
);
layerId = "5C20EF92-B63D-42A8-8878-93C2863E0093";
shapes = (
{
closed = 1;
nodes = (
(230,-280,l),
(584,-280,l),
(584,424,l),
(230,424,l)
);
},
{
closed = 1;
nodes = (
(230,1490,l),
(230,788,l),
(584,788,l),
(584,1490,l)
);
}
);
width = 814;
},
{
layerId = "B1F27B51-9973-4381-9301-4FE46FE1CA59";
shapes = (
{
closed = 1;
nodes = (
(168,-280,l),
(214,-280,l),
(214,386,l),
(168,386,l)
);
},
{
closed = 1;
nodes = (
(168,1490,l),
(168,826,l),
(214,826,l),
(214,1490,l)
);
}
);
width = 382;
},
{
guides = (
{
pos = (208,832);
},
{
pos = (460,1116);
},
{
pos = (460,552);
}
);
layerId = m007;
shapes = (
{
closed = 1;
nodes = (
(160,-280,l),
(320,-280,l),
(320,402,l),
(160,402,l)
);
},
{
closed = 1;
nodes = (
(160,1490,l),
(160,812,l),
(320,812,l),
(320,1490,l)
);
}
);
width = 480;
},
{
guides = (
{
pos = (732,1092);
},
{
pos = (768,576);
}
);
layerId = m009;
shapes = (
{
closed = 1;
nodes = (
(214,-280,l),
(568,-280,l),
(568,424,l),
(214,424,l)
);
},
{
closed = 1;
nodes = (
(214,1490,l),
(214,788,l),
(568,788,l),
(568,1490,l)
);
}
);
width = 782;
},
{
layerId = m011;
shapes = (
{
closed = 1;
nodes = (
(104,-280,l),
(150,-280,l),
(150,386,l),
(104,386,l)
);
},
{
closed = 1;
nodes = (
(104,1490,l),
(104,826,l),
(150,826,l),
(150,1490,l)
);
}
);
width = 254;
}
);
unicode = 166;
userData = {
com.typemytype.robofont.guideline.magnetic.7XIyiEEc60 = 5;
com.typemytype.robofont.guideline.magnetic.MxvJVkfsW3 = 5;
com.typemytype.robofont.guideline.magnetic.YQqXyZ7Bm4 = 5;
interface.gridadjust.original = "{'width': 690, 'leftMargin': 199, 'rightMargin': 216}";
"interface.width-adjustments" = (
-16
);
};
}
{
glyphname = degree;
kernLeft = asciicircum;
kernRight = asciicircum;
layers = (
{
layerId = "C698F293-3EC0-4A5A-A3A0-0FDB1F5CF265";
shapes = (
{
closed = 1;
nodes = (
(652,829,o),
(803,979,o),
(803,1164,cs),
(803,1350,o),
(652,1502,o),
(468,1502,cs),
(282,1502,o),
(130,1350,o),
(130,1164,cs),
(130,979,o),
(282,829,o),
(468,829,cs)
);
},
{
closed = 1;
nodes = (
(364,979,o),
(281,1062,o),
(281,1164,cs),
(281,1267,o),
(364,1351,o),
(468,1351,cs),
(570,1351,o),
(653,1267,o),
(653,1164,cs),
(653,1062,o),
(570,979,o),
(468,979,cs)
);
}
);
width = 933;
},
{
layerId = "5C20EF92-B63D-42A8-8878-93C2863E0093";
shapes = (
{
closed = 1;
nodes = (
(680,753,o),
(846,920,o),
(846,1126,cs),
(846,1332,o),
(680,1498,o),
(474,1498,cs),
(268,1498,o),
(102,1332,o),
(102,1126,cs),
(102,920,o),
(268,753,o),
(474,754,cs)
);
},
{
closed = 1;
nodes = (
(405,1001,o),
(350,1057,o),
(350,1126,cs),
(350,1195,o),
(405,1250,o),
(474,1250,cs),
(543,1250,o),
(600,1195,o),
(600,1126,cs),
(600,1057,o),
(543,1001,o),
(474,1000,cs)
);
}
);
width = 948;
},
{
layerId = "B1F27B51-9973-4381-9301-4FE46FE1CA59";
shapes = (
{
closed = 1;
nodes = (
(633,905,o),
(768,1040,o),
(768,1208,cs),
(768,1375,o),
(633,1510,o),
(466,1510,cs),
(298,1510,o),
(162,1375,o),
(162,1208,cs),
(162,1040,o),
(298,905,o),
(466,904,cs)
);
},
{
closed = 1;
nodes = (
(324,951,o),
(210,1065,o),
(210,1208,cs),
(210,1349,o),
(324,1464,o),
(466,1464,cs),
(607,1464,o),
(722,1349,o),
(722,1208,cs),
(722,1065,o),
(607,951,o),
(466,952,cs)
);
}
);
width = 930;
},
{
layerId = m007;
shapes = (
{
closed = 1;
nodes = (
(618,832,o),
(768,982,o),
(768,1166,cs),
(768,1351,o),
(618,1502,o),
(434,1502,cs),
(249,1502,o),
(98,1351,o),
(98,1166,cs),
(98,982,o),
(249,832,o),
(434,832,cs)
);
},
{
closed = 1;
nodes = (
(329,977,o),
(244,1062,o),
(244,1166,cs),
(244,1271,o),
(329,1356,o),
(434,1356,cs),
(538,1356,o),
(622,1271,o),
(622,1166,cs),
(622,1062,o),
(538,977,o),
(434,978,cs)
);
}
);
width = 866;
},
{
layerId = m009;
shapes = (
{
closed = 1;
nodes = (
(664,753,o),
(830,920,o),
(830,1126,cs),
(830,1332,o),
(664,1498,o),
(458,1498,cs),
(252,1498,o),
(86,1332,o),
(86,1126,cs),
(86,920,o),
(252,753,o),
(458,754,cs)
);
},
{
closed = 1;
nodes = (
(389,1001,o),
(334,1057,o),
(334,1126,cs),
(334,1195,o),
(389,1250,o),
(458,1250,cs),
(527,1250,o),
(584,1195,o),
(584,1126,cs),
(584,1057,o),
(527,1001,o),
(458,1000,cs)
);
}
);
width = 916;
},
{
layerId = m011;
shapes = (
{
closed = 1;
nodes = (
(569,905,o),
(704,1040,o),
(704,1208,cs),
(704,1375,o),
(569,1510,o),
(402,1510,cs),
(234,1510,o),
(98,1375,o),
(98,1208,cs),
(98,1040,o),
(234,905,o),
(402,904,cs)
);
},
{
closed = 1;
nodes = (
(260,951,o),
(146,1065,o),
(146,1208,cs),
(146,1349,o),
(260,1464,o),
(402,1464,cs),
(543,1464,o),
(658,1349,o),
(658,1208,cs),
(658,1065,o),
(543,951,o),
(402,952,cs)
);
}
);
width = 802;
}
);
unicode = 176;
userData = {
interface.gridadjust.original = "{'width': 896, 'leftMargin': 28, 'rightMargin': 168}";
"interface.width-adjustments" = (
-16
);
};
}
